<svg width="128" height="128" fill="none" xmlns="http://www.w3.org/2000/svg"><g clip-path="url(#clip0_32_692)"><path d="M72 40a32 32 0 10-32 32 32.036 32.036 0 0032-32zm-60 0a28 28 0 1128 28 28.031 28.031 0 01-28-28z" fill="url(#paint0_linear_32_692)"/><path d="M42 18a2 2 0 00-2-2 24.028 24.028 0 00-24 24 2 2 0 004 0 20.022 20.022 0 0120-20 2 2 0 002-2z" fill="url(#paint1_linear_32_692)"/><path d="M124.1 105.272L92.828 74l2.586-2.586a1.998 1.998 0 000-2.828l-6-6a1.997 1.997 0 00-2.828 0L82 67.172l-7.32-7.322a40.115 40.115 0 10-14.83 14.83L67.172 82l-4.586 4.586a2 2 0 000 2.828l6 6a1.999 1.999 0 002.828 0L74 92.828l31.273 31.272a13.31 13.31 0 0018.748-.079 13.315 13.315 0 00.079-18.749zM4 40a36 36 0 1136 36A36.04 36.04 0 014 40zm59.313 32.484a41.699 41.699 0 009.171-9.17L79.172 70 70 79.172l-6.687-6.688zM70 91.172L66.828 88 88 66.828 91.172 70 70 91.172zm51.273 30.1a9.327 9.327 0 01-13.172 0L76.828 90 90 76.828l31.273 31.272a9.325 9.325 0 010 13.172z" fill="url(#paint2_linear_32_692)"/><path d="M117.03 117.03a3.322 3.322 0 01-4.687 0l-11.686-11.686a2.001 2.001 0 00-2.828 2.828l11.687 11.688a7.322 7.322 0 0010.342 0 2.002 2.002 0 00-2.828-2.828v-.002z" fill="url(#paint3_linear_32_692)"/></g><defs><linearGradient id="paint0_linear_32_692" x1="8" y1="8" x2="75.735" y2="12.233" gradientUnits="userSpaceOnUse"><stop stop-color="#FFD600"/><stop offset="1" stop-color="#FFBB36"/></linearGradient><linearGradient id="paint1_linear_32_692" x1="16" y1="16" x2="43.517" y2="17.72" gradientUnits="userSpaceOnUse"><stop stop-color="#FFD600"/><stop offset="1" stop-color="#FFBB36"/></linearGradient><linearGradient id="paint2_linear_32_692" x1="-.231" y1="-.231" x2="135.4" y2="8.246" gradientUnits="userSpaceOnUse"><stop stop-color="#FFD600"/><stop offset="1" stop-color="#FFBB36"/></linearGradient><linearGradient id="paint3_linear_32_692" x1="97.267" y1="104.782" x2="121.7" y2="106.837" gradientUnits="userSpaceOnUse"><stop stop-color="#FFD600"/><stop offset="1" stop-color="#FFBB36"/></linearGradient><clipPath id="clip0_32_692"><path fill="#fff" d="M0 0h128v128H0z"/></clipPath></defs></svg>