<svg width="128" height="128" fill="none" xmlns="http://www.w3.org/2000/svg"><path d="M126 48a2 2 0 00-2 2v68a6.007 6.007 0 01-6 6H10a6.007 6.007 0 01-6-6V10a6.007 6.007 0 016-6h68a2 2 0 000-4H10A10.012 10.012 0 000 10v108a10.014 10.014 0 0010 10h108a10.016 10.016 0 007.068-2.932A10.016 10.016 0 00128 118V50a2 2 0 00-2-2z" fill="url(#paint0_linear_32_693)"/><path d="M18.04 83.607l-6 30a1.998 1.998 0 001.382 2.307c.315.096.649.112.971.047l30-6c.38-.095.732-.283 1.022-.547l77.028-77.03A18.97 18.97 0 1095.615 5.558l-77.03 77.029c-.263.29-.45.64-.545 1.021zm3.19 4.45l18.714 18.714-23.394 4.679 4.68-23.393zM85 21.828L94.172 31 32 93.172 22.828 84 85 21.828zm6-6L112.172 37 109 40.172 87.828 19 91 15.828zm-47 89.343L34.828 96 97 33.828 106.172 43 44 105.171zM98.443 8.385a14.97 14.97 0 0121.172 21.172L115 34.172 93.828 13l4.615-4.615z" fill="url(#paint1_linear_32_693)"/><defs><linearGradient id="paint0_linear_32_693" x1="0" y1="0" x2="135.471" y2="8.467" gradientUnits="userSpaceOnUse"><stop stop-color="#FFD600"/><stop offset="1" stop-color="#FFBB36"/></linearGradient><linearGradient id="paint1_linear_32_693" x1="12.001" y1="0" x2="134.77" y2="7.673" gradientUnits="userSpaceOnUse"><stop stop-color="#FFD600"/><stop offset="1" stop-color="#FFBB36"/></linearGradient></defs></svg>