<svg width="124" height="124" fill="none" xmlns="http://www.w3.org/2000/svg"><path d="M62 0a62 62 0 1062 62A62.073 62.073 0 0062 0zm0 120a58 58 0 1158-58 58.065 58.065 0 01-58 58z" fill="url(#paint0_linear_32_668)"/><path d="M62 8a54 54 0 1054 54A54.062 54.062 0 0062 8zm0 104a49.997 49.997 0 01-35.355-85.355A50 50 0 01112 62a50.055 50.055 0 01-50 50z" fill="url(#paint1_linear_32_668)"/><path d="M62 24a2 2 0 002-2v-4a2 2 0 00-4 0v4a2 2 0 002 2z" fill="url(#paint2_linear_32_668)"/><path d="M32.302 29.474a2 2 0 00-2.828 2.828l2.828 2.828a2 2 0 002.828-2.828l-2.828-2.828z" fill="url(#paint3_linear_32_668)"/><path d="M22 60h-4a2 2 0 000 4h4a2 2 0 000-4z" fill="url(#paint4_linear_32_668)"/><path d="M32.302 88.87l-2.828 2.828a2 2 0 102.828 2.828l2.828-2.828a2 2 0 00-2.828-2.828z" fill="url(#paint5_linear_32_668)"/><path d="M62 100a2 2 0 00-2 2v4a2 2 0 004 0v-4a2 2 0 00-2-2z" fill="url(#paint6_linear_32_668)"/><path d="M91.698 88.87a2 2 0 00-2.828 2.828l2.828 2.828a2 2 0 102.828-2.828l-2.828-2.828z" fill="url(#paint7_linear_32_668)"/><path d="M106 60h-4a2 2 0 000 4h4a2 2 0 000-4z" fill="url(#paint8_linear_32_668)"/><path d="M91.698 29.474l-2.828 2.828a2.002 2.002 0 00.632 3.29 2 2 0 002.196-.462l2.829-2.828a2.001 2.001 0 10-2.829-2.828z" fill="url(#paint9_linear_32_668)"/><path d="M67.4 64.572c.391-.802.596-1.68.6-2.572a5.99 5.99 0 00-4-5.631V32a2 2 0 00-4 0v24.369a5.98 5.98 0 00-2.2 9.941 5.98 5.98 0 006.774 1.092l10.013 10.012a2 2 0 002.828-2.828L67.4 64.572zM60 62a2 2 0 113.842.775 1.95 1.95 0 01-.453.649A1.919 1.919 0 0162 64a2.003 2.003 0 01-2-2z" fill="url(#paint10_linear_32_668)"/><defs><linearGradient id="paint0_linear_32_668" x1="0" y1="0" x2="131.237" y2="8.202" gradientUnits="userSpaceOnUse"><stop stop-color="#FFD600"/><stop offset="1" stop-color="#FFBB36"/></linearGradient><linearGradient id="paint1_linear_32_668" x1="8" y1="8" x2="122.304" y2="15.144" gradientUnits="userSpaceOnUse"><stop stop-color="#FFD600"/><stop offset="1" stop-color="#FFBB36"/></linearGradient><linearGradient id="paint2_linear_32_668" x1="60" y1="16" x2="64.246" y2="16.133" gradientUnits="userSpaceOnUse"><stop stop-color="#FFD600"/><stop offset="1" stop-color="#FFBB36"/></linearGradient><linearGradient id="paint3_linear_32_668" x1="28.906" y1="28.906" x2="36.087" y2="29.355" gradientUnits="userSpaceOnUse"><stop stop-color="#FFD600"/><stop offset="1" stop-color="#FFBB36"/></linearGradient><linearGradient id="paint4_linear_32_668" x1="16" y1="60" x2="24.369" y2="61.046" gradientUnits="userSpaceOnUse"><stop stop-color="#FFD600"/><stop offset="1" stop-color="#FFBB36"/></linearGradient><linearGradient id="paint5_linear_32_668" x1="28.87" y1="88.309" x2="36.089" y2="88.76" gradientUnits="userSpaceOnUse"><stop stop-color="#FFD600"/><stop offset="1" stop-color="#FFBB36"/></linearGradient><linearGradient id="paint6_linear_32_668" x1="60" y1="100" x2="64.246" y2="100.133" gradientUnits="userSpaceOnUse"><stop stop-color="#FFD600"/><stop offset="1" stop-color="#FFBB36"/></linearGradient><linearGradient id="paint7_linear_32_668" x1="88.309" y1="88.309" x2="95.528" y2="88.76" gradientUnits="userSpaceOnUse"><stop stop-color="#FFD600"/><stop offset="1" stop-color="#FFBB36"/></linearGradient><linearGradient id="paint8_linear_32_668" x1="100" y1="60" x2="108.369" y2="61.046" gradientUnits="userSpaceOnUse"><stop stop-color="#FFD600"/><stop offset="1" stop-color="#FFBB36"/></linearGradient><linearGradient id="paint9_linear_32_668" x1="88.26" y1="28.87" x2="95.531" y2="29.324" gradientUnits="userSpaceOnUse"><stop stop-color="#FFD600"/><stop offset="1" stop-color="#FFBB36"/></linearGradient><linearGradient id="paint10_linear_32_668" x1="55.983" y1="30" x2="79.331" y2="30.669" gradientUnits="userSpaceOnUse"><stop stop-color="#FFD600"/><stop offset="1" stop-color="#FFBB36"/></linearGradient></defs></svg>