<svg width="90" height="90" fill="none" xmlns="http://www.w3.org/2000/svg"><path d="M75.412 43.523h8.384c1.485 0 2.834.606 3.811 1.583a5.378 5.378 0 010 7.622 5.378 5.378 0 01-3.81 1.584h-8.385a1.837 1.837 0 01-1.836-1.837V45.36c0-1.015.822-1.837 1.837-1.837z" fill="url(#paint0_linear_341_163)"/><path d="M79.789 13.775a1.837 1.837 0 013.673 0V44.74a1.837 1.837 0 01-3.673 0V13.776z" fill="url(#paint1_linear_341_163)"/><path d="M38.393 18.444v1.798l-2.506 10.064h-1.749l2.506-10.064h-3.622v-1.798h5.371z" fill="url(#paint2_linear_341_163)"/><path d="M20.906 18.444v1.798L18.4 30.306h-1.75l2.507-10.064h-3.623v-1.798h5.372z" fill="url(#paint3_linear_341_163)"/><path d="M55.88 18.444v1.798l-2.505 10.064h-1.75l2.506-10.064H50.51v-1.798h5.372z" fill="url(#paint4_linear_341_163)"/><path fill-rule="evenodd" clip-rule="evenodd" d="M70.606 33.98V4.707a4.81 4.81 0 00-.008-.27V0H.81v67.528h69.795V33.98zM45.389 11.25H61V37.5H45.39V11.25zm-34.975 0h15.613V37.5H10.414V11.25zm33.1 0H27.9V37.5h15.613V11.25zm6.351 32.34a4.578 4.578 0 013.247-1.345c1.268 0 2.416.514 3.247 1.345a4.578 4.578 0 011.345 3.247 4.578 4.578 0 01-1.345 3.246 4.578 4.578 0 01-3.247 1.346 4.578 4.578 0 01-3.247-1.346 4.578 4.578 0 01-1.345-3.246c0-1.268.514-2.416 1.345-3.247zm-31.562-1.345c1.268 0 2.416.514 3.247 1.345a4.578 4.578 0 011.345 3.247 4.578 4.578 0 01-1.345 3.246 4.578 4.578 0 01-3.247 1.346 4.578 4.578 0 01-3.247-1.346 4.577 4.577 0 01-1.345-3.246c0-1.268.514-2.416 1.345-3.247a4.577 4.577 0 013.247-1.345zm17.405 0c1.268 0 2.416.514 3.247 1.345a4.577 4.577 0 011.345 3.247 4.577 4.577 0 01-1.345 3.246 4.578 4.578 0 01-3.247 1.346 4.578 4.578 0 01-3.247-1.346 4.577 4.577 0 01-1.345-3.246c0-1.268.514-2.416 1.345-3.247a4.577 4.577 0 013.247-1.345z" fill="url(#paint5_linear_341_163)"/><path d="M87.46 10.855H75.792v3.674h11.666v-3.674z" fill="url(#paint6_linear_341_163)"/><path d="M77.25 33.98H66.931v29.875h10.317V33.98z" fill="url(#paint7_linear_341_163)"/><path fill-rule="evenodd" clip-rule="evenodd" d="M.81 69.365h69.795V90H.81V69.365zm11.938 5.726h45.919v9.184H12.748V75.09z" fill="url(#paint8_linear_341_163)"/><defs><linearGradient id="paint0_linear_341_163" x1="73.576" y1="43.523" x2="90.032" y2="45.011" gradientUnits="userSpaceOnUse"><stop stop-color="#FFD600"/><stop offset="1" stop-color="#FFBB36"/></linearGradient><linearGradient id="paint1_linear_341_163" x1="79.789" y1="11.939" x2="83.692" y2="11.965" gradientUnits="userSpaceOnUse"><stop stop-color="#FFD600"/><stop offset="1" stop-color="#FFBB36"/></linearGradient><linearGradient id="paint2_linear_341_163" x1="33.022" y1="18.444" x2="38.724" y2="18.605" gradientUnits="userSpaceOnUse"><stop stop-color="#FFD600"/><stop offset="1" stop-color="#FFBB36"/></linearGradient><linearGradient id="paint3_linear_341_163" x1="15.534" y1="18.444" x2="21.237" y2="18.605" gradientUnits="userSpaceOnUse"><stop stop-color="#FFD600"/><stop offset="1" stop-color="#FFBB36"/></linearGradient><linearGradient id="paint4_linear_341_163" x1="50.509" y1="18.444" x2="56.212" y2="18.605" gradientUnits="userSpaceOnUse"><stop stop-color="#FFD600"/><stop offset="1" stop-color="#FFBB36"/></linearGradient><linearGradient id="paint5_linear_341_163" x1=".81" y1="0" x2="74.66" y2="4.771" gradientUnits="userSpaceOnUse"><stop stop-color="#FFD600"/><stop offset="1" stop-color="#FFBB36"/></linearGradient><linearGradient id="paint6_linear_341_163" x1="75.793" y1="10.855" x2="87.718" y2="13.222" gradientUnits="userSpaceOnUse"><stop stop-color="#FFD600"/><stop offset="1" stop-color="#FFBB36"/></linearGradient><linearGradient id="paint7_linear_341_163" x1="66.932" y1="33.98" x2="77.889" y2="34.216" gradientUnits="userSpaceOnUse"><stop stop-color="#FFD600"/><stop offset="1" stop-color="#FFBB36"/></linearGradient><linearGradient id="paint8_linear_341_163" x1=".809" y1="69.365" x2="71.795" y2="84.371" gradientUnits="userSpaceOnUse"><stop stop-color="#FFD600"/><stop offset="1" stop-color="#FFBB36"/></linearGradient></defs></svg>