<svg width="99" height="98" fill="none" xmlns="http://www.w3.org/2000/svg"><path fill-rule="evenodd" clip-rule="evenodd" d="M29.579 11.755a12.212 12.212 0 013.588 8.662c0 3.382-1.372 6.445-3.588 8.661a12.212 12.212 0 01-8.662 3.589 12.212 12.212 0 01-8.662-3.589 12.211 12.211 0 01-3.588-8.661c0-3.383 1.37-6.446 3.588-8.662a12.212 12.212 0 018.662-3.589c3.382 0 6.445 1.372 8.662 3.589zM.5 5.232v87.536c0 1.441.588 2.75 1.535 3.697A5.217 5.217 0 005.732 98h87.536c1.441 0 2.75-.588 3.697-1.535a5.217 5.217 0 001.535-3.697V5.232c0-1.441-.588-2.75-1.535-3.697A5.217 5.217 0 0093.268 0H5.732C4.29 0 2.982.588 2.035 1.535A5.217 5.217 0 00.5 5.232zm20.417 60.101c3.382 0 6.445 1.372 8.662 3.588a12.212 12.212 0 013.588 8.662c0 3.383-1.372 6.445-3.588 8.662a12.212 12.212 0 01-8.662 3.588 12.212 12.212 0 01-8.662-3.588 12.212 12.212 0 01-3.588-8.662c0-3.382 1.37-6.445 3.588-8.662a12.212 12.212 0 018.662-3.588zM49.5 36.75a12.21 12.21 0 018.662 3.588A12.211 12.211 0 0161.75 49a12.21 12.21 0 01-3.588 8.662A12.211 12.211 0 0149.5 61.25a12.211 12.211 0 01-8.662-3.588A12.212 12.212 0 0137.25 49a12.21 12.21 0 013.588-8.662A12.212 12.212 0 0149.5 36.75zm19.921-24.995a12.212 12.212 0 018.662-3.589c3.383 0 6.445 1.372 8.662 3.588a12.212 12.212 0 013.588 8.662c0 3.383-1.37 6.445-3.588 8.662a12.212 12.212 0 01-8.662 3.589 12.213 12.213 0 01-8.662-3.589 12.212 12.212 0 01-3.588-8.662c0-3.382 1.372-6.444 3.588-8.662zm8.662 53.578a12.21 12.21 0 018.662 3.588 12.211 12.211 0 013.588 8.662c0 3.383-1.37 6.445-3.588 8.662a12.212 12.212 0 01-8.662 3.588 12.212 12.212 0 01-8.662-3.588 12.212 12.212 0 01-3.588-8.662c0-3.382 1.372-6.445 3.588-8.662a12.212 12.212 0 018.662-3.588z" fill="url(#paint0_linear_262_71)"/><defs><linearGradient id="paint0_linear_262_71" x1=".5" y1="0" x2="104.22" y2="6.482" gradientUnits="userSpaceOnUse"><stop stop-color="#FFD600"/><stop offset="1" stop-color="#FFBB36"/></linearGradient></defs></svg>