<svg width="112" height="114" fill="none" xmlns="http://www.w3.org/2000/svg"><path d="M94.182 55.154h10.48c1.857 0 3.543.758 4.764 1.979a6.723 6.723 0 010 9.527 6.723 6.723 0 01-4.764 1.98h-10.48a2.296 2.296 0 01-2.296-2.297V57.45a2.296 2.296 0 012.296-2.296z" fill="url(#paint0_linear_262_28)"/><path d="M99.653 17.97a2.296 2.296 0 014.592 0v38.704a2.296 2.296 0 01-4.592 0V17.969z" fill="url(#paint1_linear_262_28)"/><path d="M47.908 23.805v2.247l-3.132 12.58h-2.187l3.133-12.58h-4.528v-2.247h6.714z" fill="url(#paint2_linear_262_28)"/><path d="M26.05 23.805v2.247l-3.134 12.58H20.73l3.133-12.58h-4.529v-2.247h6.715z" fill="url(#paint3_linear_262_28)"/><path d="M69.768 23.805v2.247l-3.133 12.58h-2.187l3.133-12.58h-4.528v-2.247h6.715z" fill="url(#paint4_linear_262_28)"/><path fill-rule="evenodd" clip-rule="evenodd" d="M88.174 43.224V6.634c0-.114-.004-.227-.01-.339V.75H.929v84.41h87.245V43.225zM56.653 14.813h19.515v32.813H56.653V14.812zm-43.718 0H32.45v32.813H12.934V14.812zm41.374 0H34.794v32.813h19.515V14.812zm7.94 40.425a5.723 5.723 0 014.058-1.681c1.585 0 3.02.643 4.058 1.681a5.722 5.722 0 011.682 4.059c0 1.585-.643 3.02-1.681 4.058a5.722 5.722 0 01-4.059 1.682 5.723 5.723 0 01-4.059-1.682 5.722 5.722 0 01-1.68-4.058c0-1.585.642-3.02 1.68-4.059zm-39.454-1.681c1.585 0 3.02.643 4.059 1.681a5.722 5.722 0 011.681 4.059c0 1.585-.642 3.02-1.681 4.058a5.723 5.723 0 01-4.059 1.682 5.722 5.722 0 01-4.058-1.682 5.722 5.722 0 01-1.681-4.058c0-1.585.642-3.02 1.68-4.059a5.722 5.722 0 014.06-1.681zm21.756 0c1.585 0 3.02.643 4.059 1.681a5.722 5.722 0 011.681 4.059c0 1.585-.642 3.02-1.681 4.058a5.722 5.722 0 01-4.059 1.682 5.723 5.723 0 01-4.058-1.682 5.722 5.722 0 01-1.681-4.058c0-1.585.642-3.02 1.68-4.059a5.723 5.723 0 014.06-1.681z" fill="url(#paint5_linear_262_28)"/><path d="M109.241 14.319H94.658v4.592h14.583v-4.592z" fill="url(#paint6_linear_262_28)"/><path d="M96.478 43.224H83.581V80.57h12.897V43.224z" fill="url(#paint7_linear_262_28)"/><path fill-rule="evenodd" clip-rule="evenodd" d="M.929 87.456h87.244v25.794H.93V87.456zm14.923 7.157H73.25v11.48H15.852v-11.48z" fill="url(#paint8_linear_262_28)"/><defs><linearGradient id="paint0_linear_262_28" x1="91.886" y1="55.154" x2="112.456" y2="57.014" gradientUnits="userSpaceOnUse"><stop stop-color="#FFD600"/><stop offset="1" stop-color="#FFBB36"/></linearGradient><linearGradient id="paint1_linear_262_28" x1="99.653" y1="15.673" x2="104.531" y2="15.706" gradientUnits="userSpaceOnUse"><stop stop-color="#FFD600"/><stop offset="1" stop-color="#FFBB36"/></linearGradient><linearGradient id="paint2_linear_262_28" x1="41.194" y1="23.805" x2="48.322" y2="24.006" gradientUnits="userSpaceOnUse"><stop stop-color="#FFD600"/><stop offset="1" stop-color="#FFBB36"/></linearGradient><linearGradient id="paint3_linear_262_28" x1="19.334" y1="23.805" x2="26.463" y2="24.006" gradientUnits="userSpaceOnUse"><stop stop-color="#FFD600"/><stop offset="1" stop-color="#FFBB36"/></linearGradient><linearGradient id="paint4_linear_262_28" x1="63.053" y1="23.805" x2="70.182" y2="24.006" gradientUnits="userSpaceOnUse"><stop stop-color="#FFD600"/><stop offset="1" stop-color="#FFBB36"/></linearGradient><linearGradient id="paint5_linear_262_28" x1=".929" y1=".75" x2="93.241" y2="6.713" gradientUnits="userSpaceOnUse"><stop stop-color="#FFD600"/><stop offset="1" stop-color="#FFBB36"/></linearGradient><linearGradient id="paint6_linear_262_28" x1="94.658" y1="14.319" x2="109.565" y2="17.278" gradientUnits="userSpaceOnUse"><stop stop-color="#FFD600"/><stop offset="1" stop-color="#FFBB36"/></linearGradient><linearGradient id="paint7_linear_262_28" x1="83.581" y1="43.224" x2="97.278" y2="43.52" gradientUnits="userSpaceOnUse"><stop stop-color="#FFD600"/><stop offset="1" stop-color="#FFBB36"/></linearGradient><linearGradient id="paint8_linear_262_28" x1=".929" y1="87.456" x2="89.66" y2="106.214" gradientUnits="userSpaceOnUse"><stop stop-color="#FFD600"/><stop offset="1" stop-color="#FFBB36"/></linearGradient></defs></svg>