<svg width="64" height="90" fill="none" xmlns="http://www.w3.org/2000/svg"><path d="M11.979 13.293h34.785c1.173 0 2.238.48 3.01 1.25a4.247 4.247 0 011.249 3.009V77.78a4.247 4.247 0 01-1.25 3.01 4.247 4.247 0 01-3.009 1.249h-.11V22.95a5.2 5.2 0 00-1.53-3.683 5.2 5.2 0 00-3.683-1.529H7.721v-.187c0-1.173.478-2.238 1.25-3.009a4.246 4.246 0 013.008-1.25z" fill="url(#paint0_linear_341_250)"/><path d="M18.023 6.647h34.785c1.173 0 2.238.478 3.009 1.25a4.246 4.246 0 011.25 3.008v60.229a4.246 4.246 0 01-1.25 3.008 4.246 4.246 0 01-3.009 1.25h-.898v-57.84a5.13 5.13 0 00-1.51-3.636 5.134 5.134 0 00-3.636-1.51h-33v-1.501c0-1.173.479-2.238 1.25-3.009a4.246 4.246 0 013.009-1.25z" fill="url(#paint1_linear_341_250)"/><path d="M24.066 0h34.786c1.173 0 2.238.479 3.009 1.25.77.77 1.25 1.835 1.25 3.008v60.229a4.247 4.247 0 01-1.25 3.009 4.247 4.247 0 01-3.01 1.25h-.898V10.904c0-1.368-.543-2.67-1.509-3.636a5.133 5.133 0 00-3.636-1.51h-33v-1.5c0-1.174.478-2.239 1.25-3.01A4.246 4.246 0 0124.065 0z" fill="url(#paint2_linear_341_250)"/><path d="M5.215 18.626H41.44a4.31 4.31 0 013.056 1.27 4.313 4.313 0 011.27 3.055v62.724a4.313 4.313 0 01-1.27 3.056 4.313 4.313 0 01-3.056 1.27H5.215a4.313 4.313 0 01-3.056-1.27 4.313 4.313 0 01-1.27-3.056V22.951c0-1.191.487-2.273 1.27-3.056a4.313 4.313 0 013.056-1.269zM28.63 73.323l3.66 9.727h3.165l3.66-9.727h-2.843l-.482 1.4h-3.835l-.481-1.4H28.63zm4.01 3.588h2.465l-1.24 3.66-1.225-3.66zm-9.977-31.944c-1.235-1.555-2.642-2.097-4.622-2.097a6.134 6.134 0 00-4.352 1.804 6.135 6.135 0 00-1.804 4.352c0 3.11 1.67 6.03 3.483 8.448 2.16 2.88 4.804 5.486 7.346 8.028.34.34.889.34 1.228 0 2.543-2.542 5.186-5.148 7.346-8.028 1.813-2.418 3.483-5.339 3.483-8.448a6.135 6.135 0 00-1.803-4.352 6.135 6.135 0 00-4.353-1.804c-1.39 0-2.585.315-3.675 1.188a6.346 6.346 0 00-.927.922l-.683.827-.667-.84zm-4.398-9.529l-3.66-9.726H11.44l-3.66 9.726h2.843l.482-1.4h3.835l.481 1.4h2.844zm-4.01-3.587H11.79l1.24-3.66 1.225 3.66z" fill="url(#paint3_linear_341_250)"/><defs><linearGradient id="paint0_linear_341_250" x1="7.721" y1="13.293" x2="53.658" y2="15.102" gradientUnits="userSpaceOnUse"><stop stop-color="#FFD600"/><stop offset="1" stop-color="#FFBB36"/></linearGradient><linearGradient id="paint1_linear_341_250" x1="13.764" y1="6.647" x2="59.702" y2="8.455" gradientUnits="userSpaceOnUse"><stop stop-color="#FFD600"/><stop offset="1" stop-color="#FFBB36"/></linearGradient><linearGradient id="paint2_linear_341_250" x1="19.808" y1="0" x2="65.745" y2="1.808" gradientUnits="userSpaceOnUse"><stop stop-color="#FFD600"/><stop offset="1" stop-color="#FFBB36"/></linearGradient><linearGradient id="paint3_linear_341_250" x1=".89" y1="18.626" x2="48.498" y2="20.497" gradientUnits="userSpaceOnUse"><stop stop-color="#FFD600"/><stop offset="1" stop-color="#FFBB36"/></linearGradient></defs></svg>