<svg width="79" height="114" fill="none" xmlns="http://www.w3.org/2000/svg"><path d="M14.807 17.367H58.29c1.466 0 2.797.598 3.761 1.562a5.308 5.308 0 011.562 3.76v75.286a5.31 5.31 0 01-1.562 3.762 5.311 5.311 0 01-3.761 1.562h-.139v-73.86a6.5 6.5 0 00-1.911-4.604 6.5 6.5 0 00-4.604-1.91H9.485v-.235c0-1.466.597-2.798 1.561-3.761a5.308 5.308 0 013.761-1.562z" fill="url(#paint0_linear_262_56)"/><path d="M22.362 9.058h43.482c1.466 0 2.797.599 3.76 1.562a5.308 5.308 0 011.563 3.761v75.286a5.308 5.308 0 01-1.562 3.761 5.308 5.308 0 01-3.761 1.562H64.72v-72.3a6.42 6.42 0 00-1.887-4.545 6.417 6.417 0 00-4.545-1.887h-41.25v-1.877c0-1.466.598-2.797 1.562-3.76a5.308 5.308 0 013.76-1.563z" fill="url(#paint1_linear_262_56)"/><path d="M29.916.75h43.482c1.466 0 2.798.598 3.761 1.562a5.308 5.308 0 011.562 3.76V81.36a5.308 5.308 0 01-1.562 3.76 5.308 5.308 0 01-3.76 1.563h-1.124v-72.3c0-1.71-.678-3.338-1.887-4.546a6.416 6.416 0 00-4.544-1.886h-41.25V6.073c0-1.466.598-2.798 1.561-3.761A5.308 5.308 0 0129.916.75z" fill="url(#paint2_linear_262_56)"/><path d="M6.352 24.033h45.283a5.39 5.39 0 013.82 1.586 5.39 5.39 0 011.587 3.82v78.405a5.391 5.391 0 01-1.587 3.82 5.39 5.39 0 01-3.82 1.586H6.352a5.39 5.39 0 01-3.82-1.586 5.391 5.391 0 01-1.587-3.82V29.439c0-1.489.608-2.841 1.587-3.82a5.391 5.391 0 013.82-1.586zm29.27 68.371l4.574 12.158h3.956l4.575-12.158h-3.554l-.602 1.75h-4.794l-.601-1.75H35.62zm5.012 4.484h3.08l-1.549 4.576-1.531-4.576zm-12.472-39.93c-1.543-1.943-3.302-2.62-5.777-2.62a7.668 7.668 0 00-5.44 2.254 7.668 7.668 0 00-2.256 5.44c0 3.887 2.088 7.538 4.355 10.56 2.7 3.6 6.004 6.857 9.182 10.035a1.085 1.085 0 001.535 0c3.178-3.178 6.482-6.435 9.182-10.034 2.266-3.023 4.355-6.674 4.355-10.56a7.669 7.669 0 00-2.255-5.441 7.669 7.669 0 00-5.44-2.255c-1.738 0-3.232.395-4.595 1.485-.427.342-.81.731-1.158 1.152l-.854 1.035-.834-1.05zm-5.498-11.91L18.09 32.89h-3.955L9.558 45.048h3.555l.601-1.75h4.794l.602 1.75h3.554zm-5.012-4.484H14.57l1.55-4.575 1.53 4.575z" fill="url(#paint3_linear_262_56)"/><defs><linearGradient id="paint0_linear_262_56" x1="9.484" y1="17.367" x2="66.906" y2="19.628" gradientUnits="userSpaceOnUse"><stop stop-color="#FFD600"/><stop offset="1" stop-color="#FFBB36"/></linearGradient><linearGradient id="paint1_linear_262_56" x1="17.039" y1="9.058" x2="74.46" y2="11.319" gradientUnits="userSpaceOnUse"><stop stop-color="#FFD600"/><stop offset="1" stop-color="#FFBB36"/></linearGradient><linearGradient id="paint2_linear_262_56" x1="24.593" y1=".75" x2="82.015" y2="3.01" gradientUnits="userSpaceOnUse"><stop stop-color="#FFD600"/><stop offset="1" stop-color="#FFBB36"/></linearGradient><linearGradient id="paint3_linear_262_56" x1=".945" y1="24.033" x2="60.456" y2="26.371" gradientUnits="userSpaceOnUse"><stop stop-color="#FFD600"/><stop offset="1" stop-color="#FFBB36"/></linearGradient></defs></svg>