<svg width="113" height="114" fill="none" xmlns="http://www.w3.org/2000/svg"><path fill-rule="evenodd" clip-rule="evenodd" d="M56.491 4.529c29.004 0 52.519 23.498 52.519 52.462.001 28.982-23.515 52.48-52.519 52.48-28.985 0-52.501-23.498-52.501-52.48C3.99 28.027 27.506 4.53 56.491 4.53zm0-3.737c31.07 0 56.259 25.172 56.259 56.2 0 31.045-25.19 56.216-56.259 56.216C25.441 113.208.25 88.037.25 56.991.25 25.964 25.44.792 56.49.792z" fill="url(#paint0_linear_262_174)"/><path fill-rule="evenodd" clip-rule="evenodd" d="M92.732 57.326v.464l-.018.223v.223l-.019.242v.223l-.019.223v.224l-.018.24-.02.224-.017.223-.02.242-.018.223-.018.223-.037.242-.02.223-.017.223-.038.242-.018.223-.038.223-.037.241-.037.223-.038.224-.036.241-.038.224-.037.24-.037.224-.037.223-.056.242-.037.223-.057.223-.036.223-.056.242-.037.167a1.87 1.87 0 01-.763 1.134 1.849 1.849 0 01-1.6.28c-.912-.28-1.563-1.172-1.322-2.232l.038-.167.037-.205.056-.204.037-.204.038-.205.037-.204.037-.224.037-.204.037-.205.038-.204.037-.205.018-.204.038-.205.037-.204.019-.205.036-.204.02-.223.018-.205.018-.204.02-.205.036-.204.02-.205v-.204l.017-.205.02-.204.018-.205v-.204l.018-.205v-.204l.019-.205v-.204l.018-.205v-.539c0-.464.169-.929.503-1.264.335-.39.781-.576 1.284-.613 1.041-.019 2.009.743 1.99 1.895v.15zM56.5 49.338c2.202-4.405 4.404-6.607 8.81-6.607 4.862 0 8.809 3.947 8.809 8.81 0 8.809-8.81 17.618-17.62 26.428-8.809-8.81-17.618-17.62-17.618-26.429 0-4.862 3.946-8.81 8.81-8.81 4.404 0 6.606 2.203 8.809 6.608zm33.98 20.22l-.054.13-.075.223-.075.205-.093.223-.074.204-.093.205-.093.223-.075.204-.092.205-.094.223-.093.204-.093.205-.11.204-.094.205-.093.223-.093.205-.112.204-.111.205-.094.204-.112.205-.111.204-.112.205-.092.204-.112.205-.13.204-.111.205-.112.204-.112.205-.131.204-.111.205-.13.185-.112.205-.13.204-.13.186-.093.167a1.98 1.98 0 01-1.098.8c-.595.167-1.135.037-1.6-.297-.763-.576-1.06-1.636-.483-2.548l.093-.148.111-.186.111-.167.113-.186.111-.168.11-.185.095-.187.111-.167.112-.186.093-.185.112-.187.092-.186.094-.185.11-.186.095-.167.092-.187.094-.185.092-.186.093-.186.093-.186.093-.186.075-.185.092-.187.075-.186.093-.204.075-.186.093-.186.073-.186.075-.186.075-.186.074-.185.075-.205.074-.186.074-.186.056-.13c.168-.427.484-.8.893-1.023.465-.241.949-.26 1.432-.13.987.353 1.62 1.376 1.21 2.473zm-6.343 10.857l-.093.111-.149.168-.148.185-.15.168-.148.167-.168.167-.149.168-.148.167-.168.168-.148.167-.169.167-.148.149-.167.167-.168.167-.167.168-.167.148-.168.168-.167.149-.168.167-.168.148-.167.168-.167.149-.187.167-.167.149-.186.148-.167.149-.186.149-.168.148-.186.15-.186.148-.186.149-.167.148-.187.15-.185.129-.15.111a1.838 1.838 0 01-1.302.391 1.918 1.918 0 01-1.413-.817c-.522-.8-.447-1.915.409-2.566l.148-.112.168-.13.167-.13.168-.13.167-.13.15-.13.167-.13.167-.131.149-.148.167-.131.15-.13.166-.148.15-.13.166-.149.15-.13.149-.15.148-.13.15-.148.148-.149.149-.148.149-.13.148-.15.15-.148.148-.15.13-.147.15-.15.13-.148.148-.149.13-.149.149-.148.13-.15.13-.166.131-.15.15-.147.073-.112a1.955 1.955 0 011.21-.651c.502-.056.967.075 1.376.372.8.65 1.06 1.84.298 2.733zm-9.674 8.03l-.13.075-.205.112-.205.111-.186.112-.204.111-.205.094-.205.111-.204.111-.205.093-.205.111-.204.094-.205.092-.204.112-.205.093-.223.093-.205.093-.205.093-.223.093-.205.093-.223.093-.204.075-.224.092-.223.093-.205.074-.223.093-.224.075-.204.074-.223.094-.223.073-.224.075-.223.075-.224.073-.223.075-.223.074-.168.056a1.905 1.905 0 01-2.399-1.338c-.204-.93.242-1.953 1.264-2.268l.187-.056.186-.074.205-.056.186-.075.204-.056.205-.074.186-.074.205-.075.204-.055.186-.075.205-.073.186-.076.205-.093.186-.074.186-.074.204-.075.187-.092.186-.075.186-.093.204-.074.186-.093.186-.093.186-.075.186-.092.186-.093.168-.094.186-.092.186-.094.186-.092.186-.093.167-.093.186-.093.168-.111.187-.094.111-.055a1.824 1.824 0 011.358-.205c.502.112.893.39 1.172.8.52.892.353 2.1-.651 2.677zm-11.851 4.239l-.148.038-.224.037-.223.018-.224.037-.223.038-.224.037-.241.018-.223.038-.224.018-.223.037-.224.019-.241.018-.223.02-.224.017-.241.02-.223.018-.242.019-.223.018h-.224l-.242.019h-.224l-.241.018h-.223l-.242.02h-1.396l-.241-.02h-.224l-.241-.019h-.223l-.186-.018a1.862 1.862 0 01-1.247-.539c-.446-.427-.596-.967-.558-1.525.13-.947.893-1.747 1.972-1.71l.186.019h.205l.204.019h.428l.204.018h.838l.205-.018h.427l.205-.02h.204l.205-.018h.205l.224-.018.204-.02h.205l.204-.018.205-.018.205-.019.204-.019.205-.018.204-.037.205-.019.205-.018.204-.038.205-.018.186-.037.205-.018.205-.038.204-.037.13-.019a1.98 1.98 0 011.34.26c.427.279.688.689.819 1.172.204 1.022-.392 2.1-1.526 2.286zm-10.363-1.691c-.167 1.022-1.079 1.84-2.214 1.635l-.149-.037-.223-.037-.222-.037-.224-.056-.223-.037-.224-.056-.223-.037-.223-.056-.223-.056-.224-.056-.223-.056-.223-.055-.224-.056-.223-.056-.223-.074-.224-.056-.222-.074-.223-.055-.224-.075-.205-.056-.223-.074-.223-.075-.223-.073-.224-.075-.223-.075-.223-.073-.223-.094-.205-.074-.223-.075-.224-.093-.223-.074-.204-.093-.223-.093-.205-.074-.186-.075a1.955 1.955 0 01-.986-.947 1.891 1.891 0 01.018-1.618c.447-.855 1.432-1.338 2.419-.93l.186.075.186.074.186.075.205.092.186.076.204.073.186.075.205.055.205.075.186.074.205.074.185.056.205.075.204.056.187.074.204.056.205.056.205.055.186.075.204.055.205.056.186.037.205.056.204.056.186.055.205.038.205.055.204.038.186.055.205.038.205.037.205.037.186.056.203.037.131.018c.465.075.874.335 1.172.707.317.41.428.874.372 1.376zm-11.385-3.496c-.502.912-1.637 1.358-2.642.762l-.13-.073-.186-.112-.205-.112-.186-.13-.205-.111-.186-.13-.186-.112-.204-.13-.187-.13-.186-.13-.186-.112-.204-.13-.186-.149-.186-.13-.186-.13-.186-.13-.187-.13-.186-.149-.186-.13-.186-.15-.186-.129-.186-.149-.167-.148-.186-.15-.187-.148-.186-.149-.167-.148-.186-.15-.168-.148-.185-.148-.168-.15-.186-.166-.167-.149-.167-.168-.15-.111a1.926 1.926 0 01-.595-1.227 1.864 1.864 0 01.558-1.525c.707-.65 1.805-.762 2.605-.037l.13.13.149.131.167.148.15.13.166.149.15.13.167.13.149.149.167.13.168.13.148.13.168.13.167.13.167.13.168.13.168.131.167.112.168.13.167.13.167.111.168.112.168.13.167.112.167.11.168.132.167.111.167.112.187.111.167.112.167.111.186.093.168.112.168.111.185.093.112.075c.39.24.707.613.855 1.06.15.501.094.966-.129 1.43zm-12.242-7.361l-.093-.112-.149-.186-.13-.167-.15-.186-.147-.186-.131-.167-.149-.186-.13-.186-.13-.186-.15-.186-.13-.168-.13-.203-.13-.186-.13-.187-.13-.185-.13-.186-.131-.205-.13-.186-.13-.185-.112-.205-.13-.186-.13-.204-.112-.205-.13-.185-.112-.205-.13-.204-.112-.205-.111-.204-.112-.205-.13-.204-.112-.205-.111-.204-.093-.205-.112-.204-.093-.168a1.96 1.96 0 01-.15-1.338 1.885 1.885 0 011.061-1.245c.875-.373 1.954-.112 2.456.854l.075.168.093.167.112.186.092.186.094.185.111.187.092.185.113.186.111.167.093.187.112.186.112.167.111.186.112.167.111.186.112.167.112.186.111.167.112.167.13.168.111.167.113.186.13.167.111.167.112.168.13.149.13.167.112.167.13.168.13.148.112.168.13.167.13.15.13.166.094.093c.298.372.446.818.428 1.302a1.855 1.855 0 01-.596 1.282c-.8.688-2.01.725-2.753-.167zM22.39 69.224l-.056-.15-.075-.223-.074-.203-.075-.224-.055-.223-.075-.204-.075-.223-.055-.224-.075-.204-.056-.223-.073-.223-.056-.224-.056-.223-.075-.223-.056-.223-.056-.223-.056-.223-.055-.223-.037-.223-.056-.223-.056-.242-.037-.223-.056-.223-.037-.223-.057-.242-.036-.223-.037-.224-.037-.24-.056-.224-.037-.24-.019-.225-.037-.223-.038-.241-.036-.223-.02-.187a1.95 1.95 0 01.317-1.32 1.833 1.833 0 011.414-.798c.968-.056 1.879.557 2.027 1.636l.02.185.018.205.037.204.037.205.02.204.036.205.038.204.037.205.037.204.037.224.037.204.037.205.037.204.056.204.038.205.056.186.036.204.056.205.038.204.056.205.055.186.056.204.056.205.056.204.055.186.056.204.056.186.056.206.056.185.074.204.056.186.075.204.055.187.075.186.037.13c.167.446.149.93-.019 1.356a1.93 1.93 0 01-1.005 1.023c-.985.373-2.139-.018-2.53-1.096zm-2.121-12.549v-.465l.018-.223v-.464l.019-.224.018-.223v-.223l.019-.242.019-.223.018-.223.019-.242.018-.223.02-.222.036-.242.019-.223.019-.223.036-.242.02-.223.036-.223.038-.241.037-.224.019-.242.037-.223.056-.223.037-.242.037-.223.037-.223.056-.241.037-.223.056-.224.037-.223.056-.241.037-.186a1.88 1.88 0 01.763-1.116 1.848 1.848 0 011.6-.278c.912.278 1.562 1.171 1.32 2.231l-.036.167-.038.204-.056.205-.037.204-.037.205-.037.204-.037.205-.037.223-.037.204-.038.205-.037.204-.02.205-.036.204-.037.205-.018.204-.038.205-.018.223-.02.204-.018.205-.037.204-.019.205-.018.204v.205l-.019.204-.019.205-.018.204v.205l-.019.204v.205l-.018.204v.205l-.019.204v.539c0 .465-.167.93-.502 1.264-.335.391-.781.577-1.284.614-1.042.019-2.009-.744-1.99-1.897v-.148zm2.25-12.232l.038-.13.092-.223.075-.205.093-.223.075-.205.093-.204.093-.223.074-.205.093-.204.093-.223.093-.205.093-.204.093-.205.112-.223.093-.204.093-.205.11-.204.095-.205.11-.204.113-.205.112-.204.093-.205.111-.204.112-.205.13-.204.112-.205.111-.204.112-.204.13-.205.112-.205.13-.186.111-.204.13-.205.131-.185.093-.168c.26-.39.651-.67 1.098-.8.595-.166 1.135-.036 1.6.298.763.576 1.06 1.636.483 2.547l-.093.149-.111.186-.112.167-.111.186-.112.168-.112.185-.093.185-.111.168-.113.186-.092.186-.111.186-.094.186-.092.186-.112.168-.093.185-.094.186-.092.185-.094.187-.093.186-.093.186-.092.185-.075.186-.093.186-.074.186-.094.205-.074.185-.093.187-.074.186-.074.185-.076.186-.073.186-.094.205-.056.185-.074.186-.056.13c-.167.428-.483.8-.893 1.023-.465.241-.949.26-1.432.13-.986-.353-1.619-1.376-1.21-2.472zm6.345-10.857l.093-.112.148-.166.15-.187.148-.167.15-.167.167-.169.148-.167.15-.167.167-.166.148-.168.168-.167.149-.167.167-.15.167-.167.168-.167.168-.149.167-.167.168-.149.167-.167.168-.15.167-.166.167-.149.186-.167.168-.15.185-.147.168-.15.186-.148.167-.149.186-.149.187-.148.186-.149.167-.149.186-.148.185-.131.15-.111a1.838 1.838 0 011.302-.39 1.915 1.915 0 011.414.818c.503.799.447 1.915-.409 2.565l-.149.111-.168.13-.167.131-.167.13-.168.13-.148.13-.168.13-.167.13-.15.15-.167.13-.149.129-.167.15-.149.13-.167.148-.15.13-.148.149-.149.13-.148.149-.15.148-.149.149-.148.13-.149.15-.149.148-.148.149-.13.148-.15.148-.13.15-.149.148-.13.15-.149.148-.13.15-.13.166-.149.148-.13.15-.075.111a1.952 1.952 0 01-1.21.65 1.925 1.925 0 01-1.376-.371c-.8-.651-1.06-1.84-.297-2.733zm9.674-8.03l.13-.075.205-.112.204-.111.187-.111.204-.113.205-.093.204-.111.205-.112.204-.093.205-.112.205-.092.205-.093.205-.111.204-.093.223-.093.205-.094.205-.092.223-.093.204-.093.224-.093.205-.075.223-.092.204-.094.223-.074.224-.093.223-.074.205-.074.223-.094.223-.074.223-.074.224-.075.223-.074.223-.074.223-.074.168-.056c.446-.13.93-.112 1.358.093.559.26.893.706 1.042 1.245.205.93-.242 1.952-1.265 2.268l-.186.056-.187.075-.204.055-.205.074-.186.056-.205.075-.185.074-.205.056-.205.074-.186.074-.204.075-.186.074-.205.093-.186.075-.186.074-.205.075-.186.092-.186.075-.186.092-.204.075-.187.092-.186.075-.186.093-.186.093-.186.093-.167.093-.186.093-.186.092-.186.094-.186.093-.168.093-.186.093-.167.111-.186.093-.112.056c-.41.241-.893.316-1.358.204a1.877 1.877 0 01-1.172-.799c-.521-.893-.354-2.1.651-2.677zm11.85-4.24l.15-.037.223-.037.223-.019.223-.036.224-.038.223-.037.242-.019.224-.036.222-.02.223-.036.224-.02.242-.018.223-.018.223-.02.242-.018.224-.018.241-.019.223-.019h.224l.242-.017h.223l.241-.02h.224l.241-.018h1.396l.242.018h.223l.241.02h.224l.187.017c.464.02.91.206 1.246.54.446.428.595.966.557 1.524-.13.948-.892 1.748-1.971 1.71l-.187-.018h-.204l-.205-.019h-.427l-.205-.02h-.838l-.204.02h-.428l-.204.019h-.205l-.205.018h-.204l-.224.02-.205.018h-.204l-.205.018-.204.019-.205.018-.205.019-.204.019-.205.037-.205.018-.204.019-.205.037-.204.019-.187.037-.204.018-.205.038-.204.037-.131.018a1.971 1.971 0 01-1.339-.26 1.874 1.874 0 01-.819-1.171c-.204-1.023.373-2.101 1.525-2.287zm10.364 1.692c.166-1.022 1.078-1.84 2.212-1.636l.15.038.224.036.222.037.224.056.223.038.223.056.224.036.223.056.223.056.223.055.223.056.224.056.223.056.223.056.224.074.223.056.223.075.223.055.224.075.204.056.223.074.223.074.224.075.223.074.224.074.223.074.223.094.204.074.224.074.223.093.205.074.223.094.224.092.204.075.186.074c.428.186.78.52.986.948.242.559.223 1.115-.019 1.617-.446.856-1.432 1.339-2.418.93l-.186-.074-.186-.075-.186-.074-.205-.093-.186-.074-.205-.075-.186-.074-.205-.074-.204-.056-.186-.074-.205-.075-.204-.056-.186-.074-.205-.055-.186-.075-.205-.056-.204-.055-.205-.076-.186-.055-.205-.056-.204-.056-.186-.055-.205-.037-.205-.056-.186-.055-.204-.038-.204-.056-.206-.037-.185-.055-.206-.038-.204-.037-.204-.056-.186-.036-.205-.038-.13-.018a1.983 1.983 0 01-1.173-.707c-.316-.409-.427-.873-.371-1.376zm11.385 3.495c.503-.911 1.638-1.356 2.642-.78l.13.092.187.111.203.112.187.13.204.112.187.13.186.112.204.13.187.13.185.13.186.111.205.13.186.15.186.13.187.13.185.13.186.13.187.148.186.131.185.148.186.13.187.15.167.148.186.149.186.148.185.15.169.148.186.149.167.149.186.148.167.15.187.166.167.149.167.167.15.111c.334.317.557.763.594 1.227a1.862 1.862 0 01-.558 1.525c-.707.65-1.805.762-2.604.038l-.13-.13-.15-.131-.166-.149-.15-.13-.167-.15-.15-.129-.166-.13-.15-.149-.166-.13-.168-.13-.15-.13-.166-.13-.168-.13-.167-.13-.168-.13-.166-.13-.168-.112-.167-.13-.168-.13-.168-.112-.167-.13-.167-.111-.168-.112-.167-.112-.168-.13-.168-.111-.167-.112-.186-.111-.167-.112-.168-.112-.186-.093-.167-.111-.167-.112-.186-.093-.112-.074a2.012 2.012 0 01-.856-1.06c-.149-.502-.093-.966.13-1.43v-.001zm12.241 7.361l.094.112.149.187.13.167.148.186.15.167.13.186.13.185.148.186.13.186.15.186.13.167.13.205.13.186.13.185.131.187.13.186.13.204.13.186.131.186.112.205.13.185.13.205.111.204.13.186.112.205.13.205.113.204.112.204.111.205.13.204.112.205.093.204.11.205.112.204.094.167c.204.41.26.893.148 1.339a1.884 1.884 0 01-1.06 1.246c-.874.371-1.953.111-2.456-.855l-.073-.168-.094-.185-.111-.168-.094-.186-.092-.186-.112-.186-.093-.186-.112-.186-.111-.168-.094-.185-.11-.185-.113-.168-.112-.186-.111-.167-.111-.186-.112-.167-.112-.186-.112-.168-.111-.167-.13-.167-.112-.186-.111-.167-.131-.168-.111-.168-.13-.167-.112-.148-.13-.167-.112-.168-.13-.167-.13-.168-.113-.148-.13-.167-.13-.15-.13-.166-.093-.093a1.931 1.931 0 01-.428-1.302c.02-.52.241-.948.595-1.283.8-.687 2.01-.724 2.753.167zm6.234 10.913l.055.148.074.224.075.204.074.224.057.222.073.205.075.223.055.223.075.205.056.223.075.223.055.223.056.223.074.224.056.222.056.223.056.223.055.223.038.223.056.224.056.241.036.223.056.224.038.223.056.241.037.223.037.223.037.242.038.223.036.223.038.242.037.224.037.24.038.224.018.185c.056.465-.056.93-.317 1.32a1.832 1.832 0 01-1.413.8c-.967.055-1.88-.557-2.028-1.636l-.018-.186-.02-.204-.036-.205-.038-.204-.018-.205-.037-.204-.038-.205-.037-.204-.037-.223-.037-.205-.037-.204-.038-.205-.037-.204-.056-.205-.037-.204-.055-.186-.038-.205-.056-.204-.037-.205-.055-.204-.056-.205-.057-.185-.055-.205-.056-.204-.056-.187-.056-.204-.055-.186-.056-.204-.075-.186-.055-.205-.056-.185-.075-.206-.056-.185-.074-.185-.037-.131a1.894 1.894 0 01.018-1.358 1.93 1.93 0 011.005-1.022c.986-.371 2.14.019 2.53 1.097zm11.478 20.56a11.77 11.77 0 01-3.46-8.346c0-3.235 1.32-6.19 3.46-8.329 2.158-2.137 5.097-3.476 8.353-3.476h1.06a55.941 55.941 0 00-7.757-18.701l-.744.743a11.768 11.768 0 01-8.354 3.458c-3.032 0-6.065-1.153-8.353-3.458-2.307-2.287-3.46-5.317-3.46-8.347a11.75 11.75 0 013.46-8.347l.744-.743a56.047 56.047 0 00-18.715-7.753v1.06c0 3.253-1.34 6.19-3.48 8.347a11.788 11.788 0 01-8.353 3.458 11.78 11.78 0 01-8.335-3.458c-2.14-2.156-3.478-5.094-3.478-8.347v-1.06A56.05 56.05 0 0025.96 9.791l.745.743a11.75 11.75 0 013.46 8.347c0 3.03-1.154 6.06-3.46 8.347-2.29 2.305-5.321 3.458-8.354 3.458A11.764 11.764 0 0110 27.228l-.745-.743a55.968 55.968 0 00-7.759 18.701h1.061c3.256 0 6.195 1.34 8.354 3.476a11.77 11.77 0 010 16.675c-2.159 2.14-5.099 3.478-8.354 3.478h-1.06a55.961 55.961 0 007.758 18.7l.744-.742a11.764 11.764 0 018.353-3.458c3.033 0 6.065 1.153 8.354 3.458 2.306 2.287 3.46 5.317 3.46 8.347a11.75 11.75 0 01-3.46 8.347l-.745.743a56.02 56.02 0 0018.717 7.752v-1.059c0-3.254 1.339-6.191 3.478-8.347a11.78 11.78 0 018.335-3.458c3.256 0 6.214 1.32 8.353 3.458 2.14 2.156 3.48 5.093 3.48 8.347v1.059a56.015 56.015 0 0018.715-7.752l-.744-.743a11.747 11.747 0 01-3.46-8.347c0-3.03 1.153-6.06 3.46-8.347 2.288-2.305 5.32-3.458 8.353-3.458 3.033 0 6.047 1.153 8.354 3.458l.744.743a55.933 55.933 0 007.757-18.701h-1.06c-3.256 0-6.195-1.339-8.353-3.477z" fill="url(#paint1_linear_262_174)"/><defs><linearGradient id="paint0_linear_262_174" x1=".25" y1=".792" x2="119.315" y2="8.239" gradientUnits="userSpaceOnUse"><stop stop-color="#FFD600"/><stop offset="1" stop-color="#FFBB36"/></linearGradient><linearGradient id="paint1_linear_262_174" x1="1.496" y1="2.038" x2="117.923" y2="9.32" gradientUnits="userSpaceOnUse"><stop stop-color="#FFD600"/><stop offset="1" stop-color="#FFBB36"/></linearGradient></defs></svg>