<svg width="90" height="90" fill="none" xmlns="http://www.w3.org/2000/svg"><path fill-rule="evenodd" clip-rule="evenodd" d="M44.993 3.023c23.203 0 42.015 18.798 42.015 41.97 0 23.186-18.812 41.984-42.015 41.984-23.188 0-42.001-18.798-42.001-41.984 0-23.172 18.813-41.97 42.001-41.97zm0-2.99C69.848.034 90 20.172 90 44.994c0 24.836-20.152 44.973-45.007 44.973C20.153 89.966 0 69.83 0 44.993 0 20.17 20.152.033 44.993.033z" fill="url(#paint0_linear_341_260)"/><path fill-rule="evenodd" clip-rule="evenodd" d="M73.986 45.26v.372l-.015.179v.178l-.015.194v.178l-.015.178v.18l-.015.192-.015.179-.014.178-.015.194-.016.178-.014.178-.03.194-.015.178-.015.179-.03.193-.014.179-.03.178-.03.193-.03.179-.03.179-.029.192-.03.18-.03.192-.03.179-.03.178-.044.194-.03.178-.045.178-.029.179-.045.193-.03.134c-.089.372-.297.7-.61.907a1.479 1.479 0 01-1.28.224c-.73-.224-1.25-.937-1.057-1.785l.03-.134.03-.163.045-.164.03-.164.03-.163.029-.164.03-.179.03-.163.03-.164.03-.163.03-.164.014-.163.03-.164.03-.163.015-.165.029-.163.015-.178.015-.164.014-.163.016-.164.029-.163.015-.164v-.164l.015-.164.015-.163.015-.164v-.163l.015-.164v-.163l.015-.164v-.163l.014-.164v-.431c0-.372.135-.744.402-1.012.268-.312.625-.46 1.027-.49.834-.015 1.608.594 1.593 1.516v.12zM45 38.87c1.762-3.523 3.524-5.285 7.047-5.285a7.05 7.05 0 017.048 7.047c0 7.048-7.047 14.096-14.095 21.143-7.048-7.047-14.096-14.095-14.096-21.143a7.05 7.05 0 017.048-7.047c3.524 0 5.286 1.762 7.048 5.285zm27.185 16.177l-.044.104-.06.178-.06.164-.074.178-.06.163-.075.165-.073.178-.06.163-.074.164-.075.178-.074.163-.075.165-.089.163-.075.164-.073.178-.075.164-.09.163-.089.164-.075.164-.089.163-.09.164-.088.163-.075.164-.089.164-.104.163-.09.164-.088.163-.09.164-.105.164-.089.163-.104.148-.09.164-.103.164-.104.149-.075.133a1.586 1.586 0 01-.878.64c-.476.134-.908.03-1.28-.237-.61-.462-.848-1.31-.387-2.039l.075-.119.089-.148.089-.134.09-.149.09-.133.088-.149.075-.15.089-.133.089-.149.075-.148.09-.15.073-.148.075-.148.089-.15.075-.133.074-.15.075-.147.073-.149.075-.149.075-.149.074-.148.06-.149.073-.149.06-.148.075-.164.06-.149.074-.148.059-.15.06-.148.06-.149.058-.148.06-.164.06-.149.059-.149.045-.104a1.6 1.6 0 01.714-.818c.372-.193.76-.207 1.146-.104.79.282 1.295 1.1.968 1.979zm-5.075 8.685l-.075.089-.119.134-.119.148-.12.134-.118.134-.134.134-.12.134-.118.134-.134.134-.119.134-.134.133-.12.12-.133.133-.134.134-.134.134-.133.119-.135.134-.134.12-.133.133-.135.118-.133.135-.134.119-.15.133-.134.12-.148.118-.134.12-.15.118-.133.119-.149.119-.149.119-.148.12-.134.118-.15.12-.148.103-.12.089a1.47 1.47 0 01-1.041.313 1.535 1.535 0 01-1.13-.654c-.418-.64-.358-1.532.326-2.053l.12-.09.133-.104.134-.104.134-.104.134-.104.12-.104.133-.104.134-.105.119-.118.134-.104.12-.105.133-.118.12-.105.133-.118.12-.105.119-.118.118-.105.12-.119.119-.119.118-.118.12-.105.118-.118.12-.12.119-.119.104-.118.12-.12.103-.118.12-.12.103-.118.12-.12.104-.118.104-.134.104-.12.12-.118.058-.09c.254-.282.596-.476.968-.52a1.54 1.54 0 011.102.298c.64.52.847 1.472.238 2.186zm-7.74 6.425l-.104.06-.164.088-.164.09-.148.089-.164.089-.164.075-.164.089-.163.089-.164.074-.164.09-.163.074-.164.074-.163.09-.164.074-.179.074-.164.074-.163.075-.179.074-.164.075-.178.074-.164.06-.179.074-.178.074-.164.06-.179.074-.179.06-.163.059-.178.075-.18.059-.178.06-.178.06-.18.058-.178.06-.178.059-.135.044a1.524 1.524 0 01-1.919-1.07c-.163-.744.193-1.562 1.011-1.814l.15-.045.149-.06.164-.044.148-.06.164-.045.164-.059.149-.059.163-.06.164-.044.149-.06.163-.059.15-.06.163-.074.15-.06.148-.06.163-.059.15-.074.148-.06.149-.074.164-.06.148-.074.15-.074.148-.06.149-.074.149-.074.134-.075.149-.074.149-.075.148-.073.15-.075.133-.075.149-.073.134-.09.15-.075.088-.044a1.46 1.46 0 011.087-.164c.401.09.714.313.937.64.417.714.283 1.68-.52 2.142zm-9.48 3.39l-.12.03-.178.03-.178.015-.18.03-.178.03-.179.029-.193.015-.178.03-.18.015-.178.03-.179.014-.193.015-.178.015-.18.015-.193.014-.178.016-.194.014-.178.015h-.179l-.193.015h-.18l-.192.015h-.18l-.192.015h-1.117l-.193-.015h-.18l-.193-.015h-.178l-.149-.015a1.49 1.49 0 01-.997-.431c-.357-.342-.477-.774-.446-1.22.103-.758.714-1.398 1.577-1.368l.149.015h.164l.164.015h.343l.162.015h.67l.164-.015h.342l.164-.015h.163l.164-.015h.164l.179-.014.163-.016h.164l.163-.015.165-.015.163-.014.164-.015.164-.015.163-.03.164-.015.164-.014.163-.03.164-.015.15-.03.163-.014.164-.03.163-.03.104-.015c.372-.06.76.015 1.072.208.342.223.55.55.655.937.164.818-.313 1.68-1.22 1.829zm-8.29-1.353c-.135.818-.864 1.472-1.772 1.308l-.12-.029-.178-.03-.177-.03-.18-.044-.178-.03-.179-.044-.178-.03-.18-.045-.177-.045-.18-.044-.178-.045-.178-.045-.18-.044-.178-.045-.178-.06-.179-.044-.178-.059-.179-.044-.178-.06-.164-.045-.18-.06-.178-.059-.178-.059-.179-.06-.178-.06-.179-.058-.178-.075-.164-.06-.179-.06-.179-.073-.178-.06-.163-.074-.179-.074-.164-.06-.149-.06a1.565 1.565 0 01-.789-.758 1.513 1.513 0 01.015-1.294c.358-.684 1.146-1.07 1.935-.744l.15.06.148.06.149.059.164.074.148.06.164.06.149.059.164.044.163.06.149.06.164.058.149.045.163.06.164.045.149.06.163.044.164.044.164.045.149.06.163.044.164.045.149.03.164.044.163.045.15.044.163.03.164.045.163.03.15.044.163.03.164.03.164.029.149.045.163.03.104.014c.372.06.7.268.938.565.253.328.342.7.298 1.101zm-9.109-2.796c-.402.729-1.31 1.086-2.114.61l-.104-.06-.148-.089-.164-.09-.15-.103-.163-.09-.149-.103-.148-.09-.164-.104-.15-.104-.148-.104-.15-.09-.162-.103-.15-.12-.148-.103-.149-.105-.149-.104-.149-.104-.149-.119-.148-.104-.15-.12-.148-.103-.149-.12-.134-.118-.148-.12-.15-.118-.148-.12-.134-.118-.149-.119-.134-.119-.149-.119-.134-.119-.149-.133-.134-.12-.133-.134-.12-.089a1.54 1.54 0 01-.476-.981c-.045-.49.134-.907.446-1.22.566-.52 1.444-.61 2.084-.03l.104.104.12.105.133.118.12.105.133.118.12.105.133.104.12.118.133.105.135.104.118.104.135.104.133.104.134.104.135.105.133.104.134.09.134.103.134.104.134.09.134.088.134.105.134.089.134.089.134.105.134.089.134.089.149.09.134.088.133.09.15.074.134.089.133.09.15.074.088.06c.313.192.566.49.685.847.12.402.075.773-.104 1.145zm-9.794-5.89l-.074-.089-.119-.148-.104-.134-.12-.149-.118-.149-.104-.133-.12-.15-.104-.148-.104-.149-.119-.148-.104-.135-.104-.163-.104-.148-.105-.15-.104-.148-.104-.148-.105-.164-.104-.15-.103-.147-.09-.164-.104-.149-.105-.164-.089-.164-.104-.148-.09-.163-.103-.164-.09-.164-.089-.163-.09-.164-.103-.163-.09-.164-.089-.164-.074-.163-.09-.163-.074-.135a1.568 1.568 0 01-.12-1.07c.135-.476.432-.803.849-.997.7-.298 1.563-.089 1.965.684l.06.134.074.134.09.149.073.148.075.149.09.15.073.147.09.149.089.134.075.149.09.149.088.133.09.15.089.133.089.149.09.133.09.15.088.133.09.134.103.134.09.133.09.15.104.133.089.134.089.134.104.119.105.134.089.133.104.134.104.12.09.133.103.134.105.12.104.133.074.074c.239.298.358.654.343 1.042a1.483 1.483 0 01-.477 1.026c-.64.55-1.608.58-2.203-.134zm-4.985-8.73l-.045-.119-.06-.178-.06-.163-.059-.179-.044-.178-.06-.164-.06-.178-.044-.18-.06-.162-.044-.179-.06-.178-.044-.179-.045-.178-.06-.179-.045-.178-.044-.179-.045-.178-.044-.179-.03-.178-.044-.179-.045-.193-.03-.178-.045-.179-.03-.178-.045-.194-.029-.178-.03-.179-.03-.193-.044-.179-.03-.192-.014-.18-.03-.178-.03-.193-.03-.178-.015-.15a1.56 1.56 0 01.253-1.055c.283-.402.685-.61 1.131-.64.774-.044 1.503.447 1.622 1.31l.016.147.014.165.03.163.03.164.015.163.03.164.03.163.03.164.029.163.03.18.03.163.03.163.029.164.044.163.03.164.045.149.03.163.044.164.03.163.045.164.045.15.044.163.045.163.044.164.045.148.045.164.045.149.044.164.045.148.06.163.044.15.06.162.044.15.06.148.03.105c.133.356.119.743-.016 1.085a1.544 1.544 0 01-.804.818c-.788.298-1.71-.015-2.023-.877zM16.015 44.74v-.372l.015-.178v-.372l.015-.178.015-.18v-.178l.014-.193.015-.178.015-.179.015-.193.015-.179.015-.178.03-.193.014-.179.016-.178.029-.193.015-.179.03-.179.03-.193.03-.178.014-.194.03-.178.045-.178.03-.194.03-.179.028-.178.046-.193.03-.179.044-.178.03-.179.045-.193.029-.149c.09-.356.298-.683.61-.892a1.478 1.478 0 011.28-.223c.73.223 1.25.937 1.057 1.785l-.03.134-.03.163-.044.164-.03.163-.03.164-.03.163-.03.164-.029.178-.03.164-.03.164-.029.163-.015.164-.03.163-.03.164-.014.163-.03.164-.015.179-.015.163-.015.164-.03.163-.015.164-.015.163v.165l-.014.162-.015.165-.015.163v.164l-.015.163v.164l-.015.163v.164l-.015.163v.432c0 .372-.134.743-.402 1.011-.267.313-.625.462-1.027.491-.833.015-1.607-.595-1.592-1.517v-.119zm1.801-9.786l.03-.104.074-.178.06-.164.074-.179.06-.163.074-.164.075-.178.058-.164.075-.163.074-.179.075-.164.074-.163.075-.164.089-.178.075-.164.074-.163.089-.164.075-.163.089-.164.09-.164.089-.163.074-.164.09-.163.09-.164.103-.164.09-.163.089-.164.089-.163.104-.164.09-.164.103-.149.09-.163.104-.164.104-.148.074-.134c.209-.312.521-.535.879-.64.476-.133.908-.03 1.28.238.61.461.848 1.31.386 2.038l-.074.119-.09.149-.088.134-.09.148-.089.134-.09.149-.074.148-.09.134-.089.15-.074.148-.089.148-.075.149-.074.15-.09.133-.074.148-.074.149-.074.149-.075.149-.075.148-.074.15-.074.148-.06.149-.074.148-.06.149-.074.163-.06.15-.074.148-.06.149-.059.149-.06.148-.059.149-.075.163-.044.149-.06.149-.045.104a1.59 1.59 0 01-.714.818c-.372.193-.76.208-1.146.104-.789-.283-1.295-1.1-.967-1.978zm5.075-8.686l.074-.089.12-.133.118-.149.12-.134.119-.134.134-.134.119-.134.12-.134.133-.133.119-.134.134-.134.119-.133.134-.12.134-.134.134-.134.134-.119.134-.133.134-.12.134-.133.134-.12.133-.133.134-.119.15-.133.133-.12.149-.118.134-.12.149-.119.134-.119.148-.119.15-.119.148-.118.134-.12.149-.118.148-.105.12-.09a1.47 1.47 0 011.042-.31c.49.043.878.296 1.131.653.402.64.357 1.532-.328 2.052l-.118.09-.135.104-.134.104-.133.104-.135.104-.118.105-.135.104-.133.103-.12.12-.134.104-.119.103-.133.12-.12.104-.134.119-.119.104-.119.119-.119.104-.118.119-.12.119-.12.119-.118.104-.12.12-.118.118-.12.12-.103.118-.12.119-.104.119-.119.119-.104.119-.12.119-.103.12-.104.133-.12.119-.103.119-.06.09a1.56 1.56 0 01-.968.52 1.54 1.54 0 01-1.101-.298c-.64-.52-.849-1.472-.238-2.186zm7.74-6.424l.104-.06.163-.088.164-.09.149-.089.164-.09.164-.074.163-.089.164-.09.163-.074.164-.09.164-.073.164-.075.164-.089.163-.074.178-.075.165-.074.163-.074.179-.074.163-.075.179-.074.164-.06.178-.074.164-.075.178-.06.18-.074.178-.06.164-.058.178-.075.179-.06.178-.059.179-.06.178-.059.179-.06.179-.059.134-.044c.357-.104.743-.09 1.086.074.447.208.715.565.834.997.164.743-.194 1.56-1.012 1.814l-.15.045-.148.06-.164.044-.163.059-.15.045-.163.06-.149.059-.163.044-.164.06-.15.06-.163.059-.148.06-.164.074-.15.06-.148.059-.164.06-.148.073-.15.06-.148.074-.164.06-.15.074-.148.06-.148.074-.15.075-.148.073-.134.075-.149.075-.149.073-.149.075-.148.075-.135.074-.149.074-.133.09-.149.074-.09.044a1.462 1.462 0 01-1.086.164 1.502 1.502 0 01-.938-.64c-.417-.713-.282-1.68.522-2.14zm9.48-3.391l.12-.03.178-.029.179-.015.178-.03.179-.03.178-.03.194-.015.179-.029.178-.015.178-.03.179-.015.194-.015.179-.014.178-.015.193-.015.18-.015.193-.015.178-.015h.179l.193-.014h.178l.194-.015h.179l.193-.015h1.117l.193.015h.178l.194.015h.179l.149.014c.371.015.729.164.997.431.357.343.476.773.446 1.22-.104.759-.714 1.398-1.578 1.368l-.149-.015h-.163l-.164-.014H45.5l-.164-.016h-.67l-.163.016h-.343l-.164.014h-.164l-.164.015h-.163l-.18.015-.163.015h-.163l-.164.015-.164.015-.164.015-.164.014-.163.015-.164.03-.164.015-.163.015-.164.03-.164.014-.149.03-.163.015-.164.03-.164.03-.104.014a1.577 1.577 0 01-1.071-.208 1.499 1.499 0 01-.655-.937c-.164-.818.297-1.68 1.22-1.83zm8.29 1.353c.134-.818.863-1.472 1.77-1.309l.12.03.18.03.178.03.178.044.179.03.178.045.18.03.178.044.178.044.179.045.178.045.179.044.178.045.18.045.178.06.178.044.179.06.179.044.178.06.164.044.178.06.179.06.179.059.178.06.179.059.178.06.18.074.162.059.18.06.178.074.164.06.178.074.18.074.163.06.149.059c.342.148.624.416.788.759.194.446.179.892-.015 1.293-.357.684-1.146 1.071-1.934.744l-.15-.06-.148-.059-.149-.06-.163-.074-.15-.06-.163-.059-.15-.06-.163-.059-.163-.044-.15-.06-.163-.06-.164-.044-.148-.06-.165-.044-.148-.06-.164-.044-.163-.044-.164-.06-.149-.045-.164-.045-.164-.044-.148-.045-.164-.03-.164-.044-.149-.044-.163-.03-.164-.045-.164-.03-.148-.044-.165-.03-.163-.03-.164-.045-.148-.029-.164-.03-.104-.014a1.586 1.586 0 01-.938-.566 1.468 1.468 0 01-.297-1.1zm9.109 2.796c.402-.729 1.31-1.085 2.113-.624l.105.074.148.09.163.088.15.105.163.09.15.103.148.09.164.104.149.104.149.104.148.089.164.104.149.12.149.103.149.104.149.104.148.105.15.118.148.105.149.118.148.105.15.118.134.12.148.118.149.12.148.118.135.12.149.118.134.12.148.118.134.12.15.133.133.119.134.134.12.089c.267.253.446.61.475.982a1.49 1.49 0 01-.446 1.22c-.566.52-1.444.609-2.084.03l-.104-.105-.12-.104-.133-.12-.119-.103-.134-.12-.12-.103-.133-.104-.12-.12-.133-.103-.134-.104-.12-.105-.133-.104-.134-.104-.134-.104-.134-.104-.133-.104-.135-.09-.133-.104-.134-.104-.135-.089-.133-.104-.134-.09-.134-.088-.134-.09-.134-.104-.134-.089-.134-.09-.149-.088-.134-.09-.134-.09-.149-.074-.134-.089-.133-.089-.149-.074-.09-.06a1.61 1.61 0 01-.684-.847 1.53 1.53 0 01.104-1.146zm9.793 5.89l.075.089.119.15.104.133.119.148.119.134.104.149.105.149.118.148.104.15.12.148.104.134.104.163.104.15.104.147.105.15.104.148.104.163.104.15.105.148.089.164.104.148.104.164.089.163.104.15.09.163.104.164.09.163.089.164.089.163.104.164.09.164.074.163.089.164.089.163.075.134c.163.328.208.714.119 1.07a1.508 1.508 0 01-.849.997c-.699.298-1.562.09-1.964-.683l-.06-.135-.074-.148-.09-.134-.074-.149-.074-.148-.09-.15-.074-.148-.09-.149-.088-.134-.076-.148-.088-.149-.09-.134-.09-.148-.088-.134-.09-.15-.089-.133-.089-.149-.09-.134-.089-.133-.104-.134-.089-.149-.09-.134-.104-.134-.089-.134-.104-.134-.09-.118-.103-.134-.09-.134-.104-.134-.104-.134-.09-.119-.104-.134-.103-.118-.105-.134-.074-.075a1.546 1.546 0 01-.343-1.04c.015-.417.193-.76.476-1.027.64-.55 1.608-.58 2.203.134zm4.986 8.73l.045.118.06.18.059.163.06.178.044.178.06.164.059.179.044.178.06.164.045.179.06.178.044.178.045.179.059.179.045.178.044.178.045.178.044.179.03.178.045.179.045.193.03.179.044.178.03.179.045.193.03.178.03.179.029.193.03.179.03.178.03.194.03.178.029.193.03.18.014.147a1.56 1.56 0 01-.253 1.056c-.282.402-.684.61-1.13.64-.774.044-1.504-.446-1.623-1.309l-.014-.149-.016-.163-.03-.164-.03-.163-.014-.164-.03-.163-.03-.164-.03-.164-.03-.178-.03-.164-.029-.163-.03-.164-.03-.163-.044-.164-.03-.163-.044-.15-.03-.163-.045-.164-.03-.164-.044-.163-.044-.164-.046-.148-.044-.164-.045-.163-.044-.15-.045-.163-.044-.148-.045-.164-.06-.148-.044-.164-.045-.149-.06-.164-.044-.148-.06-.149-.03-.104a1.515 1.515 0 01.015-1.086c.164-.386.446-.654.803-.818.79-.297 1.712.015 2.025.878zm9.183 16.448a9.416 9.416 0 010-13.34c1.727-1.71 4.078-2.781 6.683-2.781h.848a44.759 44.759 0 00-6.206-14.961l-.596.595a9.414 9.414 0 01-6.682 2.766 9.386 9.386 0 01-6.683-2.767 9.373 9.373 0 01-2.768-6.677 9.4 9.4 0 012.768-6.678l.596-.594A44.836 44.836 0 0054.459 1.03v.848c0 2.602-1.072 4.952-2.784 6.677a9.43 9.43 0 01-6.682 2.766 9.423 9.423 0 01-6.668-2.766c-1.712-1.725-2.783-4.075-2.783-6.677V1.03A44.838 44.838 0 0020.57 7.233l.596.594a9.4 9.4 0 012.767 6.678 9.374 9.374 0 01-2.767 6.678 9.39 9.39 0 01-6.683 2.766A9.41 9.41 0 017.8 21.182l-.596-.594A44.774 44.774 0 00.997 35.549h.849c2.604 0 4.956 1.071 6.683 2.78a9.416 9.416 0 010 13.34c-1.727 1.712-4.079 2.783-6.683 2.783H.997a44.769 44.769 0 006.207 14.96l.596-.594a9.41 9.41 0 016.682-2.766c2.426 0 4.852.922 6.683 2.766a9.374 9.374 0 012.767 6.678 9.4 9.4 0 01-2.767 6.678l-.596.594a44.836 44.836 0 0014.973 6.202v-.848c0-2.603 1.071-4.952 2.783-6.677a9.424 9.424 0 016.668-2.767 9.43 9.43 0 016.682 2.767c1.712 1.725 2.784 4.075 2.784 6.677v.848a44.833 44.833 0 0014.972-6.202l-.595-.594a9.4 9.4 0 01-2.768-6.678c0-2.424.923-4.848 2.768-6.678a9.386 9.386 0 016.683-2.766 9.41 9.41 0 016.682 2.766l.596.595a44.753 44.753 0 006.206-14.961h-.848c-2.605 0-4.956-1.071-6.683-2.782z" fill="url(#paint1_linear_341_260)"/><defs><linearGradient id="paint0_linear_341_260" x1="0" y1=".034" x2="95.252" y2="5.992" gradientUnits="userSpaceOnUse"><stop stop-color="#FFD600"/><stop offset="1" stop-color="#FFBB36"/></linearGradient><linearGradient id="paint1_linear_341_260" x1=".997" y1="1.031" x2="94.139" y2="6.856" gradientUnits="userSpaceOnUse"><stop stop-color="#FFD600"/><stop offset="1" stop-color="#FFBB36"/></linearGradient></defs></svg>