<svg width="80" height="80" fill="none" xmlns="http://www.w3.org/2000/svg"><path fill-rule="evenodd" clip-rule="evenodd" d="M24.063 10.204a9.77 9.77 0 012.87 6.93 9.77 9.77 0 01-2.87 6.929 9.77 9.77 0 01-6.93 2.87 9.77 9.77 0 01-6.93-2.87 9.77 9.77 0 01-2.87-6.93 9.77 9.77 0 012.87-6.93 9.77 9.77 0 016.93-2.87 9.77 9.77 0 016.93 2.87zM.8 4.985v70.03c0 1.152.47 2.199 1.228 2.957A4.173 4.173 0 004.985 79.2h70.03c1.152 0 2.2-.47 2.957-1.228a4.173 4.173 0 001.228-2.957V4.985c0-1.152-.47-2.199-1.228-2.957A4.173 4.173 0 0075.015.8H4.985c-1.152 0-2.199.47-2.957 1.228A4.174 4.174 0 00.8 4.985zm16.333 48.082a9.77 9.77 0 016.93 2.87 9.77 9.77 0 012.87 6.93 9.77 9.77 0 01-2.87 6.93 9.77 9.77 0 01-6.93 2.87 9.77 9.77 0 01-6.93-2.87 9.77 9.77 0 01-2.87-6.93 9.77 9.77 0 012.87-6.93 9.77 9.77 0 016.93-2.87zM40 30.2a9.77 9.77 0 016.93 2.87A9.769 9.769 0 0149.8 40a9.769 9.769 0 01-2.87 6.93A9.769 9.769 0 0140 49.8a9.769 9.769 0 01-6.93-2.87A9.769 9.769 0 0130.2 40a9.769 9.769 0 012.87-6.93A9.77 9.77 0 0140 30.2zm15.937-19.996a9.77 9.77 0 016.93-2.87 9.77 9.77 0 016.93 2.87 9.77 9.77 0 012.87 6.93 9.77 9.77 0 01-2.87 6.929 9.77 9.77 0 01-6.93 2.87 9.77 9.77 0 01-6.93-2.87 9.77 9.77 0 01-2.87-6.93 9.77 9.77 0 012.87-6.93zm6.93 42.862a9.77 9.77 0 016.93 2.871 9.77 9.77 0 012.87 6.93 9.77 9.77 0 01-2.87 6.93 9.77 9.77 0 01-6.93 2.87 9.77 9.77 0 01-6.93-2.87 9.77 9.77 0 01-2.87-6.93 9.77 9.77 0 012.87-6.93 9.77 9.77 0 016.93-2.87z" fill="url(#paint0_linear_341_18)"/><defs><linearGradient id="paint0_linear_341_18" x1=".8" y1=".8" x2="83.776" y2="5.986" gradientUnits="userSpaceOnUse"><stop stop-color="#FFD600"/><stop offset="1" stop-color="#FFBB36"/></linearGradient></defs></svg>