<svg width="20" height="18" fill="none" xmlns="http://www.w3.org/2000/svg"><path d="M18.847.6H1.157A1.157 1.157 0 000 1.757v10.357a1.157 1.157 0 001.157 1.157h2.777v3.973a.32.32 0 00.193.293c.036.019.076.03.116.035a.301.301 0 00.224-.092l4.193-4.216h10.187a1.157 1.157 0 001.157-1.158V1.757A1.157 1.157 0 0018.847.6zm-7.87 8.748H4.456a.679.679 0 010-1.354h6.523a.679.679 0 010 1.354zm4.768-3.429H4.455a.675.675 0 010-1.35h11.29a.675.675 0 010 1.35z" fill="url(#paint0_linear_365_394)"/><defs><linearGradient id="paint0_linear_365_394" x1="0" y1=".6" x2="21.139" y2="2.157" gradientUnits="userSpaceOnUse"><stop stop-color="#FFD600"/><stop offset="1" stop-color="#FFBB36"/></linearGradient></defs></svg>