<svg width="20" height="20" fill="none" xmlns="http://www.w3.org/2000/svg"><path d="M19.547 10.377L10.146.104a.311.311 0 00-.465 0l-9.4 10.273a.32.32 0 00.061.475.31.31 0 00.173.051h2.052v8.782a.315.315 0 00.323.3h5.058a.315.315 0 00.315-.316v-4.535h3.301v4.55a.315.315 0 00.315.316h5.066a.315.315 0 00.315-.315v-8.793h2.052a.315.315 0 00.235-.515z" fill="url(#paint0_linear_365_370)"/><defs><linearGradient id="paint0_linear_365_370" x1=".2" y1="-.001" x2="20.756" y2="1.247" gradientUnits="userSpaceOnUse"><stop stop-color="#FFD600"/><stop offset="1" stop-color="#FFBB36"/></linearGradient></defs></svg>