<svg width="18" height="20" fill="none" xmlns="http://www.w3.org/2000/svg"><path d="M15.895 7.167l-2.087-.434a.344.344 0 000-.061V4.848a4.846 4.846 0 00-8.32-3.516 4.848 4.848 0 00-1.371 3.516v1.904l-2.08.415A1.493 1.493 0 00.8 8.64v9.866A1.497 1.497 0 002.293 20H15.65a1.497 1.497 0 001.493-1.493V8.641a1.489 1.489 0 00-1.249-1.474zM10.32 13.88v1.836a.499.499 0 01-.495.499h-1.69a.495.495 0 01-.496-.495v-1.832a2.253 2.253 0 01-1.001-1.76 2.346 2.346 0 01.61-1.747 2.311 2.311 0 012.57-.6 2.337 2.337 0 011.48 2.176 2.4 2.4 0 01-.978 1.923zm1.714-7.517l-.11-.023a17.535 17.535 0 00-5.854-.003l-.16.034V4.848a3.07 3.07 0 116.135 0l-.011 1.515z" fill="url(#paint0_linear_365_386)"/><defs><linearGradient id="paint0_linear_365_386" x1=".8" y1="-.136" x2="18.121" y2=".743" gradientUnits="userSpaceOnUse"><stop stop-color="#FFD600"/><stop offset="1" stop-color="#FFBB36"/></linearGradient></defs></svg>