<svg width="20" height="20" fill="none" xmlns="http://www.w3.org/2000/svg"><path d="M17.07 2.93a9.996 9.996 0 00-14.14 0 9.997 9.997 0 003.243 16.308A9.998 9.998 0 0020 10a9.998 9.998 0 00-2.93-7.07zM10 5.014a.82.82 0 11.007 1.64.82.82 0 01-.007-1.64zm1.2 9.42c-.391.32-.871.513-1.376.552-.214 0-.424-.057-.608-.165a1.382 1.382 0 01-.602-1.35c.14-1.15.358-2.586.695-4.38a.627.627 0 01-.43-1.172c.226-.115.906-.466 1.433-.086a1.003 1.003 0 01.318 1.075c-.358 1.934-.609 3.52-.755 4.71a.247.247 0 000 .1 1.61 1.61 0 00.598-.308.627.627 0 11.716 1.02l.01.004z" fill="url(#paint0_linear_365_378)"/><defs><linearGradient id="paint0_linear_365_378" x1="0" y1="0" x2="21.167" y2="1.323" gradientUnits="userSpaceOnUse"><stop stop-color="#FFD600"/><stop offset="1" stop-color="#FFBB36"/></linearGradient></defs></svg>