<svg width="20" height="27" fill="none" xmlns="http://www.w3.org/2000/svg"><path fill-rule="evenodd" clip-rule="evenodd" d="M2.8 11.797a.4.4 0 00-.4.4v11.2c0 .22.18.4.4.4h14.4a.4.4 0 00.4-.4v-11.2a.4.4 0 00-.4-.4H2.8zm-2.8.4a2.8 2.8 0 012.8-2.8h14.4a2.8 2.8 0 012.8 2.8v11.2a2.8 2.8 0 01-2.8 2.8H2.8a2.8 2.8 0 01-2.8-2.8v-11.2z" fill="url(#paint0_linear_32_993)"/><path fill-rule="evenodd" clip-rule="evenodd" d="M10 2.6a3.933 3.933 0 00-3.934 3.933v4.064a1.2 1.2 0 01-2.4 0V6.533a6.333 6.333 0 0112.667 0v4.064a1.2 1.2 0 01-2.4 0V6.533A3.933 3.933 0 0010 2.6z" fill="url(#paint1_linear_32_993)"/><defs><linearGradient id="paint0_linear_32_993" x1="0" y1="9.397" x2="21.133" y2="10.969" gradientUnits="userSpaceOnUse"><stop stop-color="#FFD600"/><stop offset="1" stop-color="#FFBB36"/></linearGradient><linearGradient id="paint1_linear_32_993" x1="3.667" y1=".2" x2="17.062" y2="1.115" gradientUnits="userSpaceOnUse"><stop stop-color="#FFD600"/><stop offset="1" stop-color="#FFBB36"/></linearGradient></defs></svg>