<svg width="28" height="21" fill="none" xmlns="http://www.w3.org/2000/svg"><path fill-rule="evenodd" clip-rule="evenodd" d="M3.595 3.15a.4.4 0 00-.4.4l-.016 14.365a.4.4 0 00.4.4h21.046a.4.4 0 00.4-.398l.048-14.366V3.55a.4.4 0 00-.4-.4H3.595zm-2.8.396A2.8 2.8 0 013.595.75h21.078a2.8 2.8 0 012.8 2.8v.009l-.048 14.366a2.8 2.8 0 01-2.8 2.79H3.58a2.8 2.8 0 01-2.8-2.8v-.002L.795 3.546z" fill="url(#paint0_linear_32_976)"/><path fill-rule="evenodd" clip-rule="evenodd" d="M13.427 13.657a1.193 1.193 0 00.794.299 1.195 1.195 0 00.794-.301L26.74 3.618a1.2 1.2 0 00-1.56-1.824l-10.962 9.384L3.2 1.793a1.2 1.2 0 00-1.557 1.826l11.784 10.038z" fill="url(#paint1_linear_32_976)"/><defs><linearGradient id="paint0_linear_32_976" x1=".779" y1=".75" x2="28.945" y2="3.103" gradientUnits="userSpaceOnUse"><stop stop-color="#FFD600"/><stop offset="1" stop-color="#FFBB36"/></linearGradient><linearGradient id="paint1_linear_32_976" x1="27.16" y1="13.956" x2=".06" y2="10.427" gradientUnits="userSpaceOnUse"><stop stop-color="#FFD600"/><stop offset="1" stop-color="#FFBB36"/></linearGradient></defs></svg>