<svg width="23" height="26" fill="none" xmlns="http://www.w3.org/2000/svg"><path fill-rule="evenodd" clip-rule="evenodd" d="M11.132 2.4c-2.265 0-4.118 2.049-4.118 4.044 0 1.1.578 2.534 1.556 3.593a1.2 1.2 0 01-.354 1.891c-1.643.806-3.255 2.034-4.146 3.348-.746 1.101-1.043 1.854-1.172 2.54-.132.704-.106 1.404-.064 2.518l.005.124c.006.146.077.374.45.68.383.315.995.629 1.836.902 1.674.545 3.965.835 6.306.835 2.342 0 4.62-.29 6.268-.832.829-.272 1.421-.584 1.784-.892.348-.294.404-.508.404-.648 0-.387.007-.72.013-1.02.015-.698.025-1.209-.065-1.765-.112-.691-.395-1.448-1.224-2.532-.994-1.3-2.72-2.504-4.436-3.287a1.2 1.2 0 01-.392-1.897c.959-1.06 1.522-2.472 1.522-3.558 0-1.979-1.892-4.044-4.173-4.044zM4.614 6.444C4.614 3.174 7.492 0 11.132 0c3.624 0 6.573 3.157 6.573 6.444 0 1.31-.463 2.72-1.221 3.941 1.522.861 3.015 2.011 4.034 3.343 1.021 1.336 1.5 2.453 1.686 3.606.128.788.11 1.611.094 2.4-.005.26-.01.518-.01.77 0 1.05-.547 1.88-1.253 2.478-.692.586-1.606 1.018-2.586 1.341-1.97.648-4.521.953-7.018.953-2.499 0-5.058-.306-7.048-.953-.99-.322-1.913-.752-2.617-1.33C1.05 22.406.48 21.592.44 20.548l-.009-.228c-.04-1.01-.076-1.968.108-2.947.206-1.097.67-2.154 1.544-3.443.93-1.374 2.343-2.564 3.806-3.458-.79-1.24-1.276-2.688-1.276-4.028z" fill="url(#paint0_linear_32_986)"/><defs><linearGradient id="paint0_linear_32_986" x1=".4" y1="0" x2="23.611" y2="1.257" gradientUnits="userSpaceOnUse"><stop stop-color="#FFD600"/><stop offset="1" stop-color="#FFBB36"/></linearGradient></defs></svg>