<svg width="128" height="128" viewBox="0 0 128 128" fill="none" xmlns="http://www.w3.org/2000/svg">
<g clip-path="url(#clip0_32_692)">
<path d="M72 40C72 33.671 70.1232 27.4841 66.607 22.2218C63.0908 16.9594 58.0931 12.8579 52.2459 10.4359C46.3986 8.01386 39.9645 7.38016 33.7571 8.61489C27.5497 9.84961 21.8479 12.8973 17.3726 17.3726C12.8973 21.8479 9.84961 27.5497 8.61489 33.7571C7.38016 39.9645 8.01386 46.3986 10.4359 52.2459C12.8579 58.0931 16.9594 63.0908 22.2218 66.607C27.4841 70.1232 33.671 72 40 72C48.484 71.9903 56.6177 68.6158 62.6167 62.6167C68.6158 56.6177 71.9903 48.484 72 40V40ZM12 40C12 34.4621 13.6422 29.0486 16.7189 24.444C19.7955 19.8395 24.1685 16.2506 29.2849 14.1314C34.4012 12.0121 40.0311 11.4576 45.4625 12.538C50.894 13.6184 55.8831 16.2852 59.799 20.201C63.7149 24.1169 66.3816 29.106 67.462 34.5375C68.5424 39.969 67.9879 45.5988 65.8686 50.7152C63.7494 55.8315 60.1606 60.2045 55.556 63.2812C50.9514 66.3578 45.5379 68 40 68C32.5765 67.9917 25.4595 65.039 20.2103 59.7898C14.9611 54.5406 12.0084 47.4235 12 40V40Z" fill="url(#paint0_linear_32_692)"/>
<path d="M42 18C42 17.4696 41.7893 16.9609 41.4142 16.5858C41.0391 16.2107 40.5304 16 40 16C33.637 16.0073 27.5367 18.5381 23.0374 23.0374C18.5381 27.5367 16.0073 33.637 16 40C16 40.5304 16.2107 41.0391 16.5858 41.4142C16.9609 41.7893 17.4696 42 18 42C18.5304 42 19.0391 41.7893 19.4142 41.4142C19.7893 41.0391 20 40.5304 20 40C20.0059 34.6975 22.1149 29.6138 25.8644 25.8644C29.6138 22.1149 34.6975 20.0059 40 20C40.5304 20 41.0391 19.7893 41.4142 19.4142C41.7893 19.0391 42 18.5304 42 18Z" fill="url(#paint1_linear_32_692)"/>
<path d="M124.1 105.272L92.8283 74L95.4141 71.414C95.5999 71.2284 95.7473 71.008 95.8479 70.7653C95.9485 70.5227 96.0002 70.2627 96.0002 70C96.0002 69.7374 95.9485 69.4773 95.8479 69.2347C95.7473 68.9921 95.5999 68.7717 95.4141 68.586L89.4141 62.586C89.2285 62.4002 89.0081 62.2528 88.7655 62.1523C88.5228 62.0517 88.2628 62 88.0001 62C87.7375 62 87.4774 62.0517 87.2348 62.1523C86.9922 62.2528 86.7718 62.4002 86.5861 62.586L82.0001 67.1718L74.6787 59.8504C79.5181 51.417 81.1297 41.513 79.2139 31.9804C77.2981 22.4478 71.9852 13.9354 64.2634 8.02646C56.5416 2.11753 46.9365 -0.78574 37.2345 -0.143395C27.5325 0.49895 18.394 4.64319 11.5187 11.5186C4.64331 18.3939 0.499072 27.5324 -0.143273 37.2344C-0.785618 46.9364 2.11765 56.5415 8.02658 64.2633C13.9355 71.9851 22.4479 77.2979 31.9805 79.2138C41.5131 81.1296 51.4171 79.518 59.8505 74.6786L67.1719 82L62.5861 86.586C62.4003 86.7717 62.253 86.9921 62.1524 87.2347C62.0518 87.4773 62.0001 87.7374 62.0001 88C62.0001 88.2627 62.0518 88.5227 62.1524 88.7653C62.253 89.008 62.4003 89.2284 62.5861 89.414L68.5861 95.414C68.7718 95.5998 68.9922 95.7472 69.2348 95.8477C69.4775 95.9483 69.7375 96 70.0001 96C70.2628 96 70.5228 95.9483 70.7654 95.8477C71.0081 95.7472 71.2285 95.5998 71.4141 95.414L74.0001 92.8282L105.273 124.1C107.776 126.562 111.152 127.935 114.663 127.92C118.174 127.905 121.538 126.504 124.021 124.021C126.504 121.538 127.905 118.174 127.92 114.663C127.935 111.151 126.562 107.776 124.1 105.272V105.272ZM4.00015 40C4.00015 32.8799 6.11151 25.9197 10.0672 19.9995C14.023 14.0793 19.6454 9.46512 26.2235 6.74036C32.8017 4.01561 40.0401 3.30269 47.0234 4.69175C54.0067 6.08082 60.4213 9.50949 65.456 14.5442C70.4907 19.5789 73.9194 25.9935 75.3084 32.9768C76.6975 39.9601 75.9846 47.1985 73.2598 53.7766C70.5351 60.3548 65.9208 65.9772 60.0007 69.9329C54.0805 73.8887 47.1203 76 40.0001 76C30.4556 75.9894 21.305 72.1932 14.556 65.4442C7.80698 58.6952 4.01073 49.5446 4.00015 40V40ZM63.3135 72.4844C66.8301 69.9244 69.9246 66.83 72.4845 63.3134L79.1719 70L70.0001 79.1718L63.3135 72.4844ZM70.0001 91.1718L66.8283 88L88.0001 66.8282L91.1719 70L70.0001 91.1718ZM121.273 121.272C119.524 123.016 117.156 123.995 114.687 123.995C112.217 123.995 109.849 123.016 108.101 121.272L76.8283 90L90.0001 76.8282L121.273 108.1C123.017 109.848 123.996 112.217 123.996 114.686C123.996 117.156 123.017 119.524 121.273 121.272V121.272Z" fill="url(#paint2_linear_32_692)"/>
<path d="M117.03 117.03C116.407 117.65 115.565 117.998 114.686 117.998C113.808 117.998 112.965 117.65 112.343 117.03L100.657 105.344C100.279 104.98 99.7741 104.778 99.2497 104.782C98.7253 104.787 98.2237 104.997 97.8529 105.368C97.4821 105.739 97.2717 106.241 97.2672 106.765C97.2626 107.289 97.4642 107.795 97.8285 108.172L109.516 119.86C110.889 121.229 112.748 121.997 114.687 121.997C116.625 121.997 118.485 121.229 119.858 119.86C120.225 119.483 120.429 118.977 120.426 118.451C120.422 117.925 120.212 117.422 119.84 117.05C119.468 116.678 118.964 116.467 118.438 116.464C117.912 116.461 117.406 116.665 117.03 117.032V117.03Z" fill="url(#paint3_linear_32_692)"/>
</g>
<defs>
<linearGradient id="paint0_linear_32_692" x1="8" y1="8" x2="75.7354" y2="12.2335" gradientUnits="userSpaceOnUse">
<stop stop-color="#FFD600"/>
<stop offset="1" stop-color="#FFBB36"/>
</linearGradient>
<linearGradient id="paint1_linear_32_692" x1="16" y1="16" x2="43.5175" y2="17.7198" gradientUnits="userSpaceOnUse">
<stop stop-color="#FFD600"/>
<stop offset="1" stop-color="#FFBB36"/>
</linearGradient>
<linearGradient id="paint2_linear_32_692" x1="-0.230957" y1="-0.231079" x2="135.4" y2="8.24585" gradientUnits="userSpaceOnUse">
<stop stop-color="#FFD600"/>
<stop offset="1" stop-color="#FFBB36"/>
</linearGradient>
<linearGradient id="paint3_linear_32_692" x1="97.2671" y1="104.782" x2="121.7" y2="106.837" gradientUnits="userSpaceOnUse">
<stop stop-color="#FFD600"/>
<stop offset="1" stop-color="#FFBB36"/>
</linearGradient>
<clipPath id="clip0_32_692">
<rect width="128" height="128" fill="white"/>
</clipPath>
</defs>
</svg>
