<svg width="128" height="128" viewBox="0 0 128 128" fill="none" xmlns="http://www.w3.org/2000/svg">
<path d="M126 48C125.47 48 124.961 48.2107 124.586 48.5858C124.211 48.9609 124 49.4696 124 50V118C123.998 119.591 123.366 121.116 122.241 122.241C121.116 123.366 119.591 123.998 118 124H10C8.40924 123.998 6.88413 123.366 5.75929 122.241C4.63445 121.116 4.00175 119.591 4 118V10C4.00175 8.40924 4.63445 6.88413 5.75929 5.75929C6.88413 4.63445 8.40924 4.00175 10 4H78C78.5304 4 79.0391 3.78929 79.4142 3.41421C79.7893 3.03914 80 2.53043 80 2C80 1.46957 79.7893 0.960859 79.4142 0.585786C79.0391 0.210714 78.5304 0 78 0L10 0C7.34879 0.0031229 4.80707 1.05769 2.93238 2.93238C1.05769 4.80707 0.0031229 7.34879 0 10L0 118C0.0031229 120.651 1.05769 123.193 2.93238 125.068C4.80707 126.942 7.34879 127.997 10 128H118C120.651 127.997 123.193 126.942 125.068 125.068C126.942 123.193 127.997 120.651 128 118V50C128 49.4696 127.789 48.9609 127.414 48.5858C127.039 48.2107 126.53 48 126 48Z" fill="url(#paint0_linear_32_693)"/>
<path d="M18.0399 83.6074L12.0399 113.607C11.9752 113.93 11.9913 114.264 12.0868 114.579C12.1822 114.895 12.3539 115.181 12.5868 115.414C12.8196 115.647 13.1064 115.819 13.4215 115.914C13.7367 116.01 14.0706 116.026 14.3935 115.961L44.3935 109.961C44.7738 109.866 45.1246 109.678 45.4149 109.414L122.443 32.3848C126.001 28.8272 128 24.002 128 18.9707C128 13.9394 126.001 9.11425 122.443 5.55661C120.682 3.79504 118.59 2.39769 116.289 1.44434C113.987 0.490989 111.52 0.000305176 109.029 0.000305176C103.998 0.000305176 99.1727 1.99897 95.6151 5.55661L18.5859 82.586C18.3218 82.8758 18.1341 83.2268 18.0399 83.6074V83.6074ZM21.2295 88.0568L39.9441 106.771L16.5497 111.45L21.2295 88.0568ZM84.9999 21.8282L94.1717 31L31.9999 93.1718L22.8285 84L84.9999 21.8282ZM90.9999 15.8282L112.172 37L109 40.1718L87.8281 19L90.9999 15.8282ZM43.9999 105.171L34.8281 96L96.9999 33.8282L106.172 43L43.9999 105.171ZM98.4433 8.38481C101.254 5.59209 105.057 4.02746 109.019 4.0338C112.981 4.04014 116.78 5.61693 119.581 8.41863C122.383 11.2203 123.96 15.0184 123.966 18.9806C123.972 22.9428 122.408 26.746 119.615 29.5566L115 34.1718L93.8281 13L98.4433 8.38481Z" fill="url(#paint1_linear_32_693)"/>
<defs>
<linearGradient id="paint0_linear_32_693" x1="0" y1="0" x2="135.471" y2="8.46693" gradientUnits="userSpaceOnUse">
<stop stop-color="#FFD600"/>
<stop offset="1" stop-color="#FFBB36"/>
</linearGradient>
<linearGradient id="paint1_linear_32_693" x1="12.001" y1="0.000305176" x2="134.77" y2="7.6733" gradientUnits="userSpaceOnUse">
<stop stop-color="#FFD600"/>
<stop offset="1" stop-color="#FFBB36"/>
</linearGradient>
</defs>
</svg>
