<svg width="124" height="124" viewBox="0 0 124 124" fill="none" xmlns="http://www.w3.org/2000/svg">
<path d="M62 0C49.7376 0 37.7505 3.63624 27.5547 10.4489C17.3588 17.2615 9.41213 26.9446 4.7195 38.2736C0.0268636 49.6026 -1.20094 62.0688 1.19134 74.0956C3.58362 86.1224 9.48855 97.1698 18.1594 105.841C26.8303 114.511 37.8776 120.416 49.9044 122.809C61.9312 125.201 74.3974 123.973 85.7264 119.281C97.0554 114.588 106.739 106.641 113.551 96.4454C120.364 86.2495 124 74.2624 124 62C123.981 45.5623 117.443 29.8032 105.82 18.18C94.1968 6.55681 78.4377 0.0186859 62 0V0ZM62 120C50.5287 120 39.315 116.598 29.777 110.225C20.2389 103.852 12.8049 94.7938 8.41502 84.1956C4.02513 73.5975 2.87654 61.9357 5.11448 50.6848C7.35242 39.4339 12.8764 29.0993 20.9878 20.9878C29.0993 12.8764 39.4339 7.3524 50.6848 5.11445C61.9357 2.87651 73.5976 4.0251 84.1957 8.41499C94.7938 12.8049 103.852 20.2389 110.225 29.7769C116.598 39.315 120 50.5287 120 62C119.983 77.3772 113.866 92.1197 102.993 102.993C92.1197 113.866 77.3773 119.983 62 120Z" fill="url(#paint0_linear_32_668)"/>
<path d="M62 8C51.3198 8 40.8795 11.167 31.9992 17.1006C23.119 23.0342 16.1977 31.4679 12.1105 41.3351C8.0234 51.2023 6.95402 62.0599 9.03762 72.5349C11.1212 83.0098 16.2642 92.6317 23.8163 100.184C31.3683 107.736 40.9902 112.879 51.4651 114.962C61.9401 117.046 72.7977 115.977 82.6649 111.889C92.5321 107.802 100.966 100.881 106.899 92.0008C112.833 83.1205 116 72.6802 116 62C115.984 47.6833 110.289 33.9577 100.166 23.8342C90.0423 13.7108 76.3167 8.0163 62 8V8ZM62 112C52.111 112 42.444 109.068 34.2215 103.573C25.9991 98.0794 19.5904 90.2705 15.806 81.1342C12.0217 71.9979 11.0315 61.9445 12.9608 52.2455C14.89 42.5464 19.6521 33.6373 26.6447 26.6447C33.6373 19.652 42.5465 14.89 52.2455 12.9607C61.9446 11.0315 71.9979 12.0216 81.1342 15.806C90.2705 19.5904 98.0794 25.999 103.574 34.2215C109.068 42.4439 112 52.1109 112 62C111.985 75.2563 106.713 87.9653 97.3389 97.3389C87.9653 106.713 75.2563 111.985 62 112V112Z" fill="url(#paint1_linear_32_668)"/>
<path d="M62 24C62.5304 24 63.0391 23.7893 63.4142 23.4142C63.7893 23.0391 64 22.5304 64 22V18C64 17.4696 63.7893 16.9609 63.4142 16.5858C63.0391 16.2107 62.5304 16 62 16C61.4696 16 60.9609 16.2107 60.5858 16.5858C60.2107 16.9609 60 17.4696 60 18V22C60 22.5304 60.2107 23.0391 60.5858 23.4142C60.9609 23.7893 61.4696 24 62 24Z" fill="url(#paint2_linear_32_668)"/>
<path d="M32.3019 29.4736C31.9253 29.1064 31.4191 28.9023 30.8931 28.9057C30.3671 28.909 29.8635 29.1195 29.4915 29.4914C29.1196 29.8634 28.9091 30.3669 28.9058 30.893C28.9025 31.419 29.1065 31.9252 29.4737 32.3018L32.3019 35.1298C32.6791 35.4941 33.1843 35.6957 33.7087 35.6912C34.2331 35.6866 34.7348 35.4763 35.1056 35.1055C35.4764 34.7346 35.6867 34.233 35.6913 33.7086C35.6958 33.1842 35.4943 32.679 35.1299 32.3018L32.3019 29.4736Z" fill="url(#paint3_linear_32_668)"/>
<path d="M22 60H18C17.4696 60 16.9609 60.2107 16.5858 60.5858C16.2107 60.9609 16 61.4696 16 62C16 62.5304 16.2107 63.0391 16.5858 63.4142C16.9609 63.7893 17.4696 64 18 64H22C22.5304 64 23.0391 63.7893 23.4142 63.4142C23.7893 63.0391 24 62.5304 24 62C24 61.4696 23.7893 60.9609 23.4142 60.5858C23.0391 60.2107 22.5304 60 22 60Z" fill="url(#paint4_linear_32_668)"/>
<path d="M32.3017 88.8702L29.4735 91.6982C29.2839 91.883 29.1329 92.1037 29.0292 92.3473C28.9256 92.591 28.8713 92.8528 28.8697 93.1175C28.868 93.3823 28.9189 93.6448 29.0195 93.8897C29.12 94.1347 29.2682 94.3572 29.4554 94.5444C29.6426 94.7317 29.8652 94.8798 30.1101 94.9804C30.3551 95.0809 30.6175 95.1319 30.8823 95.1302C31.1471 95.1285 31.4089 95.0743 31.6525 94.9706C31.8962 94.867 32.1168 94.716 32.3017 94.5264L35.1297 91.6982C35.494 91.321 35.6956 90.8158 35.691 90.2914C35.6864 89.767 35.4761 89.2654 35.1053 88.8946C34.7345 88.5237 34.2328 88.3134 33.7085 88.3089C33.1841 88.3043 32.6789 88.5059 32.3017 88.8702V88.8702Z" fill="url(#paint5_linear_32_668)"/>
<path d="M62 100C61.4696 100 60.9609 100.211 60.5858 100.586C60.2107 100.961 60 101.47 60 102V106C60 106.53 60.2107 107.039 60.5858 107.414C60.9609 107.789 61.4696 108 62 108C62.5304 108 63.0391 107.789 63.4142 107.414C63.7893 107.039 64 106.53 64 106V102C64 101.47 63.7893 100.961 63.4142 100.586C63.0391 100.211 62.5304 100 62 100Z" fill="url(#paint6_linear_32_668)"/>
<path d="M91.698 88.8702C91.3208 88.5059 90.8156 88.3043 90.2912 88.3089C89.7668 88.3134 89.2652 88.5237 88.8944 88.8946C88.5236 89.2654 88.3132 89.767 88.3087 90.2914C88.3041 90.8158 88.5057 91.321 88.87 91.6982L91.698 94.5264C91.8829 94.716 92.1035 94.867 92.3471 94.9706C92.5908 95.0743 92.8526 95.1285 93.1174 95.1302C93.3821 95.1319 93.6446 95.0809 93.8895 94.9804C94.1345 94.8798 94.357 94.7317 94.5443 94.5444C94.7315 94.3572 94.8797 94.1347 94.9802 93.8897C95.0808 93.6448 95.1317 93.3823 95.13 93.1175C95.1283 92.8528 95.0741 92.591 94.9704 92.3473C94.8668 92.1037 94.7158 91.883 94.5262 91.6982L91.698 88.8702Z" fill="url(#paint7_linear_32_668)"/>
<path d="M106 60H102C101.47 60 100.961 60.2107 100.586 60.5858C100.211 60.9609 100 61.4696 100 62C100 62.5304 100.211 63.0391 100.586 63.4142C100.961 63.7893 101.47 64 102 64H106C106.53 64 107.039 63.7893 107.414 63.4142C107.789 63.0391 108 62.5304 108 62C108 61.4696 107.789 60.9609 107.414 60.5858C107.039 60.2107 106.53 60 106 60Z" fill="url(#paint8_linear_32_668)"/>
<path d="M91.6983 29.4736L88.8703 32.3018C88.6793 32.4863 88.527 32.707 88.4221 32.951C88.3173 33.195 88.2621 33.4574 88.2598 33.723C88.2575 33.9885 88.3081 34.2519 88.4087 34.4977C88.5093 34.7435 88.6578 34.9668 88.8456 35.1546C89.0333 35.3423 89.2566 35.4909 89.5024 35.5914C89.7482 35.692 90.0116 35.7426 90.2771 35.7403C90.5427 35.738 90.8051 35.6828 91.0492 35.578C91.2932 35.4732 91.5138 35.3208 91.6983 35.1298L94.5265 32.3018C94.7161 32.1169 94.8671 31.8963 94.9708 31.6526C95.0744 31.409 95.1286 31.1472 95.1303 30.8824C95.132 30.6177 95.0811 30.3552 94.9805 30.1102C94.88 29.8653 94.7318 29.6428 94.5446 29.4555C94.3574 29.2683 94.1348 29.1201 93.8899 29.0196C93.6449 28.919 93.3825 28.8681 93.1177 28.8698C92.8529 28.8715 92.5911 28.9257 92.3475 29.0294C92.1038 29.133 91.8832 29.284 91.6983 29.4736Z" fill="url(#paint9_linear_32_668)"/>
<path d="M67.4001 64.5716C67.791 63.7705 67.9961 62.8914 68.0001 62C67.9963 60.7632 67.6097 59.558 66.8935 58.5497C66.1773 57.5414 65.1666 56.7795 64.0001 56.3686V32C64.0001 31.4696 63.7893 30.9609 63.4143 30.5858C63.0392 30.2107 62.5305 30 62.0001 30C61.4696 30 60.9609 30.2107 60.5858 30.5858C60.2108 30.9609 60.0001 31.4696 60.0001 32V56.3686C59.2304 56.6363 58.5236 57.0584 57.923 57.6091C57.3223 58.1597 56.8405 58.8273 56.5071 59.5708C56.1737 60.3143 55.9957 61.1181 55.984 61.9329C55.9724 62.7477 56.1273 63.5562 56.4393 64.309C56.7514 65.0617 57.2139 65.7428 57.7986 66.3104C58.3832 66.878 59.0777 67.3201 59.8394 67.6097C60.601 67.8993 61.4138 68.0302 62.2279 67.9944C63.042 67.9586 63.8401 67.7569 64.5735 67.4016L74.586 77.414C74.9633 77.7783 75.4685 77.9799 75.9929 77.9753C76.5172 77.9708 77.0189 77.7605 77.3897 77.3896C77.7605 77.0188 77.9708 76.5172 77.9754 75.9928C77.98 75.4684 77.7784 74.9632 77.4141 74.586L67.4001 64.5716ZM60.0001 62C60.0001 61.4696 60.2108 60.9609 60.5858 60.5858C60.9609 60.2107 61.4696 60 62.0001 60C62.5305 60 63.0392 60.2107 63.4143 60.5858C63.7893 60.9609 64.0001 61.4696 64.0001 62C64.0009 62.2665 63.9471 62.5304 63.8419 62.7753C63.7367 63.0202 63.5825 63.2409 63.3887 63.4238C63.2079 63.6084 62.9918 63.7546 62.7532 63.8536C62.5145 63.9526 62.2584 64.0024 62.0001 64C61.4698 63.9993 60.9615 63.7884 60.5866 63.4135C60.2117 63.0385 60.0007 62.5302 60.0001 62V62Z" fill="url(#paint10_linear_32_668)"/>
<defs>
<linearGradient id="paint0_linear_32_668" x1="0" y1="0" x2="131.237" y2="8.20234" gradientUnits="userSpaceOnUse">
<stop stop-color="#FFD600"/>
<stop offset="1" stop-color="#FFBB36"/>
</linearGradient>
<linearGradient id="paint1_linear_32_668" x1="8" y1="8" x2="122.304" y2="15.144" gradientUnits="userSpaceOnUse">
<stop stop-color="#FFD600"/>
<stop offset="1" stop-color="#FFBB36"/>
</linearGradient>
<linearGradient id="paint2_linear_32_668" x1="60" y1="16" x2="64.2459" y2="16.1327" gradientUnits="userSpaceOnUse">
<stop stop-color="#FFD600"/>
<stop offset="1" stop-color="#FFBB36"/>
</linearGradient>
<linearGradient id="paint3_linear_32_668" x1="28.9058" y1="28.9056" x2="36.0874" y2="29.3545" gradientUnits="userSpaceOnUse">
<stop stop-color="#FFD600"/>
<stop offset="1" stop-color="#FFBB36"/>
</linearGradient>
<linearGradient id="paint4_linear_32_668" x1="16" y1="60" x2="24.3692" y2="61.0462" gradientUnits="userSpaceOnUse">
<stop stop-color="#FFD600"/>
<stop offset="1" stop-color="#FFBB36"/>
</linearGradient>
<linearGradient id="paint5_linear_32_668" x1="28.8696" y1="88.3088" x2="36.0892" y2="88.76" gradientUnits="userSpaceOnUse">
<stop stop-color="#FFD600"/>
<stop offset="1" stop-color="#FFBB36"/>
</linearGradient>
<linearGradient id="paint6_linear_32_668" x1="60" y1="100" x2="64.2459" y2="100.133" gradientUnits="userSpaceOnUse">
<stop stop-color="#FFD600"/>
<stop offset="1" stop-color="#FFBB36"/>
</linearGradient>
<linearGradient id="paint7_linear_32_668" x1="88.3086" y1="88.3088" x2="95.5282" y2="88.76" gradientUnits="userSpaceOnUse">
<stop stop-color="#FFD600"/>
<stop offset="1" stop-color="#FFBB36"/>
</linearGradient>
<linearGradient id="paint8_linear_32_668" x1="100" y1="60" x2="108.369" y2="61.0462" gradientUnits="userSpaceOnUse">
<stop stop-color="#FFD600"/>
<stop offset="1" stop-color="#FFBB36"/>
</linearGradient>
<linearGradient id="paint9_linear_32_668" x1="88.2598" y1="28.8698" x2="95.5314" y2="29.3242" gradientUnits="userSpaceOnUse">
<stop stop-color="#FFD600"/>
<stop offset="1" stop-color="#FFBB36"/>
</linearGradient>
<linearGradient id="paint10_linear_32_668" x1="55.9834" y1="30" x2="79.3308" y2="30.6689" gradientUnits="userSpaceOnUse">
<stop stop-color="#FFD600"/>
<stop offset="1" stop-color="#FFBB36"/>
</linearGradient>
</defs>
</svg>
