<svg width="90" height="90" viewBox="0 0 90 90" fill="none" xmlns="http://www.w3.org/2000/svg">
<path fill-rule="evenodd" clip-rule="evenodd" d="M44.993 3.0232C68.1963 3.0232 87.0083 21.8214 87.0083 44.9928C87.0085 68.1786 68.1962 86.9768 44.993 86.9768C21.8046 86.9768 2.99197 68.1786 2.99197 44.9928C2.99197 21.8214 21.8045 3.0232 44.993 3.0232V3.0232ZM44.993 0.0338135C69.8481 0.0338135 89.9998 20.1713 89.9998 44.9929C89.9999 69.8295 69.8481 89.9662 44.993 89.9662C20.1521 89.9662 -0.00012207 69.8295 -0.00012207 44.9929C-0.00012207 20.1712 20.1522 0.0338135 44.993 0.0338135V0.0338135Z" fill="url(#paint0_linear_341_260)"/>
<path fill-rule="evenodd" clip-rule="evenodd" d="M73.9858 45.2607V45.4539V45.6322L73.971 45.8106V45.9891L73.956 46.1825V46.3608L73.9409 46.5392V46.7183L73.9262 46.9109L73.9109 47.0899L73.8966 47.2682L73.8816 47.462L73.8663 47.64L73.8519 47.8183L73.822 48.0123L73.8072 48.1905L73.7924 48.3689L73.7622 48.5622L73.7478 48.7406L73.7177 48.9191L73.6883 49.1123L73.6586 49.2906L73.6284 49.4697L73.5992 49.6624L73.569 49.8414L73.5391 50.034L73.5095 50.2129L73.4797 50.3915L73.4352 50.5848L73.4053 50.7632L73.3604 50.9415L73.331 51.1199L73.2864 51.3133L73.2566 51.4471C73.167 51.8193 72.9588 52.1463 72.6465 52.3545C72.2446 52.6375 71.798 52.6964 71.3664 52.5777C70.6368 52.3545 70.1159 51.6409 70.309 50.7929L70.3396 50.6592L70.3692 50.4956L70.4138 50.3319L70.4434 50.1684L70.4734 50.0049L70.503 49.8414L70.5328 49.6624L70.5625 49.499L70.5923 49.3354L70.6221 49.1719L70.6521 49.0083L70.6666 48.8447L70.6968 48.6806L70.7261 48.5177L70.7416 48.3535L70.7706 48.1905L70.7859 48.0123L70.801 47.8481L70.8153 47.6845L70.8306 47.5211L70.8599 47.3575L70.8753 47.1938V47.0304L70.8901 46.8664L70.905 46.7034L70.9197 46.5392V46.3761L70.9348 46.2121V46.0486L70.9497 45.885V45.7215L70.9643 45.558V45.3945V45.2303V45.1269C70.9643 44.7551 71.0988 44.3835 71.3664 44.1152C71.6341 43.803 71.9912 43.6543 72.3932 43.6247C73.2265 43.6098 74.0005 44.2195 73.9858 45.1412V45.2607V45.2607ZM44.9998 38.8704C46.7617 35.3466 48.5236 33.5847 52.0475 33.5847C55.9378 33.5847 59.0951 36.742 59.0951 40.6323C59.0951 47.6799 52.0475 54.7276 44.9998 61.7751C37.9522 54.7275 30.9045 47.6798 30.9045 40.6323C30.9045 36.742 34.062 33.5847 37.9522 33.5847C41.4759 33.5847 43.2378 35.3466 44.9998 38.8704V38.8704ZM72.1847 55.0465L72.1406 55.1505L72.0806 55.329L72.0213 55.4926L71.9469 55.6709L71.8875 55.8344L71.8125 55.9986L71.7385 56.1769L71.6786 56.3399L71.6047 56.5041L71.53 56.6825L71.4556 56.8455L71.3812 57.0095L71.2921 57.1731L71.2172 57.3367L71.1435 57.5149L71.0686 57.6791L70.9794 57.8421L70.8901 58.0063L70.8153 58.1697L70.7261 58.3334L70.6368 58.4968L70.5477 58.6604L70.4734 58.8238L70.3841 58.988L70.2801 59.151L70.1909 59.3151L70.1016 59.4781L70.0118 59.6422L69.9072 59.8057L69.8182 59.9692L69.714 60.1173L69.6248 60.2814L69.5207 60.4451L69.4168 60.5936L69.3424 60.7275C69.1335 61.0401 68.8213 61.2632 68.464 61.3673C67.988 61.5011 67.5561 61.3971 67.1842 61.1295C66.5739 60.6685 66.3359 59.8206 66.7973 59.0914L66.8717 58.9725L66.9608 58.8238L67.05 58.6901L67.1397 58.5413L67.2291 58.4076L67.3176 58.259L67.3926 58.1097L67.4817 57.9759L67.5709 57.8273L67.646 57.6791L67.7351 57.5298L67.8087 57.3812L67.8838 57.2326L67.9728 57.0839L68.0478 56.9502L68.1218 56.8008L68.1965 56.6528L68.2703 56.5041L68.345 56.3554L68.4195 56.2061L68.4937 56.0576L68.5532 55.9093L68.6275 55.7602L68.6876 55.6115L68.7615 55.4481L68.8214 55.2993L68.8959 55.1505L68.9546 55.0019L69.0146 54.8528L69.0742 54.704L69.1335 54.5559L69.1937 54.3918L69.2526 54.2431L69.312 54.0944L69.3567 53.9904C69.4909 53.6485 69.7442 53.3505 70.0714 53.1723C70.4434 52.9789 70.8304 52.9646 71.2171 53.068C72.0069 53.3505 72.5121 54.1688 72.1847 55.0465V55.0465ZM67.1097 63.7319L67.0353 63.821L66.9162 63.9548L66.7973 64.1035L66.6778 64.2373L66.559 64.3711L66.4252 64.5049L66.3058 64.6388L66.1873 64.773L66.0529 64.9069L65.934 65.0406L65.7996 65.1745L65.6807 65.2934L65.5469 65.4273L65.4131 65.561L65.2793 65.6949L65.1455 65.8138L65.0111 65.9476L64.8773 66.0671L64.7435 66.2009L64.6092 66.3193L64.4755 66.4537L64.3416 66.5726L64.1922 66.7063L64.0584 66.8253L63.9099 66.9442L63.7761 67.0631L63.6269 67.182L63.4925 67.3009L63.344 67.42L63.1952 67.5389L63.0466 67.6583L62.9128 67.7768L62.7634 67.8963L62.6148 67.9998L62.4953 68.089C62.1981 68.3269 61.8263 68.4315 61.454 68.4018C60.963 68.3571 60.576 68.1038 60.3231 67.7476C59.9057 67.1078 59.9657 66.2158 60.6502 65.6949L60.7691 65.6055L60.903 65.5015L61.0371 65.3975L61.171 65.2934L61.3048 65.1893L61.4243 65.0853L61.5581 64.981L61.6919 64.8765L61.811 64.7583L61.9448 64.6536L62.0643 64.5494L62.1981 64.4311L62.3174 64.3265L62.4507 64.2082L62.5702 64.1035L62.6897 63.9846L62.8082 63.8804L62.9275 63.7615L63.0466 63.6425L63.1654 63.5236L63.2849 63.4195L63.4033 63.3007L63.5227 63.1818L63.6417 63.0622L63.7458 62.9438L63.8652 62.8244L63.9694 62.7059L64.0885 62.5864L64.1922 62.4675L64.3112 62.3486L64.4159 62.2295L64.52 62.0959L64.6241 61.9763L64.7435 61.858L64.8024 61.7687C65.0558 61.4864 65.3976 61.2925 65.7697 61.248C66.172 61.2033 66.5439 61.3078 66.8716 61.5458C67.5116 62.0661 67.7195 63.0176 67.1097 63.7319L67.1097 63.7319ZM59.3705 70.1567L59.2659 70.2161L59.1024 70.3052L58.9383 70.3945L58.7898 70.4837L58.6262 70.5728L58.4624 70.6478L58.2985 70.737L58.135 70.8257L57.9714 70.9001L57.8072 70.9891L57.6439 71.0641L57.4803 71.1378L57.3167 71.2271L57.1527 71.302L56.9742 71.3762L56.8102 71.4501L56.6465 71.5249L56.4682 71.5993L56.3042 71.6737L56.1256 71.7479L55.9622 71.8076L55.7832 71.8817L55.6048 71.9561L55.4408 72.0155L55.2623 72.0899L55.0834 72.1493L54.9203 72.209L54.7415 72.2837L54.5629 72.3428L54.384 72.4022L54.2057 72.4621L54.0267 72.5211L53.8484 72.5806L53.6699 72.64L53.5355 72.6845C53.1787 72.7891 52.7916 72.7738 52.4496 72.6108C52.0032 72.4022 51.7349 72.0452 51.6161 71.6141C51.4525 70.8702 51.8093 70.0521 52.6274 69.7998L52.7767 69.7553L52.9256 69.6957L53.0896 69.6511L53.2381 69.5912L53.4019 69.5464L53.5659 69.4871L53.7146 69.4281L53.8781 69.3682L54.042 69.3237L54.1907 69.2641L54.3544 69.2052L54.5035 69.145L54.6671 69.0708L54.8164 69.0112L54.9649 68.9518L55.128 68.8923L55.2778 68.8181L55.4265 68.7585L55.575 68.6842L55.7386 68.6247L55.8873 68.5504L56.0361 68.476L56.1852 68.4162L56.3338 68.3422L56.4826 68.2679L56.6169 68.1931L56.7656 68.1193L56.9147 68.0444L57.0634 67.9706L57.2121 67.8963L57.3459 67.8214L57.4947 67.7476L57.629 67.6583L57.7781 67.5834L57.8674 67.5389C58.1944 67.3456 58.5814 67.2862 58.9536 67.3754C59.355 67.4645 59.6678 67.6877 59.8908 68.0152C60.3076 68.7289 60.1737 69.6957 59.3705 70.1567V70.1567ZM49.8893 73.547L49.7709 73.5772L49.592 73.6068L49.4136 73.6217L49.2346 73.6516L49.0563 73.6812L48.8772 73.711L48.6841 73.7257L48.5056 73.7557L48.3266 73.7706L48.1483 73.8002L47.9692 73.8151L47.776 73.83L47.5977 73.8448L47.4186 73.8596L47.2254 73.8745L47.047 73.8895L46.8532 73.9044L46.6749 73.9192H46.4963L46.3026 73.934H46.1236L45.9305 73.9489H45.7518L45.5586 73.9642H45.3797H45.1864H44.9932H44.8142H44.6205H44.4419L44.2488 73.9489H44.0697L43.8765 73.934H43.6982L43.5494 73.9192C43.1773 73.9044 42.8199 73.7557 42.5523 73.488C42.195 73.1461 42.0754 72.7144 42.1056 72.2683C42.2092 71.5101 42.8199 70.8702 43.6832 70.9001L43.832 70.9148H43.996L44.1596 70.9303H44.323H44.5021L44.665 70.9446H44.8291H44.9932H45.1711H45.3351L45.4991 70.9303H45.6776H45.8411L46.0051 70.9148H46.1683L46.3323 70.9001H46.4963L46.6749 70.8857L46.8384 70.8702H47.0024L47.1654 70.8553L47.3295 70.8404L47.4935 70.8257L47.6571 70.8108L47.8207 70.7959L47.9843 70.7663L48.1483 70.7514L48.3123 70.737L48.4752 70.7066L48.6394 70.6923L48.7881 70.6621L48.9521 70.6478L49.1157 70.6176L49.2792 70.5877L49.3833 70.5728C49.7555 70.5134 50.1425 70.5877 50.4554 70.7811C50.7973 71.004 51.0059 71.3317 51.1101 71.7182C51.2737 72.536 50.7973 73.3987 49.8893 73.547V73.547ZM41.5996 72.1941C41.4654 73.0122 40.7363 73.6664 39.8283 73.5024L39.7089 73.4731L39.5304 73.4435L39.3527 73.4136L39.1738 73.3691L38.9952 73.3392L38.8163 73.2947L38.6379 73.265L38.4589 73.2197L38.2806 73.1752L38.1015 73.1307L37.9232 73.0859L37.7447 73.0414L37.5659 72.9969L37.3874 72.9521L37.2085 72.8927L37.0301 72.8482L36.8517 72.7891L36.6733 72.7446L36.4948 72.6845L36.3308 72.64L36.1518 72.5806L35.9734 72.5211L35.795 72.4621L35.6161 72.4022L35.4377 72.3428L35.2594 72.2837L35.0809 72.209L34.9167 72.1493L34.7384 72.0899L34.5594 72.0155L34.3811 71.9561L34.2175 71.8817L34.039 71.8076L33.875 71.7479L33.7263 71.6881C33.3839 71.5398 33.1008 71.2717 32.9373 70.9303C32.7434 70.4837 32.7588 70.0377 32.9521 69.6358C33.3096 68.9518 34.098 68.5653 34.8871 68.8923L35.0363 68.9518L35.1849 69.0112L35.3336 69.0708L35.4977 69.145L35.6464 69.2052L35.8099 69.2641L35.9586 69.3237L36.1226 69.3682L36.2863 69.4281L36.4348 69.4871L36.5988 69.5464L36.7476 69.5912L36.9112 69.6511L37.0747 69.6957L37.224 69.7553L37.3874 69.7998L37.551 69.8444L37.7151 69.8891L37.8638 69.9485L38.0272 69.9931L38.1913 70.0376L38.34 70.0673L38.5036 70.1121L38.6671 70.1567L38.8163 70.2012L38.9798 70.2309L39.144 70.2756L39.3075 70.3052L39.4561 70.3498L39.6197 70.3796L39.7837 70.4094L39.9478 70.439L40.0966 70.4837L40.2595 70.5134L40.3642 70.5283C40.7364 70.5877 41.0633 70.7959 41.3018 71.0933C41.5551 71.4209 41.6443 71.7927 41.5996 72.1941V72.1941ZM32.4913 69.3978C32.0893 70.1269 31.1812 70.4837 30.3773 70.0074L30.2733 69.9484L30.1246 69.8593L29.9606 69.7696L29.8119 69.6659L29.6478 69.5768L29.4992 69.4728L29.3505 69.3835L29.1869 69.2788L29.0378 69.1748L28.8887 69.0708L28.7399 68.9816L28.5769 68.8781L28.4276 68.7585L28.279 68.6546L28.1304 68.5504L27.9812 68.4464L27.8324 68.3422L27.6832 68.2233L27.5346 68.1193L27.3853 67.9998L27.2367 67.8963L27.0881 67.7768L26.9542 67.6583L26.8056 67.5389L26.6563 67.42L26.5076 67.3009L26.3738 67.182L26.2251 67.0631L26.0907 66.9442L25.9422 66.8253L25.8084 66.7063L25.6593 66.5725L25.5254 66.4536L25.3916 66.3193L25.2725 66.23C25.0045 65.9778 24.8259 65.6204 24.7957 65.2486C24.7512 64.7583 24.9295 64.3419 25.2422 64.0291C25.8084 63.5088 26.6861 63.4195 27.3265 63.9995L27.4304 64.1035L27.5495 64.2081L27.6832 64.3265L27.8026 64.4311L27.9365 64.5494L28.0555 64.6536L28.1893 64.7583L28.3086 64.8765L28.4425 64.981L28.5769 65.0853L28.6952 65.1893L28.8296 65.2934L28.9634 65.3975L29.0972 65.5015L29.2316 65.6055L29.3654 65.7096L29.4992 65.7995L29.6334 65.9029L29.7673 66.007L29.9011 66.0963L30.0355 66.1854L30.1693 66.2899L30.3031 66.3788L30.4371 66.4679L30.5708 66.5725L30.7047 66.6617L30.8389 66.751L30.988 66.8402L31.1218 66.9293L31.2552 67.0186L31.4043 67.0929L31.5387 67.182L31.6725 67.2713L31.8212 67.3456L31.9104 67.4052C32.223 67.5983 32.4758 67.8963 32.5947 68.2531C32.7143 68.6546 32.6698 69.0261 32.4913 69.3978L32.4913 69.3978ZM22.6974 63.5088L22.6234 63.4195L22.504 63.2708L22.4 63.137L22.2805 62.9884L22.1622 62.8391L22.0575 62.7059L21.9386 62.5568L21.834 62.4081L21.7298 62.2594L21.611 62.1106L21.5069 61.9763L21.4028 61.8134L21.2988 61.6646L21.1941 61.5155L21.0901 61.3673L20.9861 61.2188L20.8814 61.0546L20.7772 60.9059L20.6736 60.7576L20.5841 60.5936L20.48 60.4451L20.3753 60.2814L20.2861 60.1174L20.1822 59.9693L20.0929 59.8057L19.9888 59.6423L19.8996 59.4781L19.8104 59.3151L19.7207 59.151L19.6171 58.988L19.5274 58.8238L19.4382 58.6604L19.3638 58.4968L19.2742 58.3335L19.1998 58.1991C19.0363 57.8719 18.9915 57.4853 19.0808 57.1284C19.2152 56.6528 19.5124 56.3256 19.9289 56.1324C20.6286 55.8344 21.492 56.0431 21.894 56.8163L21.9534 56.9502L22.0278 57.0839L22.1174 57.2326L22.1914 57.3812L22.2662 57.5298L22.3554 57.6791L22.4291 57.8274L22.5189 57.9759L22.608 58.1097L22.6825 58.259L22.7723 58.4076L22.8614 58.5413L22.9505 58.6901L23.0398 58.8238L23.129 58.9726L23.2187 59.1063L23.3081 59.2552L23.3971 59.389L23.4863 59.5227L23.5904 59.6566L23.6795 59.7904L23.7693 59.9395L23.8735 60.0729L23.9626 60.2067L24.0518 60.341L24.156 60.4599L24.2606 60.5936L24.3497 60.7275L24.4538 60.8612L24.5578 60.9803L24.6471 61.1141L24.7512 61.248L24.8558 61.3673L24.9598 61.5011L25.0341 61.5754C25.2725 61.8729 25.3915 62.2295 25.3767 62.6166C25.3617 63.0176 25.1828 63.375 24.9003 63.6425C24.2606 64.1926 23.2924 64.2224 22.6974 63.5088H22.6974ZM17.712 54.7789L17.6673 54.6594L17.6073 54.4811L17.5478 54.3181L17.4884 54.1392L17.4437 53.9606L17.3837 53.7972L17.3244 53.6189L17.2797 53.4398L17.2203 53.2769L17.1756 53.0984L17.1167 52.9199L17.0717 52.741L17.027 52.5626L16.9671 52.3842L16.9224 52.2058L16.8777 52.0274L16.8332 51.8489L16.7886 51.6702L16.7594 51.4916L16.7147 51.3133L16.6697 51.1199L16.6399 50.9415L16.5954 50.7632L16.5656 50.5847L16.5204 50.3915L16.4912 50.2129L16.4616 50.034L16.4318 49.8414L16.3872 49.6624L16.3574 49.4696L16.3426 49.2906L16.3129 49.1123L16.2827 48.9191L16.2533 48.7406L16.2379 48.5915C16.1934 48.2197 16.2825 47.8481 16.4912 47.5358C16.7737 47.1344 17.1756 46.9262 17.6222 46.8966C18.3964 46.8521 19.1253 47.3426 19.2443 48.2054L19.2597 48.3535L19.2742 48.5177L19.3043 48.6806L19.3335 48.8447L19.349 49.0083L19.3782 49.1719L19.4086 49.3354L19.4382 49.499L19.4679 49.6624L19.4976 49.8414L19.5274 50.0049L19.5571 50.1684L19.5868 50.3319L19.6313 50.4955L19.6617 50.6591L19.7062 50.8077L19.7355 50.9713L19.78 51.135L19.8104 51.2984L19.8551 51.4624L19.8996 51.6111L19.9442 51.7745L19.9888 51.9383L20.0333 52.1018L20.078 52.2504L20.1227 52.4139L20.1676 52.5626L20.2124 52.7268L20.2569 52.8754L20.3165 53.0384L20.361 53.1876L20.4205 53.3505L20.4651 53.4998L20.5245 53.6485L20.5543 53.7527C20.6881 54.1093 20.6736 54.4964 20.5394 54.8379C20.3753 55.225 20.0929 55.4926 19.7355 55.6562C18.947 55.954 18.0241 55.6413 17.712 54.7789V54.7789ZM16.0149 44.7402V44.5465V44.368L16.0298 44.1896V44.0112V43.8181L16.0447 43.6395L16.0596 43.4606V43.2821L16.0743 43.0889L16.0893 42.9106L16.1041 42.732L16.1189 42.5388L16.1338 42.3603L16.1489 42.1821L16.1785 41.9887L16.1934 41.8102L16.2087 41.632L16.2379 41.4386L16.2533 41.2603L16.2827 41.0814L16.3129 40.8885L16.3426 40.7096L16.3574 40.5157L16.3872 40.338L16.4318 40.1595L16.4616 39.9657L16.4912 39.7873L16.5204 39.6088L16.5656 39.4157L16.5954 39.2373L16.6399 39.0587L16.6697 38.8804L16.7147 38.6871L16.7439 38.5384C16.8332 38.1817 17.0417 37.8545 17.3546 37.6458C17.7565 37.3633 18.2025 37.3039 18.6343 37.4229C19.3638 37.6458 19.8841 38.3601 19.6909 39.208L19.6617 39.3418L19.6313 39.5049L19.5868 39.669L19.5571 39.8319L19.5275 39.9959L19.4976 40.1595L19.4679 40.3231L19.4382 40.5014L19.4086 40.665L19.3782 40.8286L19.349 40.9921L19.3335 41.1561L19.3043 41.3191L19.2742 41.4832L19.2597 41.6462L19.2295 41.8102L19.2152 41.9887L19.1998 42.1523L19.1848 42.3159L19.1552 42.4792L19.1403 42.643L19.1253 42.8064V42.9705L19.1106 43.1334L19.0957 43.2976L19.0808 43.4606V43.6247L19.0659 43.7881V43.9519L19.051 44.1153V44.2789L19.0363 44.4422V44.6065V44.7694V44.8736C19.0363 45.2459 18.9024 45.6174 18.6343 45.885C18.3667 46.1978 18.0094 46.3465 17.6074 46.3763C16.7737 46.391 16.0001 45.781 16.0148 44.8587L16.0149 44.7402H16.0149ZM17.816 34.9543L17.8458 34.8503L17.9196 34.6719L17.9796 34.5078L18.0539 34.3293L18.1134 34.1659L18.1876 34.0023L18.2627 33.8239L18.3215 33.6599L18.3964 33.4969L18.4701 33.3184L18.545 33.1542L18.6194 32.9913L18.6937 32.8272L18.783 32.6488L18.8577 32.4852L18.9321 32.3218L19.0208 32.1581L19.0957 31.9946L19.1848 31.8311L19.2742 31.6671L19.3638 31.504L19.4382 31.34L19.5274 31.177L19.6171 31.013L19.7207 30.8492L19.8104 30.6858L19.8996 30.5222L19.9888 30.3588L20.0929 30.1951L20.1822 30.0311L20.2861 29.8824L20.3753 29.719L20.48 29.5554L20.5841 29.4071L20.6583 29.2727C20.867 28.9606 21.1792 28.7375 21.5366 28.6335C22.0129 28.4997 22.4445 28.6037 22.8168 28.8713C23.427 29.3322 23.6652 30.1802 23.2033 30.9087L23.129 31.0278L23.0398 31.177L22.9505 31.3107L22.8614 31.4595L22.7723 31.5932L22.6825 31.7418L22.608 31.89L22.5189 32.0243L22.4292 32.1731L22.3554 32.3218L22.2662 32.4705L22.1914 32.619L22.1174 32.7683L22.0278 32.9021L21.9534 33.0502L21.8786 33.1989L21.8048 33.3476L21.7298 33.4969L21.6555 33.6455L21.5811 33.7941L21.5069 33.9428L21.4473 34.0915L21.373 34.2401L21.3135 34.3889L21.2388 34.5524L21.1792 34.7011L21.105 34.8503L21.0455 34.9989L20.9861 35.1476L20.9259 35.2957L20.867 35.445L20.7921 35.6085L20.7476 35.757L20.6881 35.9058L20.6434 36.0099C20.5096 36.3524 20.2569 36.6492 19.9289 36.8281C19.5571 37.021 19.1699 37.0363 18.783 36.9317C17.9945 36.6492 17.4884 35.8315 17.816 34.9543H17.816ZM22.891 26.2685L22.9654 26.1793L23.0843 26.0461L23.2034 25.897L23.3228 25.7632L23.4418 25.6293L23.5761 25.4948L23.6946 25.361L23.8141 25.2272L23.9479 25.094L24.0667 24.9602L24.2005 24.8264L24.32 24.6926L24.4538 24.5731L24.5876 24.4393L24.722 24.3054L24.8558 24.1865L24.9896 24.0528L25.124 23.9338L25.2578 23.8L25.3916 23.6807L25.5254 23.5469L25.6592 23.4284L25.8084 23.2946L25.9421 23.175L26.0907 23.0568L26.2251 22.9373L26.3738 22.8183L26.5076 22.6994L26.6563 22.5803L26.8056 22.4614L26.9542 22.3425L27.088 22.2234L27.2367 22.1046L27.3853 22L27.5048 21.9109C27.8026 21.6729 28.1748 21.5693 28.5465 21.5992C29.0378 21.6433 29.4248 21.8964 29.6781 22.2533C30.0801 22.8926 30.0353 23.7852 29.3505 24.3054L29.2316 24.3948L29.0971 24.4988L28.9634 24.6034L28.8296 24.7069L28.6952 24.8109L28.5769 24.9156L28.4425 25.0197L28.3086 25.1233L28.1893 25.2427L28.0555 25.3467L27.9364 25.4503L27.8026 25.5698L27.6832 25.6739L27.5494 25.7928L27.4303 25.897L27.3114 26.0158L27.1921 26.1198L27.0737 26.2388L26.9542 26.3578L26.8347 26.4767L26.7163 26.5807L26.5969 26.7002L26.4779 26.8193L26.3589 26.9382L26.2549 27.057L26.1354 27.1755L26.0314 27.2948L25.9124 27.4139L25.8084 27.5328L25.6889 27.6517L25.5848 27.7712L25.4806 27.9045L25.3617 28.0236L25.2578 28.1429L25.1977 28.2321C24.945 28.5147 24.6025 28.7079 24.2302 28.7524C23.8284 28.7971 23.4566 28.693 23.129 28.4552C22.4892 27.9342 22.2805 26.9827 22.891 26.2685V26.2685ZM30.6307 19.8443L30.7348 19.7849L30.8982 19.6956L31.0618 19.6063L31.211 19.5173L31.3747 19.4274L31.5387 19.3531L31.7017 19.264L31.8658 19.1747L32.0292 19.1004L32.1928 19.0106L32.3569 18.9368L32.5206 18.8625L32.6846 18.7733L32.848 18.699L33.0265 18.6245L33.1906 18.5497L33.354 18.4759L33.5329 18.4016L33.6961 18.3268L33.875 18.2529L34.039 18.193L34.2174 18.1191L34.381 18.0441L34.5593 17.9847L34.7383 17.9103L34.9167 17.8509L35.0808 17.7921L35.2593 17.7171L35.4376 17.6578L35.6161 17.5982L35.795 17.5388L35.9734 17.4793L36.1517 17.4199L36.3308 17.3604L36.4646 17.3157C36.8219 17.2117 37.2085 17.2265 37.5509 17.3901C37.9981 17.5982 38.2657 17.9551 38.3846 18.3868C38.5486 19.1302 38.1912 19.9479 37.3725 20.201L37.2239 20.2457L37.0747 20.3053L36.9111 20.3498L36.7475 20.4088L36.5988 20.4539L36.4348 20.5133L36.2863 20.5728L36.1225 20.6173L35.9585 20.6769L35.8099 20.7363L35.6464 20.7958L35.4976 20.8553L35.3336 20.9296L35.1849 20.9892L35.0362 21.0485L34.8722 21.1085L34.7235 21.1824L34.5742 21.2423L34.4255 21.3161L34.2621 21.3761L34.1128 21.4499L33.9643 21.5099L33.8156 21.5838L33.6668 21.6586L33.5176 21.7324L33.3838 21.8073L33.2351 21.8817L33.0864 21.9554L32.9373 22.0303L32.7886 22.1047L32.6544 22.1789L32.5055 22.2533L32.3717 22.3425L32.223 22.4169L32.1339 22.4614C31.8063 22.6548 31.4192 22.7142 31.0469 22.6252C30.6449 22.5358 30.3328 22.3127 30.1093 21.9857C29.6925 21.2715 29.8268 20.3053 30.6307 19.8443V19.8443ZM40.1107 16.4529L40.2302 16.4231L40.4086 16.394L40.5876 16.3786L40.7659 16.3495L40.9448 16.3191L41.1229 16.2894L41.3166 16.2745L41.4957 16.2453L41.6739 16.23L41.8523 16.2006L42.0309 16.1853L42.2245 16.1704L42.4036 16.1561L42.5818 16.1406L42.7752 16.1258L42.9541 16.1115L43.1475 16.0961L43.3259 16.0811H43.5048L43.6981 16.0669H43.8765L44.0696 16.0515H44.2487L44.4419 16.0366H44.6205H44.8141H44.9932H45.1864H45.3797H45.5586L45.7518 16.0515H45.9304L46.1236 16.0669H46.3026L46.4517 16.0811C46.8234 16.0961 47.1806 16.2453 47.4488 16.5125C47.8057 16.8548 47.9246 17.2855 47.8949 17.732C47.7909 18.4908 47.1806 19.1302 46.3173 19.1004L46.1682 19.0854H46.0051L45.8411 19.0706H45.6775H45.4991L45.335 19.0551H45.171H44.9932H44.829H44.665L44.502 19.0706H44.323H44.1595L43.996 19.0854H43.832L43.6678 19.1004H43.5048L43.3259 19.1153L43.1617 19.1302H42.9987L42.8347 19.1449L42.6712 19.1598L42.507 19.1747L42.3434 19.1895L42.18 19.2044L42.016 19.2342L41.8523 19.2491L41.6889 19.264L41.5249 19.2936L41.3613 19.3085L41.212 19.3383L41.049 19.3531L40.885 19.3829L40.7214 19.4125L40.6168 19.4274C40.2451 19.4869 39.858 19.4127 39.5457 19.2192C39.2028 18.9964 38.9797 18.6693 38.8906 18.2821C38.727 17.4644 39.1884 16.6015 40.1107 16.4529L40.1107 16.4529ZM48.4015 17.8064C48.5347 16.9885 49.2642 16.3339 50.1717 16.4975L50.2912 16.5278L50.4702 16.557L50.6485 16.5867L50.827 16.6314L51.006 16.6615L51.1843 16.7061L51.3634 16.7352L51.5416 16.78L51.7201 16.8245L51.8986 16.869L52.0769 16.9139L52.2558 16.9584L52.4342 17.003L52.6131 17.0481L52.7918 17.1075L52.9705 17.1523L53.1489 17.2117L53.3276 17.2562L53.5063 17.3157L53.6698 17.3604L53.8483 17.4199L54.0267 17.4793L54.2057 17.5388L54.384 17.5982L54.5629 17.6577L54.7415 17.7171L54.9202 17.7921L55.0834 17.8509L55.2623 17.9103L55.4407 17.9847L55.6047 18.0441L55.7832 18.1191L55.9621 18.193L56.1255 18.2529L56.2748 18.3119C56.6168 18.4605 56.8992 18.7281 57.0632 19.0706C57.2567 19.5173 57.2418 19.9626 57.0483 20.364C56.6913 21.0485 55.9021 21.435 55.1135 21.1085L54.9649 21.0485L54.8164 20.9891L54.6671 20.9296L54.5035 20.8553L54.3543 20.7958L54.1907 20.7363L54.0419 20.6769L53.8781 20.6173L53.7145 20.5728L53.5658 20.5133L53.4018 20.4539L53.2381 20.4088L53.0896 20.3498L52.9255 20.3053L52.7767 20.2457L52.6131 20.201L52.4497 20.1565L52.2857 20.0964L52.137 20.0519L51.9733 20.0074L51.8092 19.9626L51.6606 19.9181L51.4971 19.8889L51.333 19.8443L51.1843 19.7996L51.0207 19.7694L50.8573 19.7248L50.6931 19.6956L50.5445 19.6511L50.3804 19.6208L50.2168 19.591L50.0534 19.5463L49.9046 19.5173L49.7406 19.4869L49.6366 19.4725C49.2643 19.3978 48.9367 19.2044 48.6988 18.907C48.4456 18.58 48.3567 18.2084 48.4015 17.8064V17.8064ZM57.51 20.6024C57.9118 19.8734 58.8198 19.5173 59.6232 19.9781L59.7278 20.0519L59.8765 20.1412L60.0395 20.2302L60.1889 20.3348L60.3523 20.4242L60.5014 20.5282L60.6502 20.6173L60.8136 20.7215L60.963 20.8255L61.1116 20.9296L61.2603 21.0188L61.4242 21.1229L61.5729 21.2423L61.7216 21.3459L61.871 21.4499L62.0196 21.5544L62.1682 21.6586L62.3174 21.7771L62.4661 21.8817L62.6148 22L62.7633 22.1047L62.9128 22.2234L63.0465 22.3425L63.1951 22.4614L63.3439 22.5803L63.4925 22.6994L63.6269 22.8183L63.776 22.9373L63.9098 23.0568L64.0583 23.1751L64.1922 23.2946L64.3416 23.4284L64.4754 23.5469L64.6092 23.6807L64.7287 23.7697C64.9957 24.023 65.1746 24.3799 65.2042 24.7516C65.2489 25.2427 65.0704 25.659 64.7577 25.9713C64.1922 26.4916 63.314 26.5809 62.6741 26.0015L62.5701 25.897L62.4506 25.7928L62.3174 25.6739L62.198 25.5698L62.0642 25.4503L61.9447 25.3467L61.8109 25.2427L61.6918 25.1233L61.5581 25.0197L61.4242 24.9156L61.3047 24.8109L61.1709 24.7069L61.0371 24.6035L60.9029 24.4988L60.7691 24.3948L60.6357 24.2906L60.5014 24.2014L60.3677 24.0974L60.2338 23.9934L60.0994 23.9041L59.9657 23.8001L59.8318 23.7109L59.6976 23.6216L59.5638 23.5323L59.43 23.4284L59.2956 23.3391L59.1618 23.2499L59.0131 23.1608L58.8793 23.0711L58.7449 22.9818L58.5962 22.9074L58.4624 22.8183L58.3286 22.729L58.1801 22.6548L58.0902 22.5952C57.7781 22.402 57.5247 22.1047 57.4058 21.7479C57.2864 21.3459 57.3316 20.9743 57.51 20.6024V20.6024ZM67.3028 26.4916L67.3777 26.5807L67.4966 26.7301L67.6008 26.8638L67.7196 27.0125L67.8389 27.1463L67.9431 27.2948L68.0477 27.4436L68.1661 27.5923L68.2703 27.7411L68.3898 27.8897L68.4937 28.0236L68.5983 28.1874L68.7019 28.3361L68.8061 28.4842L68.9106 28.6335L69.0146 28.7823L69.1188 28.9453L69.2228 29.0944L69.3275 29.2431L69.4167 29.4071L69.5206 29.5554L69.6247 29.719L69.714 29.8823L69.8181 30.0311L69.9071 30.1951L70.0118 30.3588L70.1015 30.5222L70.1909 30.6858L70.28 30.8492L70.384 31.013L70.4734 31.177L70.5476 31.34L70.6368 31.504L70.726 31.6671L70.8009 31.8009C70.9643 32.1285 71.009 32.515 70.9197 32.8719C70.7859 33.3476 70.488 33.6751 70.0714 33.8685C69.372 34.1659 68.5087 33.9576 68.1066 33.1846L68.0477 33.0502L67.9727 32.9021L67.8837 32.7683L67.8087 32.619L67.7351 32.4705L67.6459 32.3218L67.5709 32.1731L67.4817 32.0243L67.3926 31.89L67.3175 31.7418L67.229 31.5932L67.1397 31.4595L67.0499 31.3107L66.9608 31.177L66.8717 31.0278L66.7824 30.894L66.6932 30.7453L66.6034 30.6115L66.5143 30.4777L66.4101 30.3439L66.3211 30.1951L66.2318 30.0612L66.1271 29.9269L66.0381 29.7931L65.934 29.6592L65.8446 29.541L65.7405 29.4071L65.651 29.2727L65.5469 29.139L65.4428 29.0051L65.3531 28.8862L65.2489 28.7524L65.1455 28.6335L65.0408 28.4997L64.9666 28.4254C64.7287 28.1276 64.6092 27.7712 64.6239 27.3842C64.6394 26.9678 64.8171 26.6254 65.1002 26.3578C65.7405 25.8077 66.7075 25.7781 67.3028 26.4916V26.4916ZM72.2893 35.2219L72.3338 35.3403L72.3932 35.5192L72.4527 35.6828L72.5122 35.8612L72.5575 36.0395L72.6163 36.2031L72.6758 36.3816L72.7203 36.5599L72.7803 36.724L72.8251 36.9025L72.8845 37.0808L72.9291 37.2593L72.9736 37.4377L73.033 37.6166L73.0777 37.7946L73.1223 37.9729L73.167 38.1513L73.2115 38.3299L73.2419 38.5081L73.2864 38.687L73.331 38.8804L73.3603 39.0587L73.4053 39.2373L73.4351 39.4156L73.4797 39.6088L73.5095 39.7873L73.5391 39.9657L73.569 40.1594L73.5992 40.3379L73.6284 40.5157L73.6586 40.7096L73.6882 40.8885L73.7176 41.0814L73.7478 41.2603L73.7621 41.4084C73.8071 41.78 73.7175 42.1523 73.5093 42.4643C73.2265 42.8658 72.825 43.0746 72.3783 43.1038C71.6047 43.1483 70.8752 42.6583 70.7557 41.7955L70.7415 41.6462L70.726 41.4832L70.6968 41.3191L70.6665 41.1561L70.6521 40.9921L70.622 40.8285L70.5923 40.6649L70.5625 40.5014L70.5328 40.323L70.5029 40.1594L70.4734 39.9959L70.4434 39.8319L70.4138 39.6689L70.3692 39.5049L70.3395 39.3418L70.2949 39.1925L70.2646 39.0291L70.22 38.8655L70.1909 38.7014L70.1462 38.5384L70.1015 38.3744L70.0563 38.2263L70.0118 38.0623L69.9673 37.8991L69.9225 37.7498L69.878 37.5864L69.8335 37.4377L69.7887 37.2741L69.7289 37.1255L69.6848 36.9619L69.6401 36.8132L69.5801 36.6492L69.5355 36.5011L69.4761 36.3524L69.4464 36.2478C69.312 35.8915 69.3273 35.5044 69.4611 35.1619C69.6247 34.7758 69.9071 34.5077 70.2645 34.3441C71.0535 34.0468 71.9764 34.359 72.2893 35.2219V35.2219ZM81.4719 51.6702C79.7606 49.9604 78.7038 47.5952 78.7038 44.9931C78.704 42.405 79.7606 40.0406 81.4719 38.3299C83.1988 36.6201 85.5499 35.549 88.1547 35.549H89.0027C87.8421 30.1357 85.7139 25.094 82.7968 20.5877L82.2015 21.1825C80.3559 23.0264 77.9446 23.9487 75.5186 23.9487C73.0928 23.9487 70.6664 23.0266 68.8362 21.1825C66.9906 19.3532 66.0677 16.9292 66.0677 14.5046C66.0678 12.0809 66.9906 9.67183 68.8362 7.82712L69.4315 7.23258C64.9219 4.31745 59.8766 2.1909 54.4589 1.03055V1.87866C54.4589 4.48105 53.3868 6.83112 51.6755 8.55635C49.9642 10.2664 47.5977 11.3221 44.9932 11.3221C42.4036 11.3221 40.0369 10.2666 38.3251 8.55635C36.6133 6.83114 35.5422 4.48106 35.5422 1.87866V1.03055C30.1246 2.1907 25.0792 4.31745 20.5692 7.23258L21.165 7.82712C23.0101 9.67186 23.9323 12.0809 23.9323 14.5046C23.9323 16.9292 23.0099 19.3532 21.1649 21.1825C19.3335 23.0264 16.908 23.9487 14.4821 23.9487C12.0561 23.9487 9.64475 23.0266 7.79968 21.1825L7.20403 20.5877C4.28668 25.0941 2.15862 30.1357 0.997192 35.549H1.84572C4.45019 35.549 6.80199 36.6201 8.52857 38.3299C10.2401 40.0406 11.2971 42.405 11.2971 44.9931C11.2971 47.5953 10.2399 49.9604 8.52857 51.6702C6.80197 53.3809 4.45003 54.452 1.84572 54.452H0.997192C2.1586 59.8651 4.28666 64.907 7.20385 69.4127L7.79964 68.8181C9.64472 66.974 12.0559 66.0517 14.482 66.0517C16.9079 66.0517 19.3335 66.974 21.1648 68.8181C23.01 70.6479 23.9323 73.0717 23.9323 75.4958C23.9323 77.92 23.0099 80.3292 21.1648 82.1738L20.5692 82.7684C25.0792 85.683 30.1245 87.8102 35.5422 88.9698V88.1223C35.5422 85.5195 36.6132 83.1699 38.325 81.4448C40.0369 79.7345 42.4036 78.6783 44.9932 78.6783C47.5976 78.6783 49.9642 79.7345 51.6755 81.4448C53.3869 83.1699 54.4589 85.5195 54.4589 88.1223V88.9698C59.8765 87.8102 64.9217 85.683 69.4315 82.7684L68.8361 82.1738C66.9906 80.3292 66.0676 77.9201 66.0676 75.4958C66.0678 73.0717 66.9906 70.6479 68.8361 68.8181C70.6665 66.974 73.0926 66.0517 75.5186 66.0517C77.9446 66.0517 80.3557 66.974 82.2014 68.8181L82.7968 69.4127C85.7139 64.9069 87.8421 59.8651 89.0027 54.452H88.1548C85.55 54.452 83.1986 53.3809 81.4718 51.6702H81.4719Z" fill="url(#paint1_linear_341_260)"/>
<defs>
<linearGradient id="paint0_linear_341_260" x1="-0.00012207" y1="0.0338135" x2="95.2521" y2="5.99154" gradientUnits="userSpaceOnUse">
<stop stop-color="#FFD600"/>
<stop offset="1" stop-color="#FFBB36"/>
</linearGradient>
<linearGradient id="paint1_linear_341_260" x1="0.997192" y1="1.03055" x2="94.1387" y2="6.85628" gradientUnits="userSpaceOnUse">
<stop stop-color="#FFD600"/>
<stop offset="1" stop-color="#FFBB36"/>
</linearGradient>
</defs>
</svg>
