<svg width="79" height="114" viewBox="0 0 79 114" fill="none" xmlns="http://www.w3.org/2000/svg">
<path d="M14.8071 17.3669H58.289C59.7549 17.3669 61.0864 17.9651 62.0501 18.9288C63.0137 19.8925 63.612 21.2238 63.612 22.6899V97.9755C63.612 99.4417 63.0137 100.773 62.0501 101.737C61.0864 102.7 59.7549 103.299 58.289 103.299H58.15V29.4389C58.15 27.7074 57.4626 26.059 56.2388 24.8352C55.0151 23.6115 53.3667 22.9241 51.6351 22.9241H9.48412V22.69C9.48412 21.2238 10.0823 19.8925 11.046 18.9288C12.0097 17.9651 13.341 17.3669 14.807 17.3669L14.8071 17.3669Z" fill="url(#paint0_linear_262_56)"/>
<path d="M22.3617 9.05844H65.8436C67.3096 9.05844 68.6411 9.65664 69.6047 10.6203C70.5683 11.584 71.1665 12.9153 71.1665 14.3814V89.667C71.1665 91.133 70.5683 92.4644 69.6047 93.4281C68.6411 94.3917 67.3096 94.9899 65.8436 94.9899H64.7206V22.6896C64.7206 20.9802 64.0419 19.3528 62.8341 18.1448C61.626 16.9366 59.9984 16.2581 58.289 16.2581H17.0387V14.3811C17.0387 12.9151 17.637 11.5838 18.6006 10.6201C19.5643 9.65638 20.8958 9.05819 22.3617 9.05819V9.05844Z" fill="url(#paint1_linear_262_56)"/>
<path d="M29.9162 0.749924H73.3982C74.8642 0.749924 76.1956 1.3482 77.1593 2.3118C78.1229 3.27548 78.7211 4.60682 78.7211 6.07293V81.3586C78.7211 82.8247 78.1229 84.156 77.1593 85.1197C76.1956 86.0833 74.8642 86.6816 73.3982 86.6816H72.2751V14.3812C72.2751 12.6718 71.5966 11.0444 70.3884 9.83634C69.1804 8.62827 67.553 7.9498 65.8436 7.9498H24.5933V6.07278C24.5933 4.60667 25.1915 3.27533 26.1551 2.31164C27.1188 1.34805 28.4502 0.749771 29.9162 0.749771L29.9162 0.749924Z" fill="url(#paint2_linear_262_56)"/>
<path d="M6.35185 24.0326H51.6351C53.124 24.0326 54.4762 24.6402 55.455 25.619C56.4339 26.5979 57.0415 27.95 57.0415 29.439V107.844C57.0415 109.333 56.4339 110.685 55.455 111.664C54.4762 112.643 53.124 113.25 51.6351 113.25H6.35185C4.8629 113.25 3.51071 112.643 2.53189 111.664C1.55307 110.685 0.945442 109.333 0.945442 107.844V29.439C0.945442 27.9501 1.55307 26.5979 2.53189 25.619C3.51071 24.6402 4.8629 24.0326 6.35185 24.0326V24.0326ZM35.6212 92.4043L40.1964 104.562H44.1519L48.7272 92.4043H45.1727L44.5712 94.1543H39.7772L39.1757 92.4043H35.6212H35.6212ZM40.6339 96.8885H43.7145L42.1651 101.464L40.6339 96.8885H40.6339ZM28.1621 56.9584C26.6189 55.0149 24.8595 54.3373 22.3845 54.3373C20.336 54.3373 18.3922 55.1438 16.9441 56.592C15.496 58.0401 14.6894 59.9839 14.6894 62.0324C14.6894 65.9189 16.7775 69.5704 19.044 72.5925C21.7436 76.1921 25.0479 79.4494 28.2257 82.6272C28.6499 83.0514 29.337 83.0514 29.7612 82.6272C32.939 79.4494 36.2433 76.192 38.9429 72.5925C41.2094 69.5704 43.2975 65.9188 43.2975 62.0324C43.2975 59.9839 42.4909 58.0401 41.0429 56.592C39.5947 55.1439 37.651 54.3373 35.6025 54.3373C33.8654 54.3373 32.3709 54.7317 31.0077 55.8222C30.5808 56.1637 30.1978 56.5531 29.85 56.9745L28.9962 58.0089L28.1621 56.9584H28.1621ZM22.6643 45.0482L18.0891 32.89H14.1336L9.5583 45.0482H13.1128L13.7143 43.2983H18.5083L19.1098 45.0482H22.6643H22.6643ZM17.6516 40.5641H14.571L16.1204 35.9889L17.6516 40.5641Z" fill="url(#paint3_linear_262_56)"/>
<defs>
<linearGradient id="paint0_linear_262_56" x1="9.48412" y1="17.3669" x2="66.906" y2="19.6275" gradientUnits="userSpaceOnUse">
<stop stop-color="#FFD600"/>
<stop offset="1" stop-color="#FFBB36"/>
</linearGradient>
<linearGradient id="paint1_linear_262_56" x1="17.0387" y1="9.05819" x2="74.4605" y2="11.3188" gradientUnits="userSpaceOnUse">
<stop stop-color="#FFD600"/>
<stop offset="1" stop-color="#FFBB36"/>
</linearGradient>
<linearGradient id="paint2_linear_262_56" x1="24.5933" y1="0.749771" x2="82.0151" y2="3.01037" gradientUnits="userSpaceOnUse">
<stop stop-color="#FFD600"/>
<stop offset="1" stop-color="#FFBB36"/>
</linearGradient>
<linearGradient id="paint3_linear_262_56" x1="0.945442" y1="24.0326" x2="60.4556" y2="26.3712" gradientUnits="userSpaceOnUse">
<stop stop-color="#FFD600"/>
<stop offset="1" stop-color="#FFBB36"/>
</linearGradient>
</defs>
</svg>
