<svg width="64" height="90" viewBox="0 0 64 90" fill="none" xmlns="http://www.w3.org/2000/svg">
<path d="M11.9789 13.2935H46.7645C47.9372 13.2935 49.0024 13.7721 49.7734 14.543C50.5443 15.314 51.0229 16.379 51.0229 17.5519V77.7804C51.0229 78.9533 50.5443 80.0183 49.7734 80.7893C49.0024 81.5602 47.9372 82.0388 46.7645 82.0388H46.6533V22.9511C46.6533 21.5659 46.1034 20.2472 45.1243 19.2682C44.1454 18.2892 42.8266 17.7393 41.4413 17.7393H7.72058V17.552C7.72058 16.3791 8.19913 15.314 8.97008 14.5431C9.74103 13.7721 10.8061 13.2936 11.9789 13.2936L11.9789 13.2935Z" fill="url(#paint0_linear_341_250)"/>
<path d="M18.0227 6.64675H52.8082C53.981 6.64675 55.0462 7.1253 55.817 7.89625C56.588 8.6672 57.0666 9.73227 57.0666 10.9051V71.1336C57.0666 72.3064 56.588 73.3715 55.817 74.1424C55.0462 74.9134 53.981 75.3919 52.8082 75.3919H51.9098V17.5517C51.9098 16.1841 51.3669 14.8822 50.4006 13.9158C49.4341 12.9493 48.132 12.4065 46.7645 12.4065H13.7643V10.9049C13.7643 9.73206 14.2429 8.66706 15.0138 7.89605C15.7847 7.1251 16.8499 6.64655 18.0227 6.64655V6.64675Z" fill="url(#paint1_linear_341_250)"/>
<path d="M24.0662 -6.06179e-05H58.8518C60.0246 -6.06179e-05 61.0898 0.478563 61.8607 1.24944C62.6316 2.02039 63.1101 3.08546 63.1101 4.25835V64.4869C63.1101 65.6597 62.6316 66.7248 61.8607 67.4958C61.0898 68.2666 60.0246 68.7453 58.8518 68.7453H57.9533V10.905C57.9533 9.53748 57.4105 8.23552 56.444 7.26907C55.4775 6.30262 54.1757 5.75984 52.8081 5.75984H19.8079V4.25822C19.8079 3.08533 20.2864 2.02026 21.0574 1.24932C21.8283 0.478439 22.8934 -0.000183105 24.0662 -0.000183105L24.0662 -6.06179e-05Z" fill="url(#paint2_linear_341_250)"/>
<path d="M5.21478 18.6261H41.4414C42.6325 18.6261 43.7143 19.1122 44.4973 19.8952C45.2804 20.6783 45.7665 21.76 45.7665 22.9512V85.6752C45.7665 86.8664 45.2804 87.9481 44.4973 88.7312C43.7143 89.5142 42.6325 90.0003 41.4414 90.0003H5.21478C4.02362 90.0003 2.94187 89.5142 2.15881 88.7312C1.37575 87.9481 0.889648 86.8664 0.889648 85.6752V22.9512C0.889648 21.76 1.37575 20.6783 2.15881 19.8952C2.94187 19.1122 4.02361 18.6261 5.21478 18.6261V18.6261ZM28.6302 73.3235L32.2904 83.05H35.4548L39.115 73.3235H36.2715L35.7902 74.7234H31.9551L31.4738 73.3235H28.6302H28.6302ZM32.6404 76.9108H35.1049L33.8653 80.571L32.6404 76.9108H32.6404ZM22.6629 44.9668C21.4284 43.4119 20.0209 42.8698 18.0409 42.8698C16.4021 42.8698 14.847 43.515 13.6886 44.6736C12.5301 45.8321 11.8848 47.3871 11.8848 49.0259C11.8848 52.1351 13.5553 55.0563 15.3685 57.474C17.5282 60.3537 20.1716 62.9595 22.7138 65.5018C23.0532 65.8411 23.6029 65.8411 23.9423 65.5018C26.4845 62.9595 29.1279 60.3536 31.2876 57.474C33.1008 55.0564 34.7713 52.1351 34.7713 49.0259C34.7713 47.3871 34.126 45.8321 32.9676 44.6736C31.8091 43.5151 30.2541 42.8698 28.6153 42.8698C27.2256 42.8698 26.03 43.1853 24.9395 44.0577C24.5979 44.331 24.2915 44.6425 24.0133 44.9796L23.3302 45.8071L22.663 44.9668H22.6629ZM18.2647 35.4385L14.6045 25.712H11.4401L7.77994 35.4385H10.6235L11.1047 34.0386H14.9399L15.4212 35.4385H18.2647H18.2647ZM14.2546 31.8513H11.7901L13.0296 28.1911L14.2546 31.8513Z" fill="url(#paint3_linear_341_250)"/>
<defs>
<linearGradient id="paint0_linear_341_250" x1="7.72058" y1="13.2935" x2="53.6581" y2="15.102" gradientUnits="userSpaceOnUse">
<stop stop-color="#FFD600"/>
<stop offset="1" stop-color="#FFBB36"/>
</linearGradient>
<linearGradient id="paint1_linear_341_250" x1="13.7643" y1="6.64655" x2="59.7017" y2="8.45503" gradientUnits="userSpaceOnUse">
<stop stop-color="#FFD600"/>
<stop offset="1" stop-color="#FFBB36"/>
</linearGradient>
<linearGradient id="paint2_linear_341_250" x1="19.8079" y1="-0.000183105" x2="65.7453" y2="1.8083" gradientUnits="userSpaceOnUse">
<stop stop-color="#FFD600"/>
<stop offset="1" stop-color="#FFBB36"/>
</linearGradient>
<linearGradient id="paint3_linear_341_250" x1="0.889648" y1="18.6261" x2="48.4978" y2="20.4969" gradientUnits="userSpaceOnUse">
<stop stop-color="#FFD600"/>
<stop offset="1" stop-color="#FFBB36"/>
</linearGradient>
</defs>
</svg>
