<svg width="113" height="114" viewBox="0 0 113 114" fill="none" xmlns="http://www.w3.org/2000/svg">
<path fill-rule="evenodd" clip-rule="evenodd" d="M56.4912 4.529C85.4954 4.529 109.01 28.0268 109.01 56.9911C109.011 85.9733 85.4953 109.471 56.4912 109.471C27.5058 109.471 3.98996 85.9733 3.98996 56.9911C3.98996 28.0268 27.5057 4.529 56.4912 4.529V4.529ZM56.4912 0.792267C87.5601 0.792267 112.75 25.9641 112.75 56.9911C112.75 88.0368 87.5601 113.208 56.4912 113.208C25.4402 113.208 0.249847 88.0368 0.249847 56.9911C0.249847 25.964 25.4403 0.792267 56.4912 0.792267V0.792267Z" fill="url(#paint0_linear_262_174)"/>
<path fill-rule="evenodd" clip-rule="evenodd" d="M92.7322 57.3259V57.5674V57.7903L92.7137 58.0133V58.2364L92.695 58.4781V58.7009L92.6761 58.924V59.1478L92.6577 59.3886L92.6386 59.6124L92.6207 59.8353L92.6019 60.0775L92.5828 60.3L92.5649 60.5229L92.5275 60.7653L92.5089 60.9882L92.4905 61.2111L92.4527 61.4527L92.4347 61.6758L92.397 61.8989L92.3603 62.1404L92.3232 62.3633L92.2854 62.5871L92.2489 62.828L92.2112 63.0518L92.1738 63.2925L92.1368 63.5162L92.0995 63.7394L92.0439 63.981L92.0065 64.204L91.9504 64.4269L91.9137 64.6499L91.8579 64.8916L91.8207 65.0588C91.7087 65.5241 91.4484 65.9329 91.0581 66.1932C90.5557 66.5468 89.9974 66.6205 89.4579 66.4721C88.5459 66.1932 87.8948 65.3011 88.1362 64.2412L88.1744 64.074L88.2114 63.8694L88.2672 63.6649L88.3042 63.4605L88.3417 63.2561L88.3786 63.0518L88.4159 62.828L88.4531 62.6238L88.4903 62.4193L88.5275 62.2148L88.5651 62.0103L88.5831 61.8058L88.6209 61.6008L88.6575 61.3971L88.6769 61.1919L88.7131 60.9882L88.7324 60.7653L88.7511 60.5601L88.769 60.3556L88.7882 60.1514L88.8248 59.9469L88.8441 59.7422V59.538L88.8625 59.333L88.8811 59.1292L88.8996 58.924V58.7201L88.9184 58.5151V58.3108L88.937 58.1062V57.9019L88.9554 57.6975V57.4931V57.2879V57.1586C88.9554 56.6939 89.1235 56.2294 89.4579 55.8941C89.7926 55.5037 90.239 55.3179 90.7415 55.2809C91.7831 55.2623 92.7506 56.0243 92.7322 57.1765V57.3259V57.3259ZM56.4997 49.3381C58.7021 44.9332 60.9044 42.7309 65.3093 42.7309C70.1721 42.7309 74.1188 46.6776 74.1188 51.5404C74.1188 60.3499 65.3093 69.1595 56.4997 77.9688C47.6902 69.1594 38.8806 60.3498 38.8806 51.5404C38.8806 46.6776 42.8274 42.7309 47.6902 42.7309C52.0948 42.7309 54.2972 44.9332 56.4997 49.3381V49.3381ZM90.4808 69.5582L90.4257 69.6882L90.3507 69.9113L90.2765 70.1157L90.1835 70.3386L90.1093 70.5431L90.0155 70.7483L89.923 70.9712L89.8482 71.1749L89.7558 71.3801L89.6624 71.6032L89.5694 71.8069L89.4765 72.0119L89.3651 72.2163L89.2715 72.4209L89.1793 72.6437L89.0857 72.8489L88.9742 73.0526L88.8626 73.2579L88.769 73.4621L88.6575 73.6668L88.5459 73.871L88.4345 74.0755L88.3417 74.2798L88.23 74.485L88.1 74.6887L87.9886 74.8939L87.8769 75.0976L87.7647 75.3028L87.6339 75.5072L87.5227 75.7116L87.3925 75.8967L87.2809 76.1017L87.1508 76.3064L87.0209 76.492L86.9279 76.6593C86.6668 77.0502 86.2765 77.3291 85.8299 77.4591C85.2349 77.6264 84.695 77.4964 84.2302 77.1619C83.4673 76.5856 83.1698 75.5257 83.7466 74.6143L83.8396 74.4657L83.951 74.2798L84.0624 74.1126L84.1746 73.9267L84.2863 73.7595L84.3969 73.5737L84.4907 73.3871L84.6021 73.2199L84.7136 73.0342L84.8074 72.8489L84.9188 72.6623L85.0109 72.4765L85.1046 72.2908L85.2159 72.1049L85.3097 71.9377L85.4021 71.751L85.4956 71.566L85.5879 71.3801L85.6812 71.1943L85.7743 71.0076L85.8671 70.822L85.9415 70.6367L86.0343 70.4502L86.1095 70.2644L86.2018 70.0601L86.2767 69.8741L86.3698 69.6882L86.4432 69.5024L86.5182 69.316L86.5926 69.1301L86.6669 68.9449L86.742 68.7397L86.8157 68.5539L86.89 68.368L86.9458 68.238C87.1136 67.8107 87.4302 67.4382 87.8392 67.2153C88.3042 66.9736 88.788 66.9557 89.2713 67.085C90.2585 67.4382 90.8901 68.461 90.4808 69.5582V69.5582ZM84.1371 80.4149L84.0441 80.5263L83.8952 80.6935L83.7466 80.8794L83.5972 81.0466L83.4486 81.2139L83.2814 81.3811L83.1322 81.5485L82.9841 81.7163L82.8161 81.8837L82.6675 82.0507L82.4995 82.2182L82.3508 82.3668L82.1836 82.5341L82.0163 82.7013L81.849 82.8686L81.6818 83.0172L81.5138 83.1845L81.3465 83.3339L81.1793 83.5012L81.0115 83.6491L80.8443 83.8171L80.677 83.9657L80.4902 84.1329L80.3229 84.2816L80.1373 84.4302L79.97 84.5789L79.7836 84.7276L79.6156 84.8762L79.4299 85.0251L79.2439 85.1737L79.0582 85.3229L78.891 85.471L78.7042 85.6204L78.5185 85.7497L78.3691 85.8613C77.9975 86.1586 77.5328 86.2894 77.0675 86.2522C76.4537 86.1964 75.9699 85.8798 75.6538 85.4345C75.1321 84.6347 75.2071 83.5198 76.0627 82.8686L76.2113 82.7569L76.3786 82.6269L76.5464 82.4969L76.7137 82.3668L76.8809 82.2366L77.0303 82.1066L77.1976 81.9763L77.3648 81.8457L77.5137 81.6978L77.6809 81.567L77.8303 81.4368L77.9975 81.2889L78.1467 81.1581L78.3133 81.0102L78.4627 80.8794L78.612 80.7308L78.7602 80.6005L78.9094 80.4519L79.0582 80.3032L79.2067 80.1546L79.356 80.0244L79.5041 79.8758L79.6533 79.7272L79.802 79.5778L79.9322 79.4297L80.0815 79.2805L80.2116 79.1324L80.3605 78.983L80.4902 78.8344L80.639 78.6858L80.7698 78.5369L80.8999 78.3698L81.0301 78.2204L81.1793 78.0725L81.2529 77.9609C81.5696 77.608 81.997 77.3656 82.4621 77.31C82.965 77.2541 83.4299 77.3847 83.8394 77.6822C84.6394 78.3327 84.8993 79.522 84.1371 80.4149L84.1371 80.4149ZM74.463 88.4459L74.3323 88.5201L74.128 88.6315L73.9228 88.7432L73.7371 88.8546L73.5326 88.966L73.328 89.0598L73.1231 89.1712L72.9187 89.2821L72.7142 89.3751L72.509 89.4864L72.3048 89.5801L72.1003 89.6723L71.8958 89.7839L71.6908 89.8775L71.4677 89.9703L71.2627 90.0626L71.058 90.1562L70.8352 90.2492L70.6302 90.3422L70.4069 90.4348L70.2026 90.5095L69.9789 90.6021L69.7559 90.6951L69.5509 90.7694L69.3278 90.8624L69.1042 90.9367L68.9003 91.0112L68.6768 91.1047L68.4536 91.1785L68.23 91.2528L68.0071 91.3277L67.7833 91.4014L67.5604 91.4758L67.3373 91.55L67.1693 91.6056C66.7233 91.7364 66.2394 91.7173 65.8119 91.5136C65.2539 91.2528 64.9186 90.8066 64.7701 90.2676C64.5656 89.3378 65.0116 88.3151 66.0342 87.9998L66.2208 87.9441L66.4069 87.8697L66.6119 87.8139L66.7976 87.739L67.0023 87.6831L67.2073 87.6088L67.3932 87.5351L67.5976 87.4602L67.8024 87.4046L67.9883 87.3301L68.1929 87.2565L68.3794 87.1813L68.5839 87.0885L68.7704 87.014L68.9561 86.9398L69.16 86.8654L69.3472 86.7726L69.533 86.6982L69.7187 86.6053L69.9232 86.5309L70.1091 86.4381L70.295 86.3451L70.4815 86.2702L70.6672 86.1778L70.8532 86.0849L71.021 85.9913L71.2069 85.8991L71.3933 85.8055L71.5791 85.7132L71.7651 85.6204L71.9323 85.5268L72.1183 85.4345L72.2862 85.3229L72.4726 85.2293L72.5842 85.1737C72.9929 84.9321 73.4767 84.8578 73.9419 84.9693C74.4437 85.0807 74.8347 85.3596 75.1135 85.769C75.6344 86.6612 75.4671 87.8697 74.463 88.4459V88.4459ZM62.6116 92.6838L62.4635 92.7216L62.2399 92.7586L62.017 92.7772L61.7932 92.8145L61.5703 92.8516L61.3465 92.8888L61.105 92.9072L60.8819 92.9446L60.6581 92.9632L60.4353 93.0003L60.2114 93.0189L59.97 93.0375L59.747 93.0561L59.5232 93.0745L59.2817 93.0931L59.0587 93.1119L58.8165 93.1305L58.5936 93.1491H58.3703L58.1282 93.1675H57.9045L57.663 93.1861H57.4397L57.1982 93.2053H56.9746H56.733H56.4915H56.2677H56.0256H55.8023L55.5609 93.1861H55.337L55.0956 93.1675H54.8727L54.6867 93.1491C54.2215 93.1305 53.7748 92.9446 53.4403 92.61C52.9936 92.1826 52.8442 91.6431 52.882 91.0854C53.0115 90.1376 53.7748 89.3378 54.8539 89.3751L55.04 89.3936H55.245L55.4494 89.4129H55.6537H55.8775L56.0812 89.4307H56.2863H56.4914H56.7138H56.9188L57.1238 89.4129H57.3469H57.5513L57.7563 89.3936H57.9602L58.1653 89.3751H58.3703L58.5936 89.3571L58.7979 89.3378H59.0029L59.2066 89.3192L59.4118 89.3006L59.6168 89.2821L59.8213 89.2635L60.0258 89.2449L60.2303 89.2079L60.4353 89.1893L60.6403 89.1712L60.8439 89.1333L61.0492 89.1154L61.235 89.0776L61.4401 89.0598L61.6446 89.022L61.849 88.9846L61.9791 88.966C62.4443 88.8918 62.9281 88.9846 63.3192 89.2263C63.7465 89.505 64.0073 89.9147 64.1375 90.3978C64.342 91.42 63.7465 92.4984 62.6116 92.6838V92.6838ZM52.2495 90.9926C52.0816 92.0153 51.1704 92.833 50.0353 92.628L49.8861 92.5914L49.6629 92.5543L49.4408 92.5171L49.2171 92.4614L48.9939 92.4241L48.7703 92.3684L48.5473 92.3312L48.3235 92.2747L48.1007 92.219L47.8768 92.1634L47.654 92.1074L47.4309 92.0518L47.2073 91.9962L46.9842 91.9401L46.7606 91.8659L46.5375 91.8103L46.3146 91.7364L46.0916 91.6808L45.8685 91.6056L45.6635 91.55L45.4397 91.4758L45.2167 91.4014L44.9937 91.3277L44.7701 91.2528L44.547 91.1785L44.3242 91.1047L44.1011 91.0112L43.8959 90.9367L43.6729 90.8624L43.4492 90.7694L43.2263 90.6951L43.0218 90.6021L42.7987 90.5095L42.5937 90.4348L42.4079 90.3601C41.9798 90.1748 41.6259 89.8397 41.4216 89.4129C41.1792 88.8546 41.1984 88.2972 41.44 87.7947C41.8869 86.9398 42.8724 86.4567 43.8588 86.8654L44.0453 86.9398L44.2311 87.014L44.417 87.0885L44.622 87.1813L44.808 87.2565L45.0123 87.3301L45.1981 87.4046L45.4032 87.4602L45.6078 87.5351L45.7935 87.6088L45.9985 87.6831L46.1844 87.739L46.3889 87.8139L46.5933 87.8697L46.7799 87.9441L46.9842 87.9998L47.1887 88.0556L47.3938 88.1114L47.5797 88.1856L47.784 88.2414L47.989 88.297L48.1749 88.3342L48.3795 88.3901L48.5838 88.4459L48.7703 88.5015L48.9747 88.5387L49.1799 88.5945L49.3844 88.6315L49.57 88.6873L49.7745 88.7245L49.9795 88.7618L50.1847 88.7988L50.3706 88.8546L50.5743 88.8918L50.7051 88.9104C51.1704 88.9846 51.5791 89.2449 51.8772 89.6167C52.1938 90.0261 52.3053 90.4909 52.2495 90.9926V90.9926ZM40.864 87.4972C40.3615 88.4087 39.2265 88.8546 38.2216 88.2593L38.0916 88.1856L37.9057 88.0742L37.7007 87.962L37.5148 87.8324L37.3097 87.721L37.1239 87.591L36.9381 87.4793L36.7336 87.3485L36.5472 87.2185L36.3608 87.0885L36.1748 86.977L35.971 86.8476L35.7845 86.6982L35.5987 86.5682L35.4129 86.438L35.2265 86.308L35.0404 86.1777L34.854 86.0291L34.6682 85.8991L34.4816 85.7497L34.2958 85.6204L34.11 85.471L33.9427 85.3229L33.7569 85.1737L33.5703 85.0251L33.3844 84.8762L33.2172 84.7276L33.0313 84.5789L32.8633 84.4302L32.6777 84.2816L32.5104 84.1329L32.324 83.9657L32.1567 83.8171L31.9895 83.6491L31.8406 83.5376C31.5056 83.2223 31.2823 82.7755 31.2446 82.3108C31.189 81.6978 31.4118 81.1774 31.8027 80.7864C32.5104 80.136 33.6075 80.0244 34.408 80.7494L34.5379 80.8794L34.6868 81.0102L34.854 81.1581L35.0032 81.2889L35.1705 81.4368L35.3193 81.567L35.4866 81.6978L35.6357 81.8457L35.8031 81.9763L35.971 82.1066L36.119 82.2366L36.287 82.3668L36.4542 82.4969L36.6214 82.6269L36.7895 82.7569L36.9567 82.887L37.1239 82.9994L37.2917 83.1287L37.459 83.2588L37.6263 83.3704L37.7943 83.4818L37.9616 83.6124L38.1288 83.7235L38.2963 83.8349L38.4635 83.9657L38.6308 84.0771L38.7985 84.1888L38.9849 84.3002L39.1522 84.4116L39.3189 84.5233L39.5054 84.6161L39.6734 84.7276L39.8406 84.8391L40.0265 84.9321L40.1379 85.0065C40.5287 85.2479 40.8447 85.6204 40.9934 86.0663C41.1428 86.5682 41.0871 87.0326 40.864 87.4972L40.864 87.4972ZM28.6217 80.136L28.5292 80.0244L28.38 79.8385L28.25 79.6712L28.1006 79.4855L27.9526 79.2989L27.8218 79.1324L27.6732 78.946L27.5424 78.7602L27.4121 78.5743L27.2637 78.3883L27.1335 78.2204L27.0034 78.0167L26.8734 77.8308L26.7426 77.6444L26.6126 77.4591L26.4825 77.2735L26.3517 77.0683L26.2215 76.8824L26.092 76.6971L25.98 76.492L25.8499 76.3064L25.7191 76.1017L25.6075 75.8967L25.4777 75.7116L25.3661 75.5072L25.236 75.3028L25.1244 75.0976L25.013 74.8939L24.9008 74.6887L24.7713 74.485L24.6592 74.2798L24.5477 74.0756L24.4547 73.8711L24.3426 73.6668L24.2496 73.4988C24.0453 73.0898 23.9893 72.6067 24.1009 72.1606C24.2689 71.566 24.6405 71.157 25.1611 70.9156C26.0357 70.5431 27.1149 70.8039 27.6174 71.7704L27.6916 71.9377L27.7846 72.1049L27.8967 72.2908L27.9891 72.4765L28.0827 72.6623L28.1942 72.8489L28.2864 73.0342L28.3986 73.2199L28.51 73.3872L28.6031 73.5737L28.7153 73.7595L28.8267 73.9267L28.9381 74.1126L29.0497 74.2798L29.1612 74.4657L29.2733 74.6329L29.385 74.819L29.4963 74.9862L29.6078 75.1534L29.738 75.3207L29.8494 75.488L29.9616 75.6744L30.0918 75.8411L30.2032 76.0084L30.3147 76.1762L30.4449 76.3248L30.5757 76.4921L30.6871 76.6593L30.8172 76.8266L30.9472 76.9754L31.0588 77.1427L31.1889 77.31L31.3196 77.4591L31.4497 77.6264L31.5426 77.7192C31.8406 78.0911 31.9893 78.5369 31.9709 79.0208C31.9521 79.522 31.7284 79.9687 31.3754 80.3032C30.5757 80.9908 29.3655 81.028 28.6217 80.136H28.6217ZM22.3899 69.2237L22.334 69.0743L22.2591 68.8514L22.1846 68.6476L22.1104 68.424L22.0546 68.2008L21.9796 67.9965L21.9054 67.7737L21.8496 67.5498L21.7754 67.3461L21.7194 67.123L21.6459 66.8999L21.5896 66.6763L21.5337 66.4533L21.4588 66.2302L21.4029 66.0073L21.3471 65.7843L21.2915 65.5612L21.2357 65.3377L21.1992 65.1145L21.1434 64.8916L21.087 64.6499L21.0498 64.4269L20.9941 64.204L20.9569 63.9809L20.9004 63.7394L20.8639 63.5161L20.8269 63.2925L20.7897 63.0518L20.7339 62.828L20.6967 62.5871L20.6781 62.3633L20.6411 62.1403L20.6033 61.8989L20.5666 61.6758L20.5473 61.4894C20.4917 61.0247 20.6031 60.5601 20.8639 60.1698C21.2171 59.668 21.7194 59.4078 22.2777 59.3708C23.2455 59.3151 24.1566 59.9283 24.3053 61.0068L24.3246 61.1919L24.3426 61.3971L24.3803 61.6008L24.4169 61.8058L24.4362 62.0103L24.4727 62.2148L24.5106 62.4192L24.5477 62.6237L24.5848 62.828L24.6219 63.0518L24.6592 63.2561L24.6963 63.4605L24.7335 63.6649L24.7891 63.8694L24.8271 64.0739L24.8827 64.2596L24.9194 64.4641L24.975 64.6688L25.013 64.873L25.0688 65.078L25.1244 65.2638L25.1802 65.4682L25.236 65.6728L25.2916 65.8773L25.3474 66.063L25.4033 66.2674L25.4594 66.4533L25.5155 66.6585L25.5711 66.8443L25.6455 67.048L25.7011 67.2345L25.7755 67.4382L25.8313 67.6248L25.9055 67.8107L25.9428 67.9409C26.1101 68.3866 26.092 68.8706 25.9242 69.2974C25.7191 69.7812 25.3661 70.1157 24.9194 70.3202C23.9337 70.6925 22.7801 70.3016 22.3899 69.2237V69.2237ZM20.2686 56.6753V56.4331V56.21L20.2872 55.987V55.7641V55.5226L20.3058 55.2993L20.3244 55.0757V54.8526L20.3428 54.6112L20.3616 54.3883L20.38 54.165L20.3986 53.9235L20.4172 53.7004L20.4361 53.4776L20.4731 53.2359L20.4917 53.0128L20.5108 52.79L20.5473 52.5483L20.5666 52.3254L20.6033 52.1018L20.6411 51.8606L20.6781 51.637L20.6967 51.3946L20.7339 51.1725L20.7897 50.9494L20.8269 50.7071L20.8639 50.4841L20.9005 50.261L20.9569 50.0196L20.9941 49.7967L21.0498 49.5734L21.087 49.3505L21.1434 49.1089L21.1799 48.923C21.2915 48.4771 21.5521 48.0681 21.9432 47.8073C22.4455 47.4541 23.0031 47.3799 23.5428 47.5286C24.4547 47.8073 25.105 48.7001 24.8636 49.76L24.8271 49.9273L24.7891 50.1312L24.7335 50.3362L24.6963 50.5399L24.6593 50.7449L24.6219 50.9494L24.5849 51.1539L24.5477 51.3768L24.5106 51.5812L24.4727 51.7857L24.4362 51.9901L24.4169 52.1951L24.3804 52.3989L24.3426 52.6041L24.3246 52.8078L24.2868 53.0128L24.2689 53.2359L24.2496 53.4404L24.231 53.6448L24.1939 53.8491L24.1753 54.0537L24.1566 54.2581V54.4631L24.1381 54.6668L24.1195 54.872L24.1009 55.0757V55.2809L24.0823 55.4852V55.6898L24.0637 55.8941V56.0986L24.0453 56.3028V56.5081V56.7117V56.842C24.0453 57.3073 23.8779 57.7717 23.5428 58.1062C23.2083 58.4972 22.7616 58.6831 22.2591 58.7203C21.2171 58.7388 20.25 57.9763 20.2684 56.8234L20.2686 56.6753H20.2686ZM22.5199 44.4428L22.5571 44.3128L22.6494 44.0899L22.7244 43.8847L22.8173 43.6616L22.8917 43.4574L22.9845 43.2529L23.0783 43.0298L23.1518 42.8248L23.2455 42.6211L23.3376 42.398L23.4312 42.1928L23.5242 41.9891L23.617 41.7841L23.7287 41.561L23.822 41.3566L23.9151 41.1522L24.0259 40.9476L24.1195 40.7433L24.2309 40.5389L24.3426 40.3339L24.4547 40.13L24.5477 39.925L24.6592 39.7212L24.7713 39.5162L24.9008 39.3115L25.013 39.1072L25.1244 38.9028L25.236 38.6985L25.3661 38.4939L25.4777 38.2889L25.6075 38.103L25.7191 37.8987L25.8499 37.6942L25.98 37.5089L26.0728 37.3409C26.3337 36.9508 26.724 36.6719 27.1707 36.5419C27.766 36.3746 28.3056 36.5047 28.7709 36.8392C29.5336 37.4153 29.8315 38.4753 29.254 39.3859L29.1612 39.5348L29.0497 39.7212L28.9381 39.8884L28.8267 40.0743L28.7153 40.2416L28.6031 40.4272L28.51 40.6125L28.3986 40.7803L28.2864 40.9664L28.1942 41.1522L28.0827 41.3381L27.9891 41.5238L27.8967 41.7104L27.7846 41.8777L27.6916 42.0628L27.5982 42.2486L27.5059 42.4345L27.4121 42.6211L27.3193 42.8069L27.2263 42.9926L27.1335 43.1785L27.059 43.3644L26.9662 43.5502L26.8918 43.7361L26.7984 43.9405L26.724 44.1264L26.6312 44.3128L26.5568 44.4986L26.4825 44.6845L26.4074 44.8696L26.3337 45.0563L26.2401 45.2607L26.1844 45.4463L26.11 45.6322L26.0542 45.7624C25.8869 46.1905 25.5711 46.5615 25.1611 46.7852C24.6963 47.0263 24.2123 47.0454 23.7287 46.9146C22.743 46.5615 22.1104 45.5394 22.5199 44.4428H22.5199ZM28.8637 33.5856L28.9567 33.4742L29.1053 33.3076L29.2542 33.1212L29.4034 32.954L29.5522 32.7867L29.72 32.6185L29.8682 32.4513L30.0175 32.284L30.1848 32.1176L30.3333 31.9503L30.5005 31.783L30.6499 31.6157L30.8172 31.4663L30.9844 31.2991L31.1524 31.1318L31.3196 30.9832L31.4869 30.816L31.6549 30.6673L31.8222 30.5001L31.9895 30.3508L32.1567 30.1836L32.324 30.0355L32.5104 29.8682L32.6776 29.7188L32.8633 29.571L33.0313 29.4216L33.2172 29.2729L33.3844 29.1243L33.5703 28.9754L33.7569 28.8268L33.9427 28.6781L34.11 28.5293L34.2958 28.3808L34.4815 28.25L34.6309 28.1386C35.0032 27.8411 35.4685 27.7116 35.933 27.749C36.5472 27.8041 37.0309 28.1205 37.3475 28.5666C37.85 29.3657 37.7941 30.4815 36.9381 31.1318L36.7895 31.2435L36.6214 31.3735L36.4542 31.5043L36.2869 31.6336L36.1189 31.7637L35.971 31.8945L35.803 32.0247L35.6357 32.1542L35.4866 32.3034L35.3193 32.4334L35.1705 32.5629L35.0032 32.7123L34.854 32.8424L34.6867 32.991L34.5379 33.1212L34.3892 33.2697L34.24 33.3998L34.0921 33.5486L33.9427 33.6973L33.7933 33.8459L33.6453 33.9759L33.4961 34.1253L33.3474 34.2742L33.1986 34.4228L33.0685 34.5712L32.9192 34.7193L32.7892 34.8686L32.6404 35.0174L32.5104 35.1661L32.361 35.3147L32.2309 35.4641L32.1007 35.6306L31.9521 35.7795L31.8222 35.9287L31.7471 36.0401C31.4311 36.3934 31.003 36.6348 30.5377 36.6906C30.0355 36.7464 29.5707 36.6163 29.1612 36.319C28.3614 35.6678 28.1006 34.4784 28.8637 33.5856V33.5856ZM38.5383 25.5554L38.6685 25.4811L38.8727 25.3695L39.0772 25.2579L39.2636 25.1466L39.4683 25.0343L39.6733 24.9414L39.8771 24.83L40.0822 24.7183L40.2865 24.6255L40.491 24.5133L40.696 24.421L40.9007 24.3282L41.1057 24.2166L41.3099 24.1238L41.5331 24.0307L41.7382 23.9372L41.9425 23.8449L42.1661 23.7521L42.37 23.6585L42.5936 23.5662L42.7986 23.4912L43.0217 23.3989L43.2262 23.3052L43.4491 23.2309L43.6729 23.1379L43.8958 23.0636L44.101 22.9902L44.3241 22.8964L44.5469 22.8222L44.77 22.7478L44.9937 22.6735L45.2167 22.5991L45.4396 22.5249L45.6634 22.4505L45.8307 22.3947C46.2773 22.2646 46.7606 22.2832 47.1886 22.4877C47.7475 22.7478 48.082 23.1939 48.2307 23.7335C48.4357 24.6627 47.989 25.6849 46.9656 26.0013L46.7798 26.0571L46.5933 26.1316L46.3888 26.1872L46.1843 26.261L45.9984 26.3174L45.7934 26.3916L45.6078 26.466L45.4031 26.5217L45.1981 26.5961L45.0123 26.6704L44.8079 26.7448L44.6219 26.8192L44.4169 26.912L44.231 26.9865L44.0452 27.0607L43.8402 27.1357L43.6543 27.2281L43.4677 27.3029L43.2819 27.3952L43.0775 27.4701L42.8909 27.5624L42.7053 27.6374L42.5194 27.7297L42.3334 27.8232L42.147 27.9155L41.9797 28.0091L41.7939 28.1021L41.608 28.1943L41.4215 28.2879L41.2357 28.3809L41.0679 28.4737L40.8818 28.5667L40.7146 28.6782L40.5287 28.7712L40.4173 28.8268C40.0079 29.0685 39.5239 29.1427 39.0586 29.0315C38.5561 28.9198 38.166 28.6409 37.8865 28.2321C37.3656 27.3394 37.5334 26.1316 38.5383 25.5554V25.5554ZM50.3884 21.3161L50.5377 21.2789L50.7607 21.2425L50.9845 21.2233L51.2073 21.1869L51.4309 21.1489L51.6535 21.1117L51.8957 21.0931L52.1195 21.0566L52.3424 21.0375L52.5653 21.0008L52.7886 20.9816L53.0306 20.963L53.2544 20.9452L53.4772 20.9258L53.7189 20.9072L53.9426 20.8894L54.1843 20.8702L54.4074 20.8514H54.631L54.8726 20.8336H55.0955L55.337 20.8144H55.5608L55.8023 20.7958H56.0256H56.2676H56.4914H56.7329H56.9745H57.1982L57.4397 20.8144H57.663L57.9044 20.8336H58.1282L58.3146 20.8514C58.7792 20.8702 59.2257 21.0566 59.561 21.3906C60.0071 21.8185 60.1557 22.3569 60.1185 22.915C59.9885 23.8635 59.2257 24.6627 58.1466 24.6255L57.9602 24.6067H57.7563L57.5513 24.5883H57.3469H57.1238L56.9187 24.5689H56.7137H56.4914H56.2862H56.0812L55.8775 24.5883H55.6537H55.4493L55.2449 24.6067H55.0399L54.8347 24.6255H54.631L54.4074 24.6441L54.2021 24.6627H53.9984L53.7933 24.6811L53.5889 24.6997L53.3837 24.7183L53.1792 24.7369L52.975 24.7555L52.77 24.7927L52.5653 24.8114L52.361 24.83L52.156 24.867L51.9515 24.8856L51.7649 24.9228L51.5612 24.9414L51.3562 24.9786L51.1517 25.0157L51.0209 25.0343C50.5564 25.1087 50.0724 25.0158 49.6821 24.774C49.2535 24.4955 48.9746 24.0866 48.8632 23.6027C48.6587 22.5805 49.2355 21.5018 50.3883 21.3161L50.3884 21.3161ZM60.7518 23.008C60.9184 21.9857 61.8301 21.1673 62.9645 21.3719L63.1139 21.4097L63.3377 21.4462L63.5605 21.4834L63.7836 21.5392L64.0074 21.5769L64.2304 21.6326L64.4541 21.6691L64.677 21.725L64.9001 21.7807L65.1232 21.8363L65.346 21.8923L65.5696 21.948L65.7927 22.0038L66.0164 22.0602L66.2396 22.1344L66.4631 22.1904L66.6861 22.2646L66.9094 22.3202L67.1328 22.3947L67.3372 22.4505L67.5603 22.5249L67.7833 22.5991L68.0071 22.6735L68.2299 22.7478L68.4535 22.8222L68.6768 22.8964L68.9002 22.9902L69.1041 23.0636L69.3278 23.1379L69.5509 23.2309L69.7559 23.3052L69.9789 23.3989L70.2026 23.4912L70.4068 23.5662L70.5934 23.6399C71.0209 23.8257 71.3739 24.1602 71.5789 24.5883C71.8208 25.1466 71.8022 25.7033 71.5603 26.205C71.114 27.0607 70.1276 27.5438 69.1418 27.1357L68.956 27.0607L68.7704 26.9864L68.5838 26.912L68.3793 26.8191L68.1929 26.7447L67.9883 26.6704L67.8024 26.5961L67.5975 26.5216L67.3931 26.466L67.2072 26.3916L67.0022 26.3174L66.7975 26.261L66.6119 26.1872L66.4069 26.1316L66.2208 26.0571L66.0164 26.0013L65.812 25.9457L65.607 25.8705L65.4212 25.8149L65.2165 25.7593L65.0115 25.7033L64.8257 25.6477L64.6214 25.6112L64.4162 25.5554L64.2303 25.4996L64.0258 25.4618L63.8216 25.406L63.6163 25.3695L63.4305 25.3138L63.2255 25.276L63.021 25.2388L62.8167 25.1829L62.6307 25.1466L62.4256 25.1086L62.2956 25.0907C61.8303 24.9972 61.4209 24.7555 61.1234 24.3838C60.8069 23.9751 60.6959 23.5105 60.7518 23.008V23.008ZM72.1374 26.503C72.6397 25.5918 73.7746 25.1466 74.7789 25.7226L74.9097 25.8149L75.0956 25.9265L75.2993 26.0378L75.4861 26.1685L75.6903 26.2802L75.8767 26.4102L76.0626 26.5216L76.2669 26.6519L76.4536 26.7819L76.6394 26.912L76.8254 27.0235L77.0302 27.1537L77.2161 27.3029L77.4019 27.4324L77.5887 27.5624L77.7744 27.693L77.9602 27.8232L78.1467 27.9713L78.3326 28.1021L78.5184 28.25L78.7041 28.3808L78.8909 28.5293L79.0581 28.6782L79.2438 28.8268L79.4298 28.9754L79.6155 29.1243L79.7835 29.2729L79.97 29.4216L80.1372 29.571L80.3228 29.7188L80.4901 29.8682L80.6769 30.0355L80.8442 30.1836L81.0114 30.3509L81.1608 30.4621C81.4946 30.7788 81.7182 31.2249 81.7552 31.6895C81.811 32.3034 81.588 32.8237 81.1971 33.2141C80.4901 33.8645 79.3924 33.9762 78.5926 33.2519L78.4626 33.1212L78.3132 32.991L78.1467 32.8424L77.9974 32.7123L77.8302 32.5629L77.6808 32.4334L77.5136 32.3034L77.3647 32.1542L77.1975 32.0247L77.0302 31.8945L76.8808 31.7637L76.7136 31.6337L76.5463 31.5043L76.3786 31.3735L76.2112 31.2435L76.0446 31.1132L75.8767 31.0018L75.7095 30.8718L75.5422 30.7418L75.3742 30.6301L75.207 30.5001L75.0397 30.3887L74.872 30.277L74.7047 30.1654L74.5374 30.0355L74.3694 29.9239L74.2021 29.8124L74.0163 29.701L73.849 29.5888L73.681 29.4772L73.4952 29.3843L73.3279 29.2729L73.1607 29.1613L72.975 29.0685L72.8627 28.994C72.4725 28.7526 72.1558 28.3808 72.0072 27.9349C71.858 27.4324 71.9144 26.9678 72.1374 26.5031V26.503ZM84.3784 33.8645L84.472 33.9759L84.6207 34.1626L84.7509 34.3298L84.8994 34.5156L85.0486 34.6829L85.1788 34.8686L85.3096 35.0545L85.4575 35.2404L85.5878 35.4263L85.7372 35.6122L85.867 35.7795L85.9978 35.9843L86.1273 36.1701L86.2575 36.3553L86.3882 36.5419L86.5182 36.7279L86.6484 36.9316L86.7785 37.1181L86.9093 37.3039L87.0209 37.5089L87.1507 37.6942L87.2808 37.8987L87.3924 38.1029L87.5226 38.2888L87.6339 38.4939L87.7647 38.6985L87.8769 38.9028L87.9885 39.1072L88.1 39.3115L88.23 39.5162L88.3417 39.7212L88.4345 39.9249L88.5459 40.13L88.6575 40.3339L88.7511 40.5011C88.9553 40.9106 89.0112 41.3937 88.8995 41.8399C88.7323 42.4345 88.36 42.8439 87.8391 43.0856C86.9649 43.4574 85.8858 43.1971 85.3831 42.2308L85.3096 42.0628L85.2158 41.8777L85.1046 41.7104L85.0108 41.5238L84.9188 41.3381L84.8073 41.1522L84.7136 40.9664L84.6021 40.7803L84.4906 40.6125L84.3969 40.4272L84.2862 40.2416L84.1745 40.0743L84.0623 39.8884L83.9509 39.7212L83.8395 39.5348L83.7279 39.3675L83.6164 39.1817L83.5042 39.0144L83.3928 38.8472L83.2626 38.6799L83.1513 38.4939L83.0397 38.3266L82.9089 38.1586L82.7976 37.9914L82.6674 37.8241L82.5557 37.6762L82.4256 37.5089L82.3137 37.3409L82.1835 37.1737L82.0535 37.0064L81.9413 36.8578L81.811 36.6906L81.6818 36.5419L81.551 36.3746L81.4582 36.2818C81.1608 35.9095 81.0114 35.4641 81.0299 34.9802C81.0492 34.4598 81.2713 34.0318 81.6252 33.6973C82.4256 33.0096 83.6343 32.9726 84.3784 33.8645V33.8645ZM90.6116 44.7773L90.6672 44.9254L90.7414 45.1491L90.8158 45.3535L90.8902 45.5766L90.9468 45.7994L91.0203 46.0039L91.0947 46.227L91.1503 46.4499L91.2254 46.655L91.2813 46.8782L91.3555 47.101L91.4113 47.3241L91.467 47.5472L91.5412 47.7708L91.5971 47.9933L91.6529 48.2161L91.7087 48.4391L91.7643 48.6624L91.8023 48.8852L91.8579 49.1088L91.9137 49.3505L91.9504 49.5733L92.0065 49.7966L92.0439 50.0196L92.0995 50.261L92.1368 50.4841L92.1738 50.7071L92.2112 50.9493L92.2489 51.1724L92.2854 51.3946L92.3232 51.637L92.3602 51.8606L92.397 52.1018L92.4346 52.3254L92.4526 52.5105C92.5089 52.975 92.3968 53.4404 92.1365 53.8304C91.7831 54.3322 91.2811 54.5932 90.7228 54.6297C89.7558 54.6854 88.8439 54.0729 88.6945 52.9943L88.6769 52.8077L88.6575 52.604L88.6209 52.3988L88.5831 52.1951L88.565 51.9901L88.5275 51.7857L88.4903 51.5812L88.4531 51.3767L88.4159 51.1538L88.3786 50.9493L88.3417 50.7449L88.3042 50.5399L88.2672 50.3362L88.2114 50.1311L88.1743 49.9272L88.1186 49.7407L88.0807 49.5363L88.025 49.3319L87.9885 49.1267L87.9327 48.923L87.8769 48.718L87.8203 48.5328L87.7647 48.3278L87.709 48.1239L87.6531 47.9373L87.5974 47.733L87.5418 47.5472L87.4858 47.3427L87.411 47.1569L87.3559 46.9524L87.3001 46.7665L87.2251 46.5614L87.1693 46.3764L87.0951 46.1905L87.0579 46.0597C86.8899 45.6144 86.9091 45.1305 87.0763 44.7023C87.2808 44.2197 87.6339 43.8847 88.0806 43.6802C89.0668 43.3085 90.2205 43.6988 90.6116 44.7773V44.7773ZM102.09 65.3377C99.9507 63.2005 98.6297 60.2441 98.6297 56.9914C98.6299 53.7563 99.9507 50.8008 102.09 48.6624C104.248 46.5251 107.187 45.1863 110.443 45.1863H111.503C110.053 38.4197 107.392 32.1175 103.746 26.4846L103.002 27.2281C100.695 29.533 97.6807 30.6859 94.6482 30.6859C91.6159 30.6859 88.583 29.5332 86.2951 27.2281C83.9882 24.9414 82.8345 21.9115 82.8345 18.8808C82.8347 15.8511 83.9882 12.8398 86.2951 10.5339L87.0394 9.79073C81.4023 6.14682 75.0957 3.48864 68.3236 2.03819V3.09833C68.3236 6.35132 66.9835 9.28891 64.8443 11.4454C62.7052 13.583 59.747 14.9027 56.4914 14.9027C53.2545 14.9027 50.2961 13.5833 48.1563 11.4454C46.0165 9.28893 44.6777 6.35134 44.6777 3.09833V2.03819C37.9057 3.48839 31.599 6.14682 25.9614 9.79073L26.7062 10.5339C29.0125 12.8398 30.1653 15.8511 30.1653 18.8808C30.1653 21.9115 29.0124 24.9415 26.706 27.2281C24.4169 29.533 21.3849 30.6859 18.3525 30.6859C15.32 30.6859 12.3059 29.5332 9.99954 27.2281L9.25497 26.4846C5.60829 32.1176 2.94821 38.4197 1.49643 45.1863H2.55709C5.81267 45.1863 8.75243 46.5251 10.9106 48.6624C13.05 50.8008 14.3713 53.7563 14.3713 56.9914C14.3713 60.2441 13.0499 63.2005 10.9106 65.3377C8.7524 67.4762 5.81247 68.815 2.55709 68.815H1.49643C2.94818 75.5814 5.60826 81.8837 9.25475 87.5159L9.99949 86.7726C12.3058 84.4675 15.3198 83.3146 18.3525 83.3146C21.3849 83.3146 24.4168 84.4675 26.706 86.7726C29.0125 89.0599 30.1653 92.0896 30.1653 95.1197C30.1653 98.1501 29.0123 101.162 26.706 103.467L25.9614 104.21C31.5989 107.854 37.9056 110.513 44.6777 111.962V110.903C44.6777 107.649 46.0165 104.712 48.1562 102.556C50.296 100.418 53.2544 99.0979 56.4914 99.0979C59.747 99.0979 62.7052 100.418 64.8443 102.556C66.9836 104.712 68.3235 107.649 68.3235 110.903V111.962C75.0956 110.513 81.4021 107.854 87.0393 104.21L86.2951 103.467C83.9881 101.162 82.8345 98.1501 82.8345 95.1197C82.8346 92.0896 83.9881 89.0599 86.2951 86.7726C88.5831 84.4675 91.6157 83.3146 94.6481 83.3146C97.6807 83.3146 100.695 84.4675 103.002 86.7726L103.746 87.5159C107.392 81.8837 110.053 75.5814 111.503 68.815H110.443C107.187 68.815 104.248 67.4762 102.09 65.3377H102.09Z" fill="url(#paint1_linear_262_174)"/>
<defs>
<linearGradient id="paint0_linear_262_174" x1="0.249847" y1="0.792267" x2="119.315" y2="8.23943" gradientUnits="userSpaceOnUse">
<stop stop-color="#FFD600"/>
<stop offset="1" stop-color="#FFBB36"/>
</linearGradient>
<linearGradient id="paint1_linear_262_174" x1="1.49643" y1="2.03819" x2="117.923" y2="9.32036" gradientUnits="userSpaceOnUse">
<stop stop-color="#FFD600"/>
<stop offset="1" stop-color="#FFBB36"/>
</linearGradient>
</defs>
</svg>
