<svg width="112" height="114" viewBox="0 0 112 114" fill="none" xmlns="http://www.w3.org/2000/svg">
<path d="M94.1823 55.1536H104.662C106.519 55.1536 108.205 55.9116 109.426 57.1326C110.647 58.3535 111.405 60.0399 111.405 61.8965C111.405 63.7532 110.647 65.4394 109.426 66.6603C108.205 67.8814 106.519 68.6393 104.662 68.6393H94.1823C92.9143 68.6393 91.8863 67.6113 91.8863 66.3434V57.4496C91.8863 56.1816 92.9143 55.1537 94.1823 55.1537V55.1536Z" fill="url(#paint0_linear_262_28)"/>
<path d="M99.6528 17.9694C99.6528 16.7015 100.681 15.6734 101.949 15.6734C103.217 15.6734 104.245 16.7014 104.245 17.9694V56.6736C104.245 57.9415 103.217 58.9695 101.949 58.9695C100.681 58.9695 99.6528 57.9415 99.6528 56.6736V17.9694V17.9694Z" fill="url(#paint1_linear_262_28)"/>
<path d="M47.9083 23.8046V26.0522L44.7757 38.6328H42.5892L45.7217 26.0522H41.1936V23.8046H47.9083Z" fill="url(#paint2_linear_262_28)"/>
<path d="M26.0493 23.8046V26.0522L22.9165 38.6328H20.7301L23.8627 26.0522H19.3345V23.8046H26.0493Z" fill="url(#paint3_linear_262_28)"/>
<path d="M69.7677 23.8046V26.0522L66.6352 38.6328H64.4482L67.5807 26.0522H63.0529V23.8046H69.7677Z" fill="url(#paint4_linear_262_28)"/>
<path fill-rule="evenodd" clip-rule="evenodd" d="M88.1737 43.2245V6.63332C88.1737 6.51991 88.1704 6.4072 88.164 6.29534V0.750008H82.2904H6.81216H0.928848V6.63332V11.2262V85.1605H88.1735V80.5688V43.2247L88.1737 43.2245ZM56.6527 14.8124H76.1681V47.625H56.6527V14.8124ZM12.9345 14.8124H32.4499V47.625H12.9345V14.8124V14.8124ZM54.309 14.8124H34.7936V47.625H54.309V14.8124ZM62.2484 55.2373C63.2871 54.1987 64.7222 53.556 66.3071 53.556C67.8919 53.556 69.3269 54.1987 70.3655 55.2373C71.4042 56.2759 72.0468 57.711 72.0468 59.2959C72.0468 60.8807 71.4042 62.3158 70.3655 63.3544C69.3269 64.393 67.8919 65.0357 66.3071 65.0357C64.7222 65.0357 63.2871 64.393 62.2484 63.3544C61.2097 62.3158 60.5672 60.8807 60.5672 59.2959C60.5672 57.7111 61.2097 56.2759 62.2484 55.2373V55.2373ZM22.7954 53.556C24.3802 53.556 25.8153 54.1987 26.854 55.2373C27.8927 56.2759 28.5352 57.7111 28.5352 59.2959C28.5352 60.8807 27.8927 62.3158 26.854 63.3544C25.8153 64.393 24.3802 65.0357 22.7954 65.0357C21.2106 65.0357 19.7755 64.393 18.7369 63.3544C17.6982 62.3158 17.0556 60.8807 17.0556 59.2959C17.0556 57.7111 17.6982 56.2759 18.7369 55.2373C19.7755 54.1987 21.2105 53.556 22.7954 53.556V53.556ZM44.5514 53.556C46.1362 53.556 47.5712 54.1987 48.6098 55.2373C49.6485 56.2759 50.2911 57.7111 50.2911 59.2959C50.2911 60.8807 49.6485 62.3158 48.6098 63.3544C47.5711 64.393 46.1362 65.0357 44.5514 65.0357C42.9665 65.0357 41.5314 64.393 40.4927 63.3544C39.454 62.3158 38.8115 60.8807 38.8115 59.2959C38.8115 57.7111 39.454 56.2759 40.4927 55.2373C41.5314 54.1987 42.9664 53.556 44.5514 53.556V53.556Z" fill="url(#paint5_linear_262_28)"/>
<path d="M109.241 14.3188H94.6576V18.9107H109.241V14.3188Z" fill="url(#paint6_linear_262_28)"/>
<path d="M96.4781 43.2245H83.5812V80.5686H96.4781V43.2245Z" fill="url(#paint7_linear_262_28)"/>
<path fill-rule="evenodd" clip-rule="evenodd" d="M0.928513 87.4563H88.1731V113.25H0.928513V87.4563V87.4563ZM15.852 94.6133H73.25V106.093H15.852V94.6133V94.6133Z" fill="url(#paint8_linear_262_28)"/>
<defs>
<linearGradient id="paint0_linear_262_28" x1="91.8863" y1="55.1536" x2="112.456" y2="57.0144" gradientUnits="userSpaceOnUse">
<stop stop-color="#FFD600"/>
<stop offset="1" stop-color="#FFBB36"/>
</linearGradient>
<linearGradient id="paint1_linear_262_28" x1="99.6528" y1="15.6734" x2="104.531" y2="15.7057" gradientUnits="userSpaceOnUse">
<stop stop-color="#FFD600"/>
<stop offset="1" stop-color="#FFBB36"/>
</linearGradient>
<linearGradient id="paint2_linear_262_28" x1="41.1936" y1="23.8046" x2="48.3223" y2="24.0063" gradientUnits="userSpaceOnUse">
<stop stop-color="#FFD600"/>
<stop offset="1" stop-color="#FFBB36"/>
</linearGradient>
<linearGradient id="paint3_linear_262_28" x1="19.3345" y1="23.8046" x2="26.4632" y2="24.0063" gradientUnits="userSpaceOnUse">
<stop stop-color="#FFD600"/>
<stop offset="1" stop-color="#FFBB36"/>
</linearGradient>
<linearGradient id="paint4_linear_262_28" x1="63.0529" y1="23.8046" x2="70.1817" y2="24.0063" gradientUnits="userSpaceOnUse">
<stop stop-color="#FFD600"/>
<stop offset="1" stop-color="#FFBB36"/>
</linearGradient>
<linearGradient id="paint5_linear_262_28" x1="0.928848" y1="0.750008" x2="93.2413" y2="6.71327" gradientUnits="userSpaceOnUse">
<stop stop-color="#FFD600"/>
<stop offset="1" stop-color="#FFBB36"/>
</linearGradient>
<linearGradient id="paint6_linear_262_28" x1="94.6576" y1="14.3188" x2="109.565" y2="17.2776" gradientUnits="userSpaceOnUse">
<stop stop-color="#FFD600"/>
<stop offset="1" stop-color="#FFBB36"/>
</linearGradient>
<linearGradient id="paint7_linear_262_28" x1="83.5812" y1="43.2245" x2="97.2777" y2="43.5201" gradientUnits="userSpaceOnUse">
<stop stop-color="#FFD600"/>
<stop offset="1" stop-color="#FFBB36"/>
</linearGradient>
<linearGradient id="paint8_linear_262_28" x1="0.928513" y1="87.4563" x2="89.6605" y2="106.214" gradientUnits="userSpaceOnUse">
<stop stop-color="#FFD600"/>
<stop offset="1" stop-color="#FFBB36"/>
</linearGradient>
</defs>
</svg>
