<svg width="80" height="80" viewBox="0 0 80 80" fill="none" xmlns="http://www.w3.org/2000/svg">
<path fill-rule="evenodd" clip-rule="evenodd" d="M24.0629 10.2037C25.8364 11.9772 26.9334 14.4272 26.9334 17.1332C26.9334 19.8392 25.8364 22.2893 24.0629 24.0628C22.2894 25.8362 19.8393 26.9333 17.1334 26.9333C14.4273 26.9333 11.9773 25.8362 10.2038 24.0628C8.43026 22.2893 7.33331 19.8392 7.33331 17.1332C7.33331 14.4272 8.43027 11.9772 10.2038 10.2037C11.9773 8.43013 14.4273 7.33318 17.1334 7.33318C19.8393 7.33318 22.2894 8.43013 24.0629 10.2037ZM0.799988 4.98542V75.0146C0.799988 76.1672 1.2704 77.214 2.02818 77.9718C2.78597 78.7296 3.83277 79.2 4.98543 79.2H75.0146C76.1673 79.2 77.2141 78.7296 77.9718 77.9718C78.7296 77.214 79.2 76.1672 79.2 75.0146V4.98542C79.2 3.83277 78.7296 2.78597 77.9718 2.02818C77.2141 1.27039 76.1673 0.799988 75.0146 0.799988H4.98543C3.83277 0.799988 2.78597 1.2704 2.02818 2.02818C1.27039 2.78597 0.799988 3.83277 0.799988 4.98542V4.98542ZM17.1334 53.0666C19.8393 53.0666 22.2894 54.1636 24.0629 55.9371C25.8364 57.7106 26.9334 60.1607 26.9334 62.8666C26.9334 65.5727 25.8364 68.0227 24.0629 69.7962C22.2894 71.5697 19.8393 72.6667 17.1334 72.6667C14.4273 72.6667 11.9773 71.5697 10.2038 69.7962C8.43026 68.0227 7.33331 65.5727 7.33331 62.8666C7.33331 60.1607 8.43027 57.7106 10.2038 55.9371C11.9773 54.1636 14.4273 53.0666 17.1334 53.0666ZM40 30.1999C42.7061 30.1999 45.1561 31.2969 46.9296 33.0704C48.7032 34.8439 49.8001 37.2939 49.8001 40C49.8001 42.706 48.7032 45.156 46.9296 46.9295C45.1561 48.7031 42.7061 49.8 40 49.8C37.294 49.8 34.844 48.7031 33.0705 46.9295C31.2969 45.156 30.2 42.706 30.2 40C30.2 37.2939 31.2969 34.8439 33.0705 33.0704C34.844 31.2969 37.294 30.1999 40 30.1999ZM55.9372 10.2036C57.7107 8.43008 60.1608 7.33313 62.8668 7.33313C65.5728 7.33313 68.0228 8.43008 69.7963 10.2036C71.5699 11.9772 72.6668 14.4272 72.6668 17.1332C72.6668 19.8392 71.5699 22.2892 69.7963 24.0628C68.0228 25.8362 65.5728 26.9333 62.8668 26.9333C60.1608 26.9333 57.7107 25.8362 55.9372 24.0628C54.1638 22.2892 53.0667 19.8392 53.0667 17.1332C53.0667 14.4272 54.1638 11.9772 55.9372 10.2036ZM62.8668 53.0665C65.5728 53.0665 68.0228 54.1636 69.7963 55.937C71.5699 57.7106 72.6668 60.1606 72.6668 62.8666C72.6668 65.5726 71.5699 68.0226 69.7963 69.7962C68.0228 71.5697 65.5728 72.6666 62.8668 72.6666C60.1608 72.6666 57.7107 71.5697 55.9372 69.7962C54.1638 68.0226 53.0667 65.5726 53.0667 62.8666C53.0667 60.1606 54.1638 57.7106 55.9372 55.937C57.7107 54.1636 60.1608 53.0665 62.8668 53.0665Z" fill="url(#paint0_linear_341_18)"/>
<defs>
<linearGradient id="paint0_linear_341_18" x1="0.799988" y1="0.799988" x2="83.7759" y2="5.98598" gradientUnits="userSpaceOnUse">
<stop stop-color="#FFD600"/>
<stop offset="1" stop-color="#FFBB36"/>
</linearGradient>
</defs>
</svg>
