<svg width="90" height="90" viewBox="0 0 90 90" fill="none" xmlns="http://www.w3.org/2000/svg">
<path d="M75.4125 43.5229H83.7962C85.2815 43.5229 86.6305 44.1293 87.6073 45.106C88.5842 46.0828 89.1905 47.4319 89.1905 48.9172C89.1905 50.4025 88.5841 51.7516 87.6073 52.7282C86.6306 53.7051 85.2815 54.3115 83.7962 54.3115H75.4125C74.3981 54.3115 73.5757 53.489 73.5757 52.4747V45.3597C73.5757 44.3453 74.3981 43.5229 75.4125 43.5229V43.5229Z" fill="url(#paint0_linear_341_163)"/>
<path d="M79.7888 13.7755C79.7888 12.7612 80.6113 11.9387 81.6256 11.9387C82.64 11.9387 83.4624 12.7612 83.4624 13.7755V44.7388C83.4624 45.7532 82.64 46.5756 81.6256 46.5756C80.6113 46.5756 79.7888 45.7532 79.7888 44.7388V13.7755V13.7755Z" fill="url(#paint1_linear_341_163)"/>
<path d="M38.3933 18.4437V20.2418L35.8872 30.3062H34.138L36.644 20.2418H33.0215V18.4437H38.3933Z" fill="url(#paint2_linear_341_163)"/>
<path d="M20.9061 18.4437V20.2418L18.3998 30.3062H16.6507L19.1568 20.2418H15.5342V18.4437H20.9061Z" fill="url(#paint3_linear_341_163)"/>
<path d="M55.8808 18.4437V20.2418L53.3748 30.3062H51.6252L54.1312 20.2418H50.509V18.4437H55.8808Z" fill="url(#paint4_linear_341_163)"/>
<path fill-rule="evenodd" clip-rule="evenodd" d="M70.6057 33.9796V4.70665C70.6057 4.61592 70.603 4.52575 70.5978 4.43627V0H65.899H5.5164H0.809753V4.70665V8.38096V67.5284H70.6054V63.8551V33.9798L70.6057 33.9796ZM45.3889 11.2499H61.0011V37.5H45.3889V11.2499ZM10.4143 11.2499H26.0266V37.5H10.4143V11.2499V11.2499ZM43.5138 11.2499H27.9015V37.5H43.5138V11.2499ZM49.8654 43.5899C50.6964 42.7589 51.8444 42.2448 53.1123 42.2448C54.3802 42.2448 55.5282 42.7589 56.3591 43.5899C57.19 44.4208 57.7041 45.5688 57.7041 46.8367C57.7041 48.1045 57.19 49.2527 56.3591 50.0835C55.5282 50.9144 54.3802 51.4285 53.1123 51.4285C51.8444 51.4285 50.6964 50.9144 49.8654 50.0835C49.0345 49.2527 48.5204 48.1045 48.5204 46.8367C48.5204 45.5689 49.0345 44.4208 49.8654 43.5899V43.5899ZM18.303 42.2448C19.5709 42.2448 20.7189 42.7589 21.5499 43.5899C22.3808 44.4208 22.8949 45.5689 22.8949 46.8367C22.8949 48.1045 22.3808 49.2527 21.5499 50.0835C20.7189 50.9144 19.5709 51.4285 18.303 51.4285C17.0351 51.4285 15.8871 50.9144 15.0562 50.0835C14.2252 49.2527 13.7112 48.1045 13.7112 46.8367C13.7112 45.5689 14.2252 44.4208 15.0562 43.5899C15.8871 42.7589 17.0351 42.2448 18.303 42.2448V42.2448ZM35.7078 42.2448C36.9756 42.2448 38.1236 42.7589 38.9545 43.5899C39.7855 44.4208 40.2995 45.5689 40.2995 46.8367C40.2995 48.1045 39.7855 49.2527 38.9545 50.0835C38.1236 50.9144 36.9756 51.4285 35.7078 51.4285C34.4398 51.4285 33.2918 50.9144 32.4609 50.0835C31.6299 49.2527 31.1159 48.1045 31.1159 46.8367C31.1159 45.5689 31.6299 44.4208 32.4609 43.5899C33.2918 42.7589 34.4398 42.2448 35.7078 42.2448V42.2448Z" fill="url(#paint5_linear_341_163)"/>
<path d="M87.4591 10.855H75.7927V14.5286H87.4591V10.855Z" fill="url(#paint6_linear_341_163)"/>
<path d="M77.2491 33.9796H66.9316V63.8549H77.2491V33.9796Z" fill="url(#paint7_linear_341_163)"/>
<path fill-rule="evenodd" clip-rule="evenodd" d="M0.809448 69.365H70.6051V90.0001H0.809448V69.365V69.365ZM12.7483 75.0907H58.6667V84.2745H12.7483V75.0907V75.0907Z" fill="url(#paint8_linear_341_163)"/>
<defs>
<linearGradient id="paint0_linear_341_163" x1="73.5757" y1="43.5229" x2="90.0317" y2="45.0115" gradientUnits="userSpaceOnUse">
<stop stop-color="#FFD600"/>
<stop offset="1" stop-color="#FFBB36"/>
</linearGradient>
<linearGradient id="paint1_linear_341_163" x1="79.7888" y1="11.9387" x2="83.6918" y2="11.9646" gradientUnits="userSpaceOnUse">
<stop stop-color="#FFD600"/>
<stop offset="1" stop-color="#FFBB36"/>
</linearGradient>
<linearGradient id="paint2_linear_341_163" x1="33.0215" y1="18.4437" x2="38.7245" y2="18.6051" gradientUnits="userSpaceOnUse">
<stop stop-color="#FFD600"/>
<stop offset="1" stop-color="#FFBB36"/>
</linearGradient>
<linearGradient id="paint3_linear_341_163" x1="15.5342" y1="18.4437" x2="21.2372" y2="18.6051" gradientUnits="userSpaceOnUse">
<stop stop-color="#FFD600"/>
<stop offset="1" stop-color="#FFBB36"/>
</linearGradient>
<linearGradient id="paint4_linear_341_163" x1="50.509" y1="18.4437" x2="56.212" y2="18.6051" gradientUnits="userSpaceOnUse">
<stop stop-color="#FFD600"/>
<stop offset="1" stop-color="#FFBB36"/>
</linearGradient>
<linearGradient id="paint5_linear_341_163" x1="0.809753" y1="0" x2="74.6597" y2="4.77061" gradientUnits="userSpaceOnUse">
<stop stop-color="#FFD600"/>
<stop offset="1" stop-color="#FFBB36"/>
</linearGradient>
<linearGradient id="paint6_linear_341_163" x1="75.7927" y1="10.855" x2="87.7184" y2="13.2221" gradientUnits="userSpaceOnUse">
<stop stop-color="#FFD600"/>
<stop offset="1" stop-color="#FFBB36"/>
</linearGradient>
<linearGradient id="paint7_linear_341_163" x1="66.9316" y1="33.9796" x2="77.8889" y2="34.2161" gradientUnits="userSpaceOnUse">
<stop stop-color="#FFD600"/>
<stop offset="1" stop-color="#FFBB36"/>
</linearGradient>
<linearGradient id="paint8_linear_341_163" x1="0.809448" y1="69.365" x2="71.7951" y2="84.3713" gradientUnits="userSpaceOnUse">
<stop stop-color="#FFD600"/>
<stop offset="1" stop-color="#FFBB36"/>
</linearGradient>
</defs>
</svg>
