<svg width="99" height="98" viewBox="0 0 99 98" fill="none" xmlns="http://www.w3.org/2000/svg">
<path fill-rule="evenodd" clip-rule="evenodd" d="M29.5787 11.7546C31.7955 13.9715 33.1668 17.034 33.1668 20.4166C33.1668 23.799 31.7955 26.8616 29.5787 29.0785C27.3618 31.2953 24.2992 32.6666 20.9167 32.6666C17.5342 32.6666 14.4717 31.2953 12.2548 29.0785C10.0378 26.8616 8.66665 23.799 8.66665 20.4166C8.66665 17.034 10.0379 13.9715 12.2548 11.7546C14.4717 9.53768 17.5342 8.16649 20.9167 8.16649C24.2992 8.16649 27.3618 9.53768 29.5787 11.7546ZM0.5 5.2318V92.7683C0.5 94.2091 1.08801 95.5176 2.03524 96.4648C2.98248 97.412 4.29097 98.0001 5.7318 98.0001H93.2683C94.7091 98.0001 96.0176 97.412 96.9648 96.4648C97.9121 95.5176 98.5001 94.2091 98.5001 92.7683V5.2318C98.5001 3.79097 97.912 2.48247 96.9648 1.53524C96.0176 0.588006 94.7091 0 93.2683 0H5.7318C4.29097 0 2.98247 0.588009 2.03524 1.53524C1.08801 2.48248 0.5 3.79097 0.5 5.2318V5.2318ZM20.9167 65.3332C24.2992 65.3332 27.3618 66.7046 29.5787 68.9213C31.7955 71.1383 33.1668 74.2008 33.1668 77.5833C33.1668 80.9658 31.7955 84.0283 29.5787 86.2453C27.3618 88.4622 24.2992 89.8334 20.9167 89.8334C17.5342 89.8334 14.4717 88.4622 12.2548 86.2453C10.0378 84.0283 8.66665 80.9658 8.66665 77.5833C8.66665 74.2008 10.0379 71.1383 12.2548 68.9213C14.4717 66.7046 17.5342 65.3332 20.9167 65.3332ZM49.5001 36.7499C52.8826 36.7499 55.9451 38.1211 58.162 40.338C60.379 42.5549 61.7501 45.6174 61.7501 49C61.7501 52.3825 60.3789 55.445 58.162 57.6619C55.9451 59.8789 52.8826 61.25 49.5001 61.25C46.1175 61.25 43.055 59.8789 40.8381 57.6619C38.6212 55.445 37.25 52.3825 37.25 49C37.25 45.6174 38.6212 42.5549 40.8381 40.338C43.055 38.1211 46.1175 36.7499 49.5001 36.7499ZM69.4215 11.7545C71.6384 9.53761 74.701 8.16642 78.0835 8.16642C81.466 8.16642 84.5285 9.53762 86.7454 11.7545C88.9624 13.9715 90.3335 17.034 90.3335 20.4165C90.3335 23.799 88.9623 26.8615 86.7454 29.0785C84.5285 31.2952 81.466 32.6666 78.0835 32.6666C74.701 32.6666 71.6384 31.2952 69.4215 29.0785C67.2047 26.8615 65.8334 23.799 65.8334 20.4165C65.8334 17.034 67.2047 13.9715 69.4215 11.7545ZM78.0835 65.3332C81.466 65.3332 84.5285 66.7045 86.7454 68.9213C88.9624 71.1382 90.3335 74.2008 90.3335 77.5832C90.3335 80.9658 88.9623 84.0283 86.7454 86.2452C84.5285 88.4621 81.466 89.8333 78.0835 89.8333C74.701 89.8333 71.6384 88.4621 69.4215 86.2452C67.2047 84.0283 65.8334 80.9658 65.8334 77.5832C65.8334 74.2008 67.2047 71.1382 69.4215 68.9213C71.6384 66.7045 74.701 65.3332 78.0835 65.3332Z" fill="url(#paint0_linear_262_71)"/>
<defs>
<linearGradient id="paint0_linear_262_71" x1="0.5" y1="0" x2="104.22" y2="6.4825" gradientUnits="userSpaceOnUse">
<stop stop-color="#FFD600"/>
<stop offset="1" stop-color="#FFBB36"/>
</linearGradient>
</defs>
</svg>
