<svg width="18" height="20" viewBox="0 0 18 20" fill="none" xmlns="http://www.w3.org/2000/svg">
<path d="M15.8953 7.16678L13.8084 6.73266C13.8102 6.71239 13.8102 6.69201 13.8084 6.67174V4.84767C13.8266 4.19988 13.7147 3.55503 13.4793 2.95124C13.244 2.34745 12.8899 1.79697 12.4382 1.33236C11.9864 0.86775 11.4461 0.498436 10.8491 0.246252C10.2522 -0.00593139 9.6107 -0.135864 8.96266 -0.135864C8.31462 -0.135864 7.67315 -0.00593139 7.07619 0.246252C6.47924 0.498436 5.9389 0.86775 5.48713 1.33236C5.03536 1.79697 4.68134 2.34745 4.44598 2.95124C4.21063 3.55503 4.09872 4.19988 4.11688 4.84767V6.7517L2.03768 7.16678C1.69069 7.22698 1.37616 7.4079 1.14968 7.67759C0.923202 7.94727 0.799362 8.28834 0.800052 8.64051V18.5072C0.801057 18.9028 0.958653 19.2819 1.23838 19.5617C1.51811 19.8414 1.89722 19.999 2.29282 20H15.6515C16.0471 19.999 16.4262 19.8414 16.706 19.5617C16.9857 19.2819 17.1433 18.9028 17.1443 18.5072V8.64051C17.1453 8.28648 17.0201 7.94367 16.7912 7.67359C16.5623 7.40351 16.2447 7.22383 15.8953 7.16678ZM10.3202 13.8804V15.7159C10.3202 15.8476 10.2682 15.9739 10.1755 16.0673C10.0827 16.1608 9.95683 16.2138 9.82518 16.2148H8.1344C8.00311 16.2148 7.87719 16.1626 7.78435 16.0698C7.69151 15.9769 7.63935 15.851 7.63935 15.7197V13.888C7.34681 13.6932 7.1039 13.4326 6.93 13.1271C6.75611 12.8216 6.65605 12.4797 6.63783 12.1287C6.61552 11.8113 6.65803 11.4926 6.76277 11.1921C6.86752 10.8916 7.03231 10.6156 7.24712 10.3808C7.45761 10.1477 7.71339 9.95997 7.99886 9.82903C8.28432 9.69808 8.59347 9.62668 8.90744 9.61918C9.21895 9.61208 9.52873 9.66731 9.81859 9.78163C10.1085 9.89595 10.3725 10.067 10.5953 10.2849C10.8181 10.5027 10.9951 10.7629 11.116 11.0501C11.2368 11.3373 11.299 11.6458 11.2989 11.9573C11.2973 12.332 11.2079 12.7012 11.038 13.0351C10.868 13.3691 10.6222 13.6586 10.3202 13.8804ZM12.0339 6.36328L11.9234 6.34043C10.9522 6.17549 9.96876 6.09269 8.9836 6.09291C8.0075 6.09413 7.03316 6.17564 6.07043 6.33662L5.91049 6.3709V4.84767C5.89597 4.43576 5.96457 4.02514 6.11218 3.64032C6.2598 3.25549 6.48341 2.90434 6.76967 2.60781C7.05594 2.31127 7.399 2.07543 7.77839 1.91436C8.15778 1.75328 8.56572 1.67027 8.97789 1.67027C9.39005 1.67027 9.798 1.75328 10.1774 1.91436C10.5568 2.07543 10.8998 2.31127 11.1861 2.60781C11.4724 2.90434 11.696 3.25549 11.8436 3.64032C11.9912 4.02514 12.0598 4.43576 12.0453 4.84767L12.0339 6.36328Z" fill="url(#paint0_linear_365_386)"/>
<defs>
<linearGradient id="paint0_linear_365_386" x1="0.800049" y1="-0.135864" x2="18.1212" y2="0.742861" gradientUnits="userSpaceOnUse">
<stop stop-color="#FFD600"/>
<stop offset="1" stop-color="#FFBB36"/>
</linearGradient>
</defs>
</svg>
