<svg width="20" height="20" viewBox="0 0 20 20" fill="none" xmlns="http://www.w3.org/2000/svg">
<path d="M17.0702 2.92979C16.1419 2.00104 15.0397 1.26429 13.8265 0.761627C12.6134 0.258965 11.3131 0.000244141 9.99999 0.000244141C8.68685 0.000244141 7.38657 0.258965 6.17344 0.761627C4.96031 1.26429 3.85811 2.00104 2.92979 2.92979C2.00104 3.85811 1.26429 4.96031 0.761627 6.17344C0.258965 7.38657 0.000244141 8.68685 0.000244141 9.99999C0.000244141 11.3131 0.258965 12.6134 0.761627 13.8265C1.26429 15.0397 2.00104 16.1419 2.92979 17.0702C3.85811 17.9989 4.96031 18.7357 6.17344 19.2384C7.38657 19.741 8.68685 19.9997 9.99999 19.9997C11.3131 19.9997 12.6134 19.741 13.8265 19.2384C15.0397 18.7357 16.1419 17.9989 17.0702 17.0702C17.9989 16.1419 18.7357 15.0397 19.2384 13.8265C19.741 12.6134 19.9997 11.3131 19.9997 9.99999C19.9997 8.68685 19.741 7.38657 19.2384 6.17344C18.7357 4.96031 17.9989 3.85811 17.0702 2.92979ZM9.99999 5.01432C10.1625 5.01361 10.3216 5.0612 10.457 5.15106C10.5924 5.24091 10.6981 5.36897 10.7606 5.51899C10.8232 5.669 10.8397 5.83421 10.8082 5.99365C10.7766 6.15309 10.6985 6.29956 10.5835 6.41448C10.4686 6.5294 10.3221 6.60759 10.1627 6.63913C10.0033 6.67066 9.83806 6.65412 9.68804 6.59159C9.53802 6.52907 9.40996 6.42339 9.32011 6.28796C9.23026 6.15253 9.18267 5.99346 9.18337 5.83094C9.18432 5.61465 9.27066 5.40749 9.4236 5.25454C9.57654 5.1016 9.7837 5.01526 9.99999 5.01432ZM11.1999 14.4341C10.8086 14.7543 10.3286 14.9468 9.82449 14.9857C9.61049 14.9859 9.40031 14.929 9.21561 14.8209C8.9978 14.6759 8.82563 14.472 8.71912 14.2329C8.6126 13.9939 8.57611 13.7296 8.61389 13.4706C8.75357 12.3209 8.97206 10.8847 9.30873 9.09025C9.15809 9.12932 8.9983 9.11096 8.86045 9.03873C8.7226 8.9665 8.61656 8.84557 8.56294 8.69947C8.50933 8.55337 8.51198 8.39255 8.57039 8.2483C8.6288 8.10405 8.73878 7.98669 8.87893 7.91905C9.10458 7.80443 9.78509 7.45343 10.3116 7.83309C10.4657 7.96011 10.5783 8.13022 10.6351 8.32165C10.6919 8.51308 10.6902 8.7171 10.6304 8.90759C10.2722 10.8417 10.0215 12.4284 9.87463 13.6175C9.86778 13.6505 9.86778 13.6847 9.87463 13.7178C10.0935 13.6584 10.2973 13.5534 10.4728 13.4097C10.539 13.3523 10.6166 13.3094 10.7005 13.2838C10.7844 13.2583 10.8728 13.2506 10.9598 13.2613C11.0469 13.272 11.1307 13.3009 11.2059 13.346C11.2811 13.3911 11.346 13.4516 11.3963 13.5233C11.4467 13.5951 11.4815 13.6767 11.4984 13.7628C11.5152 13.8488 11.5139 13.9375 11.4943 14.023C11.4748 14.1085 11.4375 14.1889 11.385 14.2591C11.3324 14.3293 11.2657 14.3877 11.1891 14.4305L11.1999 14.4341Z" fill="url(#paint0_linear_365_378)"/>
<defs>
<linearGradient id="paint0_linear_365_378" x1="0.000244141" y1="0.000244141" x2="21.167" y2="1.32317" gradientUnits="userSpaceOnUse">
<stop stop-color="#FFD600"/>
<stop offset="1" stop-color="#FFBB36"/>
</linearGradient>
</defs>
</svg>
