<svg width="20" height="18" viewBox="0 0 20 18" fill="none" xmlns="http://www.w3.org/2000/svg">
<path d="M18.8467 0.600006H1.15718C0.85028 0.600006 0.555945 0.721923 0.338931 0.938938C0.121917 1.15595 0 1.45029 0 1.75719L0 12.114C0 12.4209 0.121917 12.7152 0.338931 12.9322C0.555945 13.1493 0.85028 13.2712 1.15718 13.2712H3.93443V17.2442C3.93454 17.3065 3.95286 17.3675 3.98712 17.4195C4.02138 17.4716 4.07009 17.5125 4.12729 17.5373C4.16338 17.556 4.20262 17.5677 4.24301 17.572C4.28468 17.5729 4.32608 17.5652 4.36459 17.5493C4.4031 17.5333 4.43789 17.5096 4.46673 17.4795L8.65959 13.2635H18.8467C19.1536 13.2635 19.4479 13.1415 19.6649 12.9245C19.8819 12.7075 20.0039 12.4132 20.0039 12.1063V1.75719C20.0039 1.45029 19.8819 1.15595 19.6649 0.938938C19.4479 0.721923 19.1536 0.600006 18.8467 0.600006V0.600006ZM10.9778 9.34832H4.45516C4.28445 9.33542 4.12491 9.25851 4.0085 9.13297C3.8921 9.00744 3.82741 8.84256 3.82741 8.67137C3.82741 8.50017 3.8921 8.33529 4.0085 8.20976C4.12491 8.08423 4.28445 8.00731 4.45516 7.99441H10.9778C11.1485 8.00731 11.3081 8.08423 11.4245 8.20976C11.5409 8.33529 11.6056 8.50017 11.6056 8.67137C11.6056 8.84256 11.5409 9.00744 11.4245 9.13297C11.3081 9.25851 11.1485 9.33542 10.9778 9.34832ZM15.7454 5.9192H4.45516C4.27613 5.9192 4.10444 5.84808 3.97784 5.72149C3.85125 5.59489 3.78013 5.4232 3.78013 5.24417C3.78013 5.06514 3.85125 4.89345 3.97784 4.76686C4.10444 4.64027 4.27613 4.56915 4.45516 4.56915H15.7454C15.9244 4.56915 16.0961 4.64027 16.2227 4.76686C16.3493 4.89345 16.4204 5.06514 16.4204 5.24417C16.4204 5.4232 16.3493 5.59489 16.2227 5.72149C16.0961 5.84808 15.9244 5.9192 15.7454 5.9192Z" fill="url(#paint0_linear_365_394)"/>
<defs>
<linearGradient id="paint0_linear_365_394" x1="0" y1="0.600006" x2="21.1394" y2="2.15723" gradientUnits="userSpaceOnUse">
<stop stop-color="#FFD600"/>
<stop offset="1" stop-color="#FFBB36"/>
</linearGradient>
</defs>
</svg>
