<svg width="20" height="20" viewBox="0 0 20 20" fill="none" xmlns="http://www.w3.org/2000/svg">
<path d="M19.5465 10.3766L10.146 0.10376C10.1168 0.0709548 10.081 0.0447005 10.0409 0.0267227C10.0009 0.00874495 9.95743 -0.000549316 9.91351 -0.000549316C9.86959 -0.000549316 9.82617 0.00874495 9.78609 0.0267227C9.74602 0.0447005 9.7102 0.0709548 9.681 0.10376L0.280536 10.3766C0.240342 10.4221 0.213931 10.478 0.204401 10.5379C0.194872 10.5978 0.202618 10.6592 0.226732 10.7148C0.250925 10.7711 0.291176 10.819 0.342447 10.8525C0.393718 10.886 0.45373 10.9036 0.514971 10.9031H2.56724V19.6849C2.57123 19.7671 2.60724 19.8445 2.66757 19.9005C2.7279 19.9565 2.80776 19.9867 2.89007 19.9846H7.94771C8.0313 19.9846 8.11145 19.9514 8.17055 19.8923C8.22966 19.8332 8.26286 19.7531 8.26286 19.6695V15.1345H11.5642V19.6849C11.5642 19.7684 11.5974 19.8486 11.6565 19.9077C11.7156 19.9668 11.7957 20 11.8793 20H16.9446C17.0282 20 17.1084 19.9668 17.1675 19.9077C17.2266 19.8486 17.2598 19.7684 17.2598 19.6849V10.8916H19.312C19.371 10.8899 19.4282 10.8717 19.4773 10.8391C19.5264 10.8065 19.5653 10.7608 19.5897 10.7072C19.6142 10.6535 19.623 10.5941 19.6154 10.5357C19.6078 10.4773 19.5839 10.4222 19.5465 10.3766Z" fill="url(#paint0_linear_365_370)"/>
<defs>
<linearGradient id="paint0_linear_365_370" x1="0.200439" y1="-0.000549316" x2="20.756" y2="1.24673" gradientUnits="userSpaceOnUse">
<stop stop-color="#FFD600"/>
<stop offset="1" stop-color="#FFBB36"/>
</linearGradient>
</defs>
</svg>
