<svg width="23" height="26" viewBox="0 0 23 26" fill="none" xmlns="http://www.w3.org/2000/svg">
<path fill-rule="evenodd" clip-rule="evenodd" d="M11.1318 2.4C8.86697 2.4 7.01378 4.44903 7.01378 6.44352C7.01378 7.54456 7.59218 8.97754 8.56992 10.0374C8.82682 10.3158 8.93713 10.6992 8.86747 11.0717C8.79782 11.4441 8.55639 11.7617 8.21621 11.9285C6.57302 12.7342 4.96073 13.9624 4.07043 15.276C3.3243 16.377 3.02723 17.1297 2.89826 17.8159C2.76587 18.5203 2.79234 19.2204 2.83443 20.3339C2.83598 20.3747 2.83754 20.4161 2.83912 20.458C2.84462 20.6044 2.91563 20.8319 3.28826 21.1377C3.67215 21.4528 4.2841 21.767 5.12519 22.0405C6.79891 22.5846 9.08964 22.8752 11.4309 22.8755C13.773 22.8759 16.0503 22.5857 17.6987 22.0433C18.5276 21.7706 19.12 21.4589 19.4833 21.1511C19.8311 20.8565 19.8873 20.6434 19.8873 20.5031C19.8873 20.1165 19.8942 19.7827 19.9003 19.4835C19.9148 18.7849 19.9253 18.2744 19.8352 17.7179C19.7232 17.0269 19.4403 16.27 18.6114 15.1863C17.6174 13.8866 15.8919 12.6823 14.1747 11.8989C13.8266 11.7401 13.575 11.4248 13.4976 11.05C13.4202 10.6752 13.5261 10.286 13.7828 10.0022C14.742 8.94181 15.3052 7.52984 15.3052 6.44352C15.3052 4.46535 13.4127 2.4 11.1318 2.4ZM4.61378 6.44352C4.61378 3.17368 7.4919 0 11.1318 0C14.7556 0 17.7052 3.15736 17.7052 6.44352C17.7052 7.75357 17.2416 9.16448 16.4839 10.3853C18.0061 11.2462 19.4992 12.3965 20.5178 13.7283C21.539 15.0636 22.0174 16.181 22.2042 17.3339C22.3319 18.1216 22.3146 18.9451 22.2981 19.7332C22.2927 19.9946 22.2873 20.2521 22.2873 20.5031C22.2873 21.5543 21.7413 22.3836 21.0347 22.9823C20.3435 23.5679 19.4292 24.0005 18.4489 24.3231C16.4789 24.9713 13.928 25.2759 11.4306 25.2755C8.93246 25.2752 6.37256 24.9697 4.38312 24.3229C3.39263 24.0008 2.46988 23.5708 1.76575 22.993C1.05037 22.4059 0.480077 21.592 0.440812 20.5482C0.437939 20.4718 0.434985 20.3958 0.432042 20.32C0.392825 19.3105 0.355569 18.3515 0.539555 17.3726C0.745615 16.2762 1.20998 15.2188 2.0837 13.9296C3.01459 12.556 4.42707 11.3659 5.88985 10.4717C5.09915 9.23112 4.61378 7.78393 4.61378 6.44352Z" fill="url(#paint0_linear_32_986)"/>
<defs>
<linearGradient id="paint0_linear_32_986" x1="0.399902" y1="0" x2="23.6107" y2="1.25749" gradientUnits="userSpaceOnUse">
<stop stop-color="#FFD600"/>
<stop offset="1" stop-color="#FFBB36"/>
</linearGradient>
</defs>
</svg>
