<svg width="20" height="27" viewBox="0 0 20 27" fill="none" xmlns="http://www.w3.org/2000/svg">
<path fill-rule="evenodd" clip-rule="evenodd" d="M2.8 11.7966C2.57909 11.7966 2.4 11.9756 2.4 12.1966V23.3966C2.4 23.6175 2.57909 23.7966 2.8 23.7966H17.2C17.4209 23.7966 17.6 23.6175 17.6 23.3966V12.1966C17.6 11.9756 17.4209 11.7966 17.2 11.7966H2.8ZM0 12.1966C0 10.6502 1.2536 9.39656 2.8 9.39656H17.2C18.7464 9.39656 20 10.6502 20 12.1966V23.3966C20 24.943 18.7464 26.1966 17.2 26.1966H2.8C1.2536 26.1966 0 24.943 0 23.3966V12.1966Z" fill="url(#paint0_linear_32_993)"/>
<path fill-rule="evenodd" clip-rule="evenodd" d="M9.99984 2.6C7.82752 2.6 6.0665 4.36101 6.0665 6.53333V10.5966C6.0665 11.2593 5.52925 11.7966 4.8665 11.7966C4.20376 11.7966 3.6665 11.2593 3.6665 10.5966V6.53333C3.6665 3.03553 6.50203 0.199997 9.99984 0.199997C13.4976 0.199997 16.3332 3.03553 16.3332 6.53333V10.5966C16.3332 11.2593 15.7959 11.7966 15.1332 11.7966C14.4704 11.7966 13.9332 11.2593 13.9332 10.5966V6.53333C13.9332 4.36101 12.1722 2.6 9.99984 2.6Z" fill="url(#paint1_linear_32_993)"/>
<defs>
<linearGradient id="paint0_linear_32_993" x1="0" y1="9.39656" x2="21.133" y2="10.969" gradientUnits="userSpaceOnUse">
<stop stop-color="#FFD600"/>
<stop offset="1" stop-color="#FFBB36"/>
</linearGradient>
<linearGradient id="paint1_linear_32_993" x1="3.6665" y1="0.199997" x2="17.0624" y2="1.1145" gradientUnits="userSpaceOnUse">
<stop stop-color="#FFD600"/>
<stop offset="1" stop-color="#FFBB36"/>
</linearGradient>
</defs>
</svg>
