<svg width="28" height="21" viewBox="0 0 28 21" fill="none" xmlns="http://www.w3.org/2000/svg">
<path fill-rule="evenodd" clip-rule="evenodd" d="M3.5948 3.14957C3.37406 3.14957 3.19504 3.32839 3.1948 3.54913L3.17881 17.9153C3.17881 18.1362 3.3579 18.3157 3.57881 18.3157H24.6252C24.8456 18.3157 25.0245 18.1375 25.0252 17.9171L25.0732 3.55091V3.54957C25.0732 3.32866 24.8941 3.14957 24.6732 3.14957H3.5948ZM0.7948 3.54646C0.796519 2.00128 2.04962 0.749573 3.5948 0.749573H24.6732C26.2196 0.749573 27.4732 2.00318 27.4732 3.54957L27.4732 3.55892L27.4252 17.9251C27.4201 19.4678 26.168 20.7157 24.6252 20.7157H3.57881C2.03241 20.7157 0.778809 19.4621 0.778809 17.9157L0.77881 17.9126L0.7948 3.54646Z" fill="url(#paint0_linear_32_976)"/>
<path fill-rule="evenodd" clip-rule="evenodd" d="M13.4272 13.6569C13.5125 13.7321 13.6064 13.7933 13.7056 13.8403C13.8691 13.9179 14.0455 13.956 14.2214 13.9557C14.3972 13.9556 14.5735 13.9171 14.7368 13.839C14.8359 13.7918 14.9296 13.7303 15.0147 13.6549L26.7396 3.61784C27.2431 3.18685 27.3025 2.42872 26.8715 1.92526C26.4406 1.42179 25.683 1.36304 25.1796 1.79403L14.2179 11.1777L3.20016 1.79273C2.69564 1.36298 1.93755 1.42298 1.50779 1.9275C1.07804 2.43202 1.13865 3.18939 1.64317 3.61914L13.4272 13.6569Z" fill="url(#paint1_linear_32_976)"/>
<defs>
<linearGradient id="paint0_linear_32_976" x1="0.778809" y1="0.749573" x2="28.9449" y2="3.10318" gradientUnits="userSpaceOnUse">
<stop stop-color="#FFD600"/>
<stop offset="1" stop-color="#FFBB36"/>
</linearGradient>
<linearGradient id="paint1_linear_32_976" x1="27.1597" y1="13.9557" x2="0.059615" y2="10.427" gradientUnits="userSpaceOnUse">
<stop stop-color="#FFD600"/>
<stop offset="1" stop-color="#FFBB36"/>
</linearGradient>
</defs>
</svg>
